<?xml version="1.0" encoding="UTF-8" standalone="no"?>
<!DOCTYPE svg PUBLIC "-//W3C//DTD SVG 1.1//EN"
 "http://www.w3.org/Graphics/SVG/1.1/DTD/svg11.dtd">
<!-- Generated by graphviz version 12.1.0 (20240811.2233)
 -->
<!-- Title: G Pages: 1 -->
<svg width="386pt" height="242pt"
 viewBox="0.00 0.00 386.25 242.10" xmlns="http://www.w3.org/2000/svg" xmlns:xlink="http://www.w3.org/1999/xlink">
<g id="graph0" class="graph" transform="scale(1 1) rotate(0) translate(4 238.1)">
<title>G</title>
<polygon fill="white" stroke="none" points="-4,4 -4,-238.1 382.25,-238.1 382.25,4 -4,4"/>
<!-- course -->
<g id="node1" class="node">
<title>course</title>
<path fill="#f5f5f5" stroke="black" d="M271.75,-234.1C271.75,-234.1 111,-234.1 111,-234.1 105,-234.1 99,-228.1 99,-222.1 99,-222.1 99,-147.05 99,-147.05 99,-141.05 105,-135.05 111,-135.05 111,-135.05 271.75,-135.05 271.75,-135.05 277.75,-135.05 283.75,-141.05 283.75,-147.05 283.75,-147.05 283.75,-222.1 283.75,-222.1 283.75,-228.1 277.75,-234.1 271.75,-234.1"/>
<text text-anchor="start" x="167.75" y="-202.55" font-family="Times,serif" font-weight="bold" font-size="17.00">course</text>
<text text-anchor="start" x="137" y="-182.8" font-family="Times,serif" font-size="12.00">ValueType: SingleLine</text>
<text text-anchor="start" x="166.62" y="-168.55" font-family="Times,serif" font-size="12.00">Once: true</text>
<text text-anchor="start" x="157.62" y="-154.3" font-family="Times,serif" font-size="12.00">Required: true</text>
</g>
<!-- code -->
<g id="node2" class="node">
<title>code</title>
<path fill="#f5f5f5" stroke="black" d="M172.75,-99.05C172.75,-99.05 12,-99.05 12,-99.05 6,-99.05 0,-93.05 0,-87.05 0,-87.05 0,-12 0,-12 0,-6 6,0 12,0 12,0 172.75,0 172.75,0 178.75,0 184.75,-6 184.75,-12 184.75,-12 184.75,-87.05 184.75,-87.05 184.75,-93.05 178.75,-99.05 172.75,-99.05"/>
<text text-anchor="start" x="75.88" y="-67.5" font-family="Times,serif" font-weight="bold" font-size="17.00">code</text>
<text text-anchor="start" x="38" y="-47.75" font-family="Times,serif" font-size="12.00">ValueType: SingleLine</text>
<text text-anchor="start" x="67.62" y="-33.5" font-family="Times,serif" font-size="12.00">Once: true</text>
<text text-anchor="start" x="58.62" y="-19.25" font-family="Times,serif" font-size="12.00">Required: true</text>
</g>
<!-- course&#45;&gt;code -->
<g id="edge1" class="edge">
<title>course&#45;&gt;code</title>
<path fill="none" stroke="black" d="M155.07,-134.79C148.68,-126.2 141.98,-117.19 135.43,-108.38"/>
<polygon fill="black" stroke="black" points="138.35,-106.45 129.58,-100.52 132.74,-110.63 138.35,-106.45"/>
</g>
<!-- goal -->
<g id="node3" class="node">
<title>goal</title>
<path fill="#f5f5f5" stroke="black" d="M366.25,-99.05C366.25,-99.05 214.5,-99.05 214.5,-99.05 208.5,-99.05 202.5,-93.05 202.5,-87.05 202.5,-87.05 202.5,-12 202.5,-12 202.5,-6 208.5,0 214.5,0 214.5,0 366.25,0 366.25,0 372.25,0 378.25,-6 378.25,-12 378.25,-12 378.25,-87.05 378.25,-87.05 378.25,-93.05 372.25,-99.05 366.25,-99.05"/>
<text text-anchor="start" x="275.75" y="-67.5" font-family="Times,serif" font-weight="bold" font-size="17.00">goal</text>
<text text-anchor="start" x="240.5" y="-47.75" font-family="Times,serif" font-size="12.00">ValueType: Multiline</text>
<text text-anchor="start" x="265.62" y="-33.5" font-family="Times,serif" font-size="12.00">Once: true</text>
<text text-anchor="start" x="256.62" y="-19.25" font-family="Times,serif" font-size="12.00">Required: true</text>
</g>
<!-- course&#45;&gt;goal -->
<g id="edge2" class="edge">
<title>course&#45;&gt;goal</title>
<path fill="none" stroke="black" d="M227.68,-134.79C234.07,-126.2 240.77,-117.19 247.32,-108.38"/>
<polygon fill="black" stroke="black" points="250.01,-110.63 253.17,-100.52 244.4,-106.45 250.01,-110.63"/>
</g>
</g>
</svg>
