<?xml version="1.0" encoding="UTF-8" standalone="no"?>
<!DOCTYPE svg PUBLIC "-//W3C//DTD SVG 1.1//EN"
 "http://www.w3.org/Graphics/SVG/1.1/DTD/svg11.dtd">
<!-- Generated by graphviz version 12.1.0 (20240811.2233)
 -->
<!-- Title: G Pages: 1 -->
<svg width="792pt" height="377pt"
 viewBox="0.00 0.00 791.75 377.15" xmlns="http://www.w3.org/2000/svg" xmlns:xlink="http://www.w3.org/1999/xlink">
<g id="graph0" class="graph" transform="scale(1 1) rotate(0) translate(4 373.15)">
<title>G</title>
<polygon fill="white" stroke="none" points="-4,4 -4,-373.15 787.75,-373.15 787.75,4 -4,4"/>
<!-- exo -->
<g id="node1" class="node">
<title>exo</title>
<path fill="#f5f5f5" stroke="black" d="M465.25,-369.15C465.25,-369.15 313.5,-369.15 313.5,-369.15 307.5,-369.15 301.5,-363.15 301.5,-357.15 301.5,-357.15 301.5,-282.1 301.5,-282.1 301.5,-276.1 307.5,-270.1 313.5,-270.1 313.5,-270.1 465.25,-270.1 465.25,-270.1 471.25,-270.1 477.25,-276.1 477.25,-282.1 477.25,-282.1 477.25,-357.15 477.25,-357.15 477.25,-363.15 471.25,-369.15 465.25,-369.15"/>
<text text-anchor="start" x="377.38" y="-337.6" font-family="Times,serif" font-weight="bold" font-size="17.00">exo</text>
<text text-anchor="start" x="339.5" y="-317.85" font-family="Times,serif" font-size="12.00">ValueType: Multiline</text>
<text text-anchor="start" x="364.62" y="-303.6" font-family="Times,serif" font-size="12.00">Once: true</text>
<text text-anchor="start" x="355.62" y="-289.35" font-family="Times,serif" font-size="12.00">Required: true</text>
</g>
<!-- check -->
<g id="node2" class="node">
<title>check</title>
<path fill="#f5f5f5" stroke="black" d="M469.75,-234.1C469.75,-234.1 309,-234.1 309,-234.1 303,-234.1 297,-228.1 297,-222.1 297,-222.1 297,-147.05 297,-147.05 297,-141.05 303,-135.05 309,-135.05 309,-135.05 469.75,-135.05 469.75,-135.05 475.75,-135.05 481.75,-141.05 481.75,-147.05 481.75,-147.05 481.75,-222.1 481.75,-222.1 481.75,-228.1 475.75,-234.1 469.75,-234.1"/>
<text text-anchor="start" x="368.38" y="-202.55" font-family="Times,serif" font-weight="bold" font-size="17.00">check</text>
<text text-anchor="start" x="335" y="-182.8" font-family="Times,serif" font-size="12.00">ValueType: SingleLine</text>
<text text-anchor="start" x="362.75" y="-168.55" font-family="Times,serif" font-size="12.00">Once: false</text>
<text text-anchor="start" x="355.62" y="-154.3" font-family="Times,serif" font-size="12.00">Required: true</text>
</g>
<!-- exo&#45;&gt;check -->
<g id="edge1" class="edge">
<title>exo&#45;&gt;check</title>
<path fill="none" stroke="black" d="M389.38,-269.84C389.38,-261.97 389.38,-253.75 389.38,-245.66"/>
<polygon fill="black" stroke="black" points="392.88,-245.87 389.38,-235.87 385.88,-245.87 392.88,-245.87"/>
</g>
<!-- args -->
<g id="node3" class="node">
<title>args</title>
<path fill="#f5f5f5" stroke="black" d="M172.75,-99.05C172.75,-99.05 12,-99.05 12,-99.05 6,-99.05 0,-93.05 0,-87.05 0,-87.05 0,-12 0,-12 0,-6 6,0 12,0 12,0 172.75,0 172.75,0 178.75,0 184.75,-6 184.75,-12 184.75,-12 184.75,-87.05 184.75,-87.05 184.75,-93.05 178.75,-99.05 172.75,-99.05"/>
<text text-anchor="start" x="77" y="-67.5" font-family="Times,serif" font-weight="bold" font-size="17.00">args</text>
<text text-anchor="start" x="38" y="-47.75" font-family="Times,serif" font-size="12.00">ValueType: SingleLine</text>
<text text-anchor="start" x="67.62" y="-33.5" font-family="Times,serif" font-size="12.00">Once: true</text>
<text text-anchor="start" x="56.75" y="-19.25" font-family="Times,serif" font-size="12.00">Required: false</text>
</g>
<!-- check&#45;&gt;args -->
<g id="edge2" class="edge">
<title>check&#45;&gt;args</title>
<path fill="none" stroke="black" d="M296.8,-144.57C266.7,-131.66 232.98,-116.98 195.25,-99.87"/>
<polygon fill="black" stroke="black" points="196.97,-96.81 186.42,-95.85 194.08,-103.18 196.97,-96.81"/>
</g>
<!-- see -->
<g id="node4" class="node">
<title>see</title>
<path fill="#f5f5f5" stroke="black" d="M366.25,-99.05C366.25,-99.05 214.5,-99.05 214.5,-99.05 208.5,-99.05 202.5,-93.05 202.5,-87.05 202.5,-87.05 202.5,-12 202.5,-12 202.5,-6 208.5,0 214.5,0 214.5,0 366.25,0 366.25,0 372.25,0 378.25,-6 378.25,-12 378.25,-12 378.25,-87.05 378.25,-87.05 378.25,-93.05 372.25,-99.05 366.25,-99.05"/>
<text text-anchor="start" x="279.5" y="-67.5" font-family="Times,serif" font-weight="bold" font-size="17.00">see</text>
<text text-anchor="start" x="240.5" y="-47.75" font-family="Times,serif" font-size="12.00">ValueType: Multiline</text>
<text text-anchor="start" x="263.75" y="-33.5" font-family="Times,serif" font-size="12.00">Once: false</text>
<text text-anchor="start" x="256.62" y="-19.25" font-family="Times,serif" font-size="12.00">Required: true</text>
</g>
<!-- check&#45;&gt;see -->
<g id="edge3" class="edge">
<title>check&#45;&gt;see</title>
<path fill="none" stroke="black" d="M353.07,-134.79C346.68,-126.2 339.98,-117.19 333.43,-108.38"/>
<polygon fill="black" stroke="black" points="336.35,-106.45 327.58,-100.52 330.74,-110.63 336.35,-106.45"/>
</g>
<!-- type -->
<g id="node5" class="node">
<title>type</title>
<path fill="#f5f5f5" stroke="black" d="M568.75,-99.05C568.75,-99.05 408,-99.05 408,-99.05 402,-99.05 396,-93.05 396,-87.05 396,-87.05 396,-12 396,-12 396,-6 402,0 408,0 408,0 568.75,0 568.75,0 574.75,0 580.75,-6 580.75,-12 580.75,-12 580.75,-87.05 580.75,-87.05 580.75,-93.05 574.75,-99.05 568.75,-99.05"/>
<text text-anchor="start" x="472.62" y="-67.5" font-family="Times,serif" font-weight="bold" font-size="17.00">type</text>
<text text-anchor="start" x="434" y="-47.75" font-family="Times,serif" font-size="12.00">ValueType: SingleLine</text>
<text text-anchor="start" x="461.75" y="-33.5" font-family="Times,serif" font-size="12.00">Once: false</text>
<text text-anchor="start" x="452.75" y="-19.25" font-family="Times,serif" font-size="12.00">Required: false</text>
</g>
<!-- check&#45;&gt;type -->
<g id="edge4" class="edge">
<title>check&#45;&gt;type</title>
<path fill="none" stroke="black" d="M425.68,-134.79C432.07,-126.2 438.77,-117.19 445.32,-108.38"/>
<polygon fill="black" stroke="black" points="448.01,-110.63 451.17,-100.52 442.4,-106.45 448.01,-110.63"/>
</g>
<!-- exit -->
<g id="node6" class="node">
<title>exit</title>
<path fill="#f5f5f5" stroke="black" d="M771.75,-99.05C771.75,-99.05 611,-99.05 611,-99.05 605,-99.05 599,-93.05 599,-87.05 599,-87.05 599,-12 599,-12 599,-6 605,0 611,0 611,0 771.75,0 771.75,0 777.75,0 783.75,-6 783.75,-12 783.75,-12 783.75,-87.05 783.75,-87.05 783.75,-93.05 777.75,-99.05 771.75,-99.05"/>
<text text-anchor="start" x="678.25" y="-67.5" font-family="Times,serif" font-weight="bold" font-size="17.00">exit</text>
<text text-anchor="start" x="637" y="-47.75" font-family="Times,serif" font-size="12.00">ValueType: SingleLine</text>
<text text-anchor="start" x="666.62" y="-33.5" font-family="Times,serif" font-size="12.00">Once: true</text>
<text text-anchor="start" x="655.75" y="-19.25" font-family="Times,serif" font-size="12.00">Required: false</text>
</g>
<!-- check&#45;&gt;exit -->
<g id="edge5" class="edge">
<title>check&#45;&gt;exit</title>
<path fill="none" stroke="black" d="M482.1,-145.39C513.28,-132.31 548.41,-117.31 588.14,-99.56"/>
<polygon fill="black" stroke="black" points="589.54,-102.77 597.24,-95.49 586.68,-96.38 589.54,-102.77"/>
</g>
</g>
</svg>
