<?xml version="1.0" encoding="UTF-8" standalone="no"?>
<!DOCTYPE svg PUBLIC "-//W3C//DTD SVG 1.1//EN"
 "http://www.w3.org/Graphics/SVG/1.1/DTD/svg11.dtd">
<!-- Generated by graphviz version 12.1.0 (20240811.2233)
 -->
<!-- Title: G Pages: 1 -->
<svg width="386pt" height="242pt"
 viewBox="0.00 0.00 386.25 242.10" xmlns="http://www.w3.org/2000/svg" xmlns:xlink="http://www.w3.org/1999/xlink">
<g id="graph0" class="graph" transform="scale(1 1) rotate(0) translate(4 238.1)">
<title>G</title>
<polygon fill="white" stroke="none" points="-4,4 -4,-238.1 382.25,-238.1 382.25,4 -4,4"/>
<!-- skill -->
<g id="node1" class="node">
<title>skill</title>
<path fill="#f5f5f5" stroke="black" d="M262.75,-234.1C262.75,-234.1 111,-234.1 111,-234.1 105,-234.1 99,-228.1 99,-222.1 99,-222.1 99,-147.05 99,-147.05 99,-141.05 105,-135.05 111,-135.05 111,-135.05 262.75,-135.05 262.75,-135.05 268.75,-135.05 274.75,-141.05 274.75,-147.05 274.75,-147.05 274.75,-222.1 274.75,-222.1 274.75,-228.1 268.75,-234.1 262.75,-234.1"/>
<text text-anchor="start" x="171.88" y="-202.55" font-family="Times,serif" font-weight="bold" font-size="17.00">skill</text>
<text text-anchor="start" x="137" y="-182.8" font-family="Times,serif" font-size="12.00">ValueType: Multiline</text>
<text text-anchor="start" x="160.25" y="-168.55" font-family="Times,serif" font-size="12.00">Once: false</text>
<text text-anchor="start" x="153.12" y="-154.3" font-family="Times,serif" font-size="12.00">Required: true</text>
</g>
<!-- subskill -->
<g id="node2" class="node">
<title>subskill</title>
<path fill="#f5f5f5" stroke="black" d="M163.75,-99.05C163.75,-99.05 12,-99.05 12,-99.05 6,-99.05 0,-93.05 0,-87.05 0,-87.05 0,-12 0,-12 0,-6 6,0 12,0 12,0 163.75,0 163.75,0 169.75,0 175.75,-6 175.75,-12 175.75,-12 175.75,-87.05 175.75,-87.05 175.75,-93.05 169.75,-99.05 163.75,-99.05"/>
<text text-anchor="start" x="59.75" y="-67.5" font-family="Times,serif" font-weight="bold" font-size="17.00">subskill</text>
<text text-anchor="start" x="38" y="-47.75" font-family="Times,serif" font-size="12.00">ValueType: Multiline</text>
<text text-anchor="start" x="61.25" y="-33.5" font-family="Times,serif" font-size="12.00">Once: false</text>
<text text-anchor="start" x="52.25" y="-19.25" font-family="Times,serif" font-size="12.00">Required: false</text>
</g>
<!-- skill&#45;&gt;subskill -->
<g id="edge1" class="edge">
<title>skill&#45;&gt;subskill</title>
<path fill="none" stroke="black" d="M150.57,-134.79C144.18,-126.2 137.48,-117.19 130.93,-108.38"/>
<polygon fill="black" stroke="black" points="133.85,-106.45 125.08,-100.52 128.24,-110.63 133.85,-106.45"/>
</g>
<!-- dir -->
<g id="node3" class="node">
<title>dir</title>
<path fill="#f5f5f5" stroke="black" d="M366.25,-99.05C366.25,-99.05 205.5,-99.05 205.5,-99.05 199.5,-99.05 193.5,-93.05 193.5,-87.05 193.5,-87.05 193.5,-12 193.5,-12 193.5,-6 199.5,0 205.5,0 205.5,0 366.25,0 366.25,0 372.25,0 378.25,-6 378.25,-12 378.25,-12 378.25,-87.05 378.25,-87.05 378.25,-93.05 372.25,-99.05 366.25,-99.05"/>
<text text-anchor="start" x="275" y="-67.5" font-family="Times,serif" font-weight="bold" font-size="17.00">dir</text>
<text text-anchor="start" x="231.5" y="-47.75" font-family="Times,serif" font-size="12.00">ValueType: SingleLine</text>
<text text-anchor="start" x="261.12" y="-33.5" font-family="Times,serif" font-size="12.00">Once: true</text>
<text text-anchor="start" x="252.12" y="-19.25" font-family="Times,serif" font-size="12.00">Required: true</text>
</g>
<!-- skill&#45;&gt;dir -->
<g id="edge2" class="edge">
<title>skill&#45;&gt;dir</title>
<path fill="none" stroke="black" d="M223.18,-134.79C229.57,-126.2 236.27,-117.19 242.82,-108.38"/>
<polygon fill="black" stroke="black" points="245.51,-110.63 248.67,-100.52 239.9,-106.45 245.51,-110.63"/>
</g>
</g>
</svg>
