<?xml version="1.0" encoding="UTF-8" standalone="no"?>
<!DOCTYPE svg PUBLIC "-//W3C//DTD SVG 1.1//EN"
 "http://www.w3.org/Graphics/SVG/1.1/DTD/svg11.dtd">
<!-- Generated by graphviz version 12.1.0 (20240811.2233)
 -->
<!-- Title: G Pages: 1 -->
<svg width="751pt" height="608pt"
 viewBox="0.00 0.00 751.25 607.80" xmlns="http://www.w3.org/2000/svg" xmlns:xlink="http://www.w3.org/1999/xlink">
<g id="graph0" class="graph" transform="scale(1 1) rotate(0) translate(4 603.8)">
<title>G</title>
<polygon fill="white" stroke="none" points="-4,4 -4,-603.8 747.25,-603.8 747.25,4 -4,4"/>
<!-- 0 -->
<g id="node1" class="node">
<title>0</title>
<path fill="#f5f5f5" stroke="black" d="M203.25,-360.8C203.25,-360.8 12,-360.8 12,-360.8 6,-360.8 0,-354.8 0,-348.8 0,-348.8 0,-256 0,-256 0,-250 6,-244 12,-244 12,-244 203.25,-244 203.25,-244 209.25,-244 215.25,-250 215.25,-256 215.25,-256 215.25,-348.8 215.25,-348.8 215.25,-354.8 209.25,-360.8 203.25,-360.8"/>
<text text-anchor="start" x="97.88" y="-334.1" font-family="Times,serif" font-weight="bold" font-size="14.00">exo</text>
<text text-anchor="start" x="64.88" y="-322" font-family="Times,serif" font-size="12.00">text: &quot;Salue&#45;moi\n</text>
<text text-anchor="start" x="45.38" y="-310" font-family="Times,serif" font-size="12.00">Un petit programme qui te</text>
<text text-anchor="start" x="36" y="-298" font-family="Times,serif" font-size="12.00">salue avec ton nom complet.\n</text>
<text text-anchor="start" x="105" y="-286" font-family="Times,serif" font-size="12.00">&quot;</text>
<text text-anchor="start" x="87.38" y="-274" font-family="Times,serif" font-size="12.00">key: exo</text>
<text text-anchor="start" x="67.12" y="-260.1" font-family="Times,serif" font-size="12.00">range: 0:0&#45;2:0</text>
<text text-anchor="start" x="133.12" y="-260.1" font-family="Times,serif" font-size="14.00"> &#160;&#160;&#160;</text>
</g>
<!-- 3 -->
<g id="node2" class="node">
<title>3</title>
<path fill="#f5f5f5" stroke="black" d="M459,-348.8C459,-348.8 263.25,-348.8 263.25,-348.8 257.25,-348.8 251.25,-342.8 251.25,-336.8 251.25,-336.8 251.25,-268 251.25,-268 251.25,-262 257.25,-256 263.25,-256 263.25,-256 459,-256 459,-256 465,-256 471,-262 471,-268 471,-268 471,-336.8 471,-336.8 471,-342.8 465,-348.8 459,-348.8"/>
<text text-anchor="start" x="344.62" y="-322.1" font-family="Times,serif" font-weight="bold" font-size="14.00">check</text>
<text text-anchor="start" x="287.25" y="-310" font-family="Times,serif" font-size="12.00">text: &quot;Il est possible d&#39;être salué</text>
<text text-anchor="start" x="305.62" y="-298" font-family="Times,serif" font-size="12.00">avec son nom complet&quot;</text>
<text text-anchor="start" x="335.62" y="-286" font-family="Times,serif" font-size="12.00">key: check</text>
<text text-anchor="start" x="317.62" y="-272.1" font-family="Times,serif" font-size="12.00">range: 3:0&#45;3:57</text>
<text text-anchor="start" x="389.62" y="-272.1" font-family="Times,serif" font-size="14.00"> &#160;&#160;&#160;</text>
</g>
<!-- 0&#45;&gt;3 -->
<g id="edge1" class="edge">
<title>0&#45;&gt;3</title>
<path fill="none" stroke="black" d="M215.65,-302.4C223.55,-302.4 231.56,-302.4 239.54,-302.4"/>
<polygon fill="black" stroke="black" points="239.28,-305.9 249.28,-302.4 239.28,-298.9 239.28,-305.9"/>
</g>
<!-- 4 -->
<g id="node3" class="node">
<title>4</title>
<path fill="#f5f5f5" stroke="black" d="M718.12,-599.8C718.12,-599.8 532.12,-599.8 532.12,-599.8 526.12,-599.8 520.12,-593.8 520.12,-587.8 520.12,-587.8 520.12,-531 520.12,-531 520.12,-525 526.12,-519 532.12,-519 532.12,-519 718.12,-519 718.12,-519 724.12,-519 730.12,-525 730.12,-531 730.12,-531 730.12,-587.8 730.12,-587.8 730.12,-593.8 724.12,-599.8 718.12,-599.8"/>
<text text-anchor="start" x="616.5" y="-573.1" font-family="Times,serif" font-weight="bold" font-size="14.00">see</text>
<text text-anchor="start" x="556.12" y="-561" font-family="Times,serif" font-size="12.00">text: &quot;Quel est ton prénom ?&quot;</text>
<text text-anchor="start" x="606" y="-549" font-family="Times,serif" font-size="12.00">key: see</text>
<text text-anchor="start" x="581.62" y="-535.1" font-family="Times,serif" font-size="12.00">range: 4:0&#45;4:26</text>
<text text-anchor="start" x="653.62" y="-535.1" font-family="Times,serif" font-size="14.00"> &#160;&#160;&#160;</text>
</g>
<!-- 3&#45;&gt;4 -->
<g id="edge2" class="edge">
<title>3&#45;&gt;4</title>
<path fill="none" stroke="black" d="M384.98,-349.24C409.54,-395.37 452.51,-465.17 507,-509.4 508.13,-510.32 509.29,-511.23 510.46,-512.12"/>
<polygon fill="black" stroke="black" points="508.34,-514.91 518.53,-517.82 512.38,-509.19 508.34,-514.91"/>
</g>
<!-- 5 -->
<g id="node4" class="node">
<title>5</title>
<path fill="#f5f5f5" stroke="black" d="M689.62,-500.8C689.62,-500.8 560.62,-500.8 560.62,-500.8 554.62,-500.8 548.62,-494.8 548.62,-488.8 548.62,-488.8 548.62,-432 548.62,-432 548.62,-426 554.62,-420 560.62,-420 560.62,-420 689.62,-420 689.62,-420 695.62,-420 701.62,-426 701.62,-432 701.62,-432 701.62,-488.8 701.62,-488.8 701.62,-494.8 695.62,-500.8 689.62,-500.8"/>
<text text-anchor="start" x="612.75" y="-474.1" font-family="Times,serif" font-weight="bold" font-size="14.00">type</text>
<text text-anchor="start" x="597" y="-462" font-family="Times,serif" font-size="12.00">text: &quot;John&quot;</text>
<text text-anchor="start" x="603.38" y="-450" font-family="Times,serif" font-size="12.00">key: type</text>
<text text-anchor="start" x="584.62" y="-436.1" font-family="Times,serif" font-size="12.00">range: 5:0&#45;5:9</text>
<text text-anchor="start" x="650.62" y="-436.1" font-family="Times,serif" font-size="14.00"> &#160;&#160;&#160;</text>
</g>
<!-- 3&#45;&gt;5 -->
<g id="edge3" class="edge">
<title>3&#45;&gt;5</title>
<path fill="none" stroke="black" d="M418.13,-349.03C444.16,-369.4 476.14,-392.64 507,-410.4 516.8,-416.04 527.37,-421.42 537.99,-426.42"/>
<polygon fill="black" stroke="black" points="536.25,-429.48 546.8,-430.47 539.17,-423.11 536.25,-429.48"/>
</g>
<!-- 6 -->
<g id="node5" class="node">
<title>6</title>
<path fill="#f5f5f5" stroke="black" d="M718.12,-401.8C718.12,-401.8 532.12,-401.8 532.12,-401.8 526.12,-401.8 520.12,-395.8 520.12,-389.8 520.12,-389.8 520.12,-321 520.12,-321 520.12,-315 526.12,-309 532.12,-309 532.12,-309 718.12,-309 718.12,-309 724.12,-309 730.12,-315 730.12,-321 730.12,-321 730.12,-389.8 730.12,-389.8 730.12,-395.8 724.12,-401.8 718.12,-401.8"/>
<text text-anchor="start" x="616.5" y="-375.1" font-family="Times,serif" font-weight="bold" font-size="14.00">see</text>
<text text-anchor="start" x="556.12" y="-363" font-family="Times,serif" font-size="12.00">text: &quot;Salut John, quel est ton</text>
<text text-anchor="start" x="583.12" y="-351" font-family="Times,serif" font-size="12.00">nom de famille ?&quot;</text>
<text text-anchor="start" x="606" y="-339" font-family="Times,serif" font-size="12.00">key: see</text>
<text text-anchor="start" x="581.62" y="-325.1" font-family="Times,serif" font-size="12.00">range: 6:0&#45;6:45</text>
<text text-anchor="start" x="653.62" y="-325.1" font-family="Times,serif" font-size="14.00"> &#160;&#160;&#160;</text>
</g>
<!-- 3&#45;&gt;6 -->
<g id="edge4" class="edge">
<title>3&#45;&gt;6</title>
<path fill="none" stroke="black" d="M471.34,-324.49C483.59,-326.97 496.11,-329.5 508.44,-332"/>
<polygon fill="black" stroke="black" points="507.73,-335.42 518.22,-333.98 509.12,-328.56 507.73,-335.42"/>
</g>
<!-- 7 -->
<g id="node6" class="node">
<title>7</title>
<path fill="#f5f5f5" stroke="black" d="M689.62,-290.8C689.62,-290.8 560.62,-290.8 560.62,-290.8 554.62,-290.8 548.62,-284.8 548.62,-278.8 548.62,-278.8 548.62,-222 548.62,-222 548.62,-216 554.62,-210 560.62,-210 560.62,-210 689.62,-210 689.62,-210 695.62,-210 701.62,-216 701.62,-222 701.62,-222 701.62,-278.8 701.62,-278.8 701.62,-284.8 695.62,-290.8 689.62,-290.8"/>
<text text-anchor="start" x="612.75" y="-264.1" font-family="Times,serif" font-weight="bold" font-size="14.00">type</text>
<text text-anchor="start" x="598.12" y="-252" font-family="Times,serif" font-size="12.00">text: &quot;Doe&quot;</text>
<text text-anchor="start" x="603.38" y="-240" font-family="Times,serif" font-size="12.00">key: type</text>
<text text-anchor="start" x="584.62" y="-226.1" font-family="Times,serif" font-size="12.00">range: 7:0&#45;7:8</text>
<text text-anchor="start" x="650.62" y="-226.1" font-family="Times,serif" font-size="14.00"> &#160;&#160;&#160;</text>
</g>
<!-- 3&#45;&gt;7 -->
<g id="edge5" class="edge">
<title>3&#45;&gt;7</title>
<path fill="none" stroke="black" d="M471.34,-280.72C493.24,-276.38 515.97,-271.87 537,-267.69"/>
<polygon fill="black" stroke="black" points="537.55,-271.15 546.68,-265.77 536.19,-264.29 537.55,-271.15"/>
</g>
<!-- 8 -->
<g id="node7" class="node">
<title>8</title>
<path fill="#f5f5f5" stroke="black" d="M731.25,-191.8C731.25,-191.8 519,-191.8 519,-191.8 513,-191.8 507,-185.8 507,-179.8 507,-179.8 507,-111 507,-111 507,-105 513,-99 519,-99 519,-99 731.25,-99 731.25,-99 737.25,-99 743.25,-105 743.25,-111 743.25,-111 743.25,-179.8 743.25,-179.8 743.25,-185.8 737.25,-191.8 731.25,-191.8"/>
<text text-anchor="start" x="616.5" y="-165.1" font-family="Times,serif" font-weight="bold" font-size="14.00">see</text>
<text text-anchor="start" x="543" y="-153" font-family="Times,serif" font-size="12.00">text: &quot;Passe une belle journée John</text>
<text text-anchor="start" x="609" y="-141" font-family="Times,serif" font-size="12.00">Doe !&quot;</text>
<text text-anchor="start" x="606" y="-129" font-family="Times,serif" font-size="12.00">key: see</text>
<text text-anchor="start" x="581.62" y="-115.1" font-family="Times,serif" font-size="12.00">range: 8:0&#45;8:39</text>
<text text-anchor="start" x="653.62" y="-115.1" font-family="Times,serif" font-size="14.00"> &#160;&#160;&#160;</text>
</g>
<!-- 3&#45;&gt;8 -->
<g id="edge6" class="edge">
<title>3&#45;&gt;8</title>
<path fill="none" stroke="black" d="M424.48,-255.6C449.53,-237.69 479.05,-217.68 507,-201.4 509.18,-200.13 511.38,-198.87 513.62,-197.61"/>
<polygon fill="black" stroke="black" points="515.16,-200.76 522.24,-192.87 511.79,-194.62 515.16,-200.76"/>
</g>
<!-- 9 -->
<g id="node8" class="node">
<title>9</title>
<path fill="#f5f5f5" stroke="black" d="M689.62,-80.8C689.62,-80.8 560.62,-80.8 560.62,-80.8 554.62,-80.8 548.62,-74.8 548.62,-68.8 548.62,-68.8 548.62,-12 548.62,-12 548.62,-6 554.62,0 560.62,0 560.62,0 689.62,0 689.62,0 695.62,0 701.62,-6 701.62,-12 701.62,-12 701.62,-68.8 701.62,-68.8 701.62,-74.8 695.62,-80.8 689.62,-80.8"/>
<text text-anchor="start" x="614.62" y="-54.1" font-family="Times,serif" font-weight="bold" font-size="14.00">exit</text>
<text text-anchor="start" x="605.25" y="-42" font-family="Times,serif" font-size="12.00">text: &quot;0&quot;</text>
<text text-anchor="start" x="604.88" y="-30" font-family="Times,serif" font-size="12.00">key: exit</text>
<text text-anchor="start" x="584.62" y="-16.1" font-family="Times,serif" font-size="12.00">range: 9:0&#45;9:6</text>
<text text-anchor="start" x="650.62" y="-16.1" font-family="Times,serif" font-size="14.00"> &#160;&#160;&#160;</text>
</g>
<!-- 3&#45;&gt;9 -->
<g id="edge7" class="edge">
<title>3&#45;&gt;9</title>
<path fill="none" stroke="black" d="M384.03,-255.74C408.26,-208.5 451.36,-136.08 507,-90.4 516.35,-82.72 527.06,-76.04 538.12,-70.28"/>
<polygon fill="black" stroke="black" points="539.56,-73.47 546.99,-65.92 536.47,-67.19 539.56,-73.47"/>
</g>
</g>
</svg>
