<?xml version="1.0" encoding="UTF-8" standalone="no"?>
<!DOCTYPE svg PUBLIC "-//W3C//DTD SVG 1.1//EN"
 "http://www.w3.org/Graphics/SVG/1.1/DTD/svg11.dtd">
<!-- Generated by graphviz version 12.1.0 (20240811.2233)
 -->
<!-- Title: G Pages: 1 -->
<svg width="794pt" height="536pt"
 viewBox="0.00 0.00 793.70 535.80" xmlns="http://www.w3.org/2000/svg" xmlns:xlink="http://www.w3.org/1999/xlink">
<g id="graph0" class="graph" transform="scale(1 1) rotate(0) translate(4 531.8)">
<title>G</title>
<polygon fill="white" stroke="none" points="-4,4 -4,-531.8 789.7,-531.8 789.7,4 -4,4"/>
<!-- 0 -->
<g id="node1" class="node">
<title>0</title>
<path fill="#f5f5f5" stroke="black" d="M216.9,-318.8C216.9,-318.8 12,-318.8 12,-318.8 6,-318.8 0,-312.8 0,-306.8 0,-306.8 0,-226 0,-226 0,-220 6,-214 12,-214 12,-214 216.9,-214 216.9,-214 222.9,-214 228.9,-220 228.9,-226 228.9,-226 228.9,-306.8 228.9,-306.8 228.9,-312.8 222.9,-318.8 216.9,-318.8"/>
<text text-anchor="start" x="104.7" y="-292.1" font-family="Times,serif" font-weight="bold" font-size="14.00">exo</text>
<text text-anchor="start" x="72.08" y="-280" font-family="Times,serif" font-size="12.00">text: &quot;Salue&#45;moi&quot;,</text>
<text text-anchor="start" x="49.58" y="-268" font-family="Times,serif" font-size="12.00">&quot;Un petit programme qui te</text>
<text text-anchor="start" x="43.2" y="-256" font-family="Times,serif" font-size="12.00">salue avec ton nom complet.&quot;,</text>
<text text-anchor="start" x="109.2" y="-244" font-family="Times,serif" font-size="12.00">&quot;&quot;</text>
<text text-anchor="start" x="73.95" y="-230.1" font-family="Times,serif" font-size="12.00">range: 0:0&#45;2:0</text>
<text text-anchor="start" x="139.95" y="-230.1" font-family="Times,serif" font-size="14.00"> &#160;&#160;&#160;</text>
</g>
<!-- 3 -->
<g id="node2" class="node">
<title>3</title>
<path fill="#f5f5f5" stroke="black" d="M487.05,-306.8C487.05,-306.8 276.9,-306.8 276.9,-306.8 270.9,-306.8 264.9,-300.8 264.9,-294.8 264.9,-294.8 264.9,-238 264.9,-238 264.9,-232 270.9,-226 276.9,-226 276.9,-226 487.05,-226 487.05,-226 493.05,-226 499.05,-232 499.05,-238 499.05,-238 499.05,-294.8 499.05,-294.8 499.05,-300.8 493.05,-306.8 487.05,-306.8"/>
<text text-anchor="start" x="365.48" y="-280.1" font-family="Times,serif" font-weight="bold" font-size="14.00">check</text>
<text text-anchor="start" x="308.1" y="-268" font-family="Times,serif" font-size="12.00">text: &quot;Il est possible d&#39;être salué</text>
<text text-anchor="start" x="326.48" y="-256" font-family="Times,serif" font-size="12.00">avec son nom complet&quot;</text>
<text text-anchor="start" x="338.48" y="-242.1" font-family="Times,serif" font-size="12.00">range: 3:0&#45;3:57</text>
<text text-anchor="start" x="410.48" y="-242.1" font-family="Times,serif" font-size="14.00"> &#160;&#160;&#160;</text>
</g>
<!-- 0&#45;&gt;3 -->
<g id="edge1" class="edge">
<title>0&#45;&gt;3</title>
<path fill="none" stroke="black" d="M229.21,-266.4C237.15,-266.4 245.19,-266.4 253.2,-266.4"/>
<polygon fill="black" stroke="black" points="252.98,-269.9 262.98,-266.4 252.98,-262.9 252.98,-269.9"/>
</g>
<!-- 4 -->
<g id="node3" class="node">
<title>4</title>
<path fill="#f5f5f5" stroke="black" d="M760.58,-527.8C760.58,-527.8 560.17,-527.8 560.17,-527.8 554.17,-527.8 548.17,-521.8 548.17,-515.8 548.17,-515.8 548.17,-471 548.17,-471 548.17,-465 554.17,-459 560.17,-459 560.17,-459 760.58,-459 760.58,-459 766.58,-459 772.58,-465 772.58,-471 772.58,-471 772.58,-515.8 772.58,-515.8 772.58,-521.8 766.58,-527.8 760.58,-527.8"/>
<text text-anchor="start" x="651.75" y="-501.1" font-family="Times,serif" font-weight="bold" font-size="14.00">see</text>
<text text-anchor="start" x="591.38" y="-489" font-family="Times,serif" font-size="12.00">text: &quot;Quel est ton prénom ?&quot;</text>
<text text-anchor="start" x="616.88" y="-475.1" font-family="Times,serif" font-size="12.00">range: 4:0&#45;4:26</text>
<text text-anchor="start" x="688.88" y="-475.1" font-family="Times,serif" font-size="14.00"> &#160;&#160;&#160;</text>
</g>
<!-- 3&#45;&gt;4 -->
<g id="edge2" class="edge">
<title>3&#45;&gt;4</title>
<path fill="none" stroke="black" d="M407.47,-307.2C434.12,-348.4 480.32,-411.25 535.05,-449.4 536.66,-450.53 538.31,-451.62 539.98,-452.7"/>
<polygon fill="black" stroke="black" points="538.16,-455.69 548.54,-457.8 541.74,-449.67 538.16,-455.69"/>
</g>
<!-- 5 -->
<g id="node4" class="node">
<title>5</title>
<path fill="#f5f5f5" stroke="black" d="M732.08,-440.8C732.08,-440.8 588.67,-440.8 588.67,-440.8 582.67,-440.8 576.67,-434.8 576.67,-428.8 576.67,-428.8 576.67,-384 576.67,-384 576.67,-378 582.67,-372 588.67,-372 588.67,-372 732.08,-372 732.08,-372 738.08,-372 744.08,-378 744.08,-384 744.08,-384 744.08,-428.8 744.08,-428.8 744.08,-434.8 738.08,-440.8 732.08,-440.8"/>
<text text-anchor="start" x="648" y="-414.1" font-family="Times,serif" font-weight="bold" font-size="14.00">type</text>
<text text-anchor="start" x="632.25" y="-402" font-family="Times,serif" font-size="12.00">text: &quot;John&quot;</text>
<text text-anchor="start" x="619.88" y="-388.1" font-family="Times,serif" font-size="12.00">range: 5:0&#45;5:9</text>
<text text-anchor="start" x="685.88" y="-388.1" font-family="Times,serif" font-size="14.00"> &#160;&#160;&#160;</text>
</g>
<!-- 3&#45;&gt;5 -->
<g id="edge3" class="edge">
<title>3&#45;&gt;5</title>
<path fill="none" stroke="black" d="M440.8,-307.19C468.48,-325.58 502.6,-346.66 535.05,-362.4 544.86,-367.16 555.32,-371.67 565.86,-375.86"/>
<polygon fill="black" stroke="black" points="564.39,-379.05 574.98,-379.4 566.92,-372.52 564.39,-379.05"/>
</g>
<!-- 6 -->
<g id="node5" class="node">
<title>6</title>
<path fill="#f5f5f5" stroke="black" d="M760.58,-353.8C760.58,-353.8 560.17,-353.8 560.17,-353.8 554.17,-353.8 548.17,-347.8 548.17,-341.8 548.17,-341.8 548.17,-285 548.17,-285 548.17,-279 554.17,-273 560.17,-273 560.17,-273 760.58,-273 760.58,-273 766.58,-273 772.58,-279 772.58,-285 772.58,-285 772.58,-341.8 772.58,-341.8 772.58,-347.8 766.58,-353.8 760.58,-353.8"/>
<text text-anchor="start" x="651.75" y="-327.1" font-family="Times,serif" font-weight="bold" font-size="14.00">see</text>
<text text-anchor="start" x="591.38" y="-315" font-family="Times,serif" font-size="12.00">text: &quot;Salut John, quel est ton</text>
<text text-anchor="start" x="618.38" y="-303" font-family="Times,serif" font-size="12.00">nom de famille ?&quot;</text>
<text text-anchor="start" x="616.88" y="-289.1" font-family="Times,serif" font-size="12.00">range: 6:0&#45;6:45</text>
<text text-anchor="start" x="688.88" y="-289.1" font-family="Times,serif" font-size="14.00"> &#160;&#160;&#160;</text>
</g>
<!-- 3&#45;&gt;6 -->
<g id="edge4" class="edge">
<title>3&#45;&gt;6</title>
<path fill="none" stroke="black" d="M499.39,-286.2C511.7,-288.29 524.25,-290.42 536.63,-292.53"/>
<polygon fill="black" stroke="black" points="536.01,-295.97 546.45,-294.2 537.18,-289.07 536.01,-295.97"/>
</g>
<!-- 7 -->
<g id="node6" class="node">
<title>7</title>
<path fill="#f5f5f5" stroke="black" d="M732.08,-254.8C732.08,-254.8 588.67,-254.8 588.67,-254.8 582.67,-254.8 576.67,-248.8 576.67,-242.8 576.67,-242.8 576.67,-198 576.67,-198 576.67,-192 582.67,-186 588.67,-186 588.67,-186 732.08,-186 732.08,-186 738.08,-186 744.08,-192 744.08,-198 744.08,-198 744.08,-242.8 744.08,-242.8 744.08,-248.8 738.08,-254.8 732.08,-254.8"/>
<text text-anchor="start" x="648" y="-228.1" font-family="Times,serif" font-weight="bold" font-size="14.00">type</text>
<text text-anchor="start" x="633.38" y="-216" font-family="Times,serif" font-size="12.00">text: &quot;Doe&quot;</text>
<text text-anchor="start" x="619.88" y="-202.1" font-family="Times,serif" font-size="12.00">range: 7:0&#45;7:8</text>
<text text-anchor="start" x="685.88" y="-202.1" font-family="Times,serif" font-size="14.00"> &#160;&#160;&#160;</text>
</g>
<!-- 3&#45;&gt;7 -->
<g id="edge5" class="edge">
<title>3&#45;&gt;7</title>
<path fill="none" stroke="black" d="M499.39,-247.03C521.28,-243.38 543.91,-239.62 565.02,-236.1"/>
<polygon fill="black" stroke="black" points="565.46,-239.58 574.75,-234.48 564.31,-232.67 565.46,-239.58"/>
</g>
<!-- 8 -->
<g id="node7" class="node">
<title>8</title>
<path fill="#f5f5f5" stroke="black" d="M773.7,-167.8C773.7,-167.8 547.05,-167.8 547.05,-167.8 541.05,-167.8 535.05,-161.8 535.05,-155.8 535.05,-155.8 535.05,-99 535.05,-99 535.05,-93 541.05,-87 547.05,-87 547.05,-87 773.7,-87 773.7,-87 779.7,-87 785.7,-93 785.7,-99 785.7,-99 785.7,-155.8 785.7,-155.8 785.7,-161.8 779.7,-167.8 773.7,-167.8"/>
<text text-anchor="start" x="651.75" y="-141.1" font-family="Times,serif" font-weight="bold" font-size="14.00">see</text>
<text text-anchor="start" x="578.25" y="-129" font-family="Times,serif" font-size="12.00">text: &quot;Passe une belle journée John</text>
<text text-anchor="start" x="644.25" y="-117" font-family="Times,serif" font-size="12.00">Doe !&quot;</text>
<text text-anchor="start" x="616.88" y="-103.1" font-family="Times,serif" font-size="12.00">range: 8:0&#45;8:39</text>
<text text-anchor="start" x="688.88" y="-103.1" font-family="Times,serif" font-size="14.00"> &#160;&#160;&#160;</text>
</g>
<!-- 3&#45;&gt;8 -->
<g id="edge6" class="edge">
<title>3&#45;&gt;8</title>
<path fill="none" stroke="black" d="M447.69,-225.69C474.27,-209.72 505.66,-191.81 535.05,-177.4 538.14,-175.89 541.28,-174.38 544.46,-172.89"/>
<polygon fill="black" stroke="black" points="545.75,-176.15 553.38,-168.8 542.83,-169.79 545.75,-176.15"/>
</g>
<!-- 9 -->
<g id="node8" class="node">
<title>9</title>
<path fill="#f5f5f5" stroke="black" d="M732.08,-68.8C732.08,-68.8 588.67,-68.8 588.67,-68.8 582.67,-68.8 576.67,-62.8 576.67,-56.8 576.67,-56.8 576.67,-12 576.67,-12 576.67,-6 582.67,0 588.67,0 588.67,0 732.08,0 732.08,0 738.08,0 744.08,-6 744.08,-12 744.08,-12 744.08,-56.8 744.08,-56.8 744.08,-62.8 738.08,-68.8 732.08,-68.8"/>
<text text-anchor="start" x="649.88" y="-42.1" font-family="Times,serif" font-weight="bold" font-size="14.00">exit</text>
<text text-anchor="start" x="640.5" y="-30" font-family="Times,serif" font-size="12.00">text: &quot;0&quot;</text>
<text text-anchor="start" x="619.88" y="-16.1" font-family="Times,serif" font-size="12.00">range: 9:0&#45;9:6</text>
<text text-anchor="start" x="685.88" y="-16.1" font-family="Times,serif" font-size="14.00"> &#160;&#160;&#160;</text>
</g>
<!-- 3&#45;&gt;9 -->
<g id="edge7" class="edge">
<title>3&#45;&gt;9</title>
<path fill="none" stroke="black" d="M406.48,-225.63C432.8,-183.32 479.18,-117.9 535.05,-78.4 544.47,-71.74 555,-66 565.84,-61.07"/>
<polygon fill="black" stroke="black" points="567.09,-64.34 574.91,-57.18 564.33,-57.9 567.09,-64.34"/>
</g>
</g>
</svg>
