<svg xmlns="http://www.w3.org/2000/svg" xmlns:xlink="http://www.w3.org/1999/xlink" contentStyleType="text/css" height="843px" preserveAspectRatio="none" style="width:1043px;height:843px;background:#FFFFFF;" version="1.1" viewBox="0 0 1043 843" width="1043px" zoomAndPan="magnify"><defs/><g><line style="stroke:#181818;stroke-width:0.5;stroke-dasharray:5.0,5.0;" x1="96" x2="96" y1="38.625" y2="836.2344"/><line style="stroke:#181818;stroke-width:0.5;stroke-dasharray:5.0,5.0;" x1="594.627" x2="594.627" y1="38.625" y2="836.2344"/><line style="stroke:#181818;stroke-width:0.5;stroke-dasharray:5.0,5.0;" x1="946.2603" x2="946.2603" y1="38.625" y2="836.2344"/><rect fill="#E2E2F0" height="32.625" rx="2.5" ry="2.5" style="stroke:#181818;stroke-width:0.5;" width="182.0859" x="5" y="5"/><text fill="#000000" font-family="sans-serif" font-size="16" lengthAdjust="spacing" textLength="168.0859" x="12" y="26.8516">Client Follower - Julia</text><rect fill="#E2E2F0" height="32.625" rx="2.5" ry="2.5" style="stroke:#181818;stroke-width:0.5;" width="205.1641" x="492.627" y="5"/><text fill="#000000" font-family="sans-serif" font-size="16" lengthAdjust="spacing" textLength="191.1641" x="499.627" y="26.8516">Serveur live.plx.rs:9120</text><rect fill="#E2E2F0" height="32.625" rx="2.5" ry="2.5" style="stroke:#181818;stroke-width:0.5;" width="169.0781" x="862.2603" y="5"/><text fill="#000000" font-family="sans-serif" font-size="16" lengthAdjust="spacing" textLength="155.0781" x="869.2603" y="26.8516">Client Leader - Jack</text><line style="stroke:#181818;stroke-width:1.0;" x1="96.043" x2="138.043" y1="89.5469" y2="89.5469"/><line style="stroke:#181818;stroke-width:1.0;" x1="138.043" x2="138.043" y1="89.5469" y2="102.5469"/><line style="stroke:#181818;stroke-width:1.0;" x1="97.043" x2="138.043" y1="102.5469" y2="102.5469"/><polygon fill="#181818" points="107.043,98.5469,97.043,102.5469,107.043,106.5469,103.043,102.5469" style="stroke:#181818;stroke-width:1.0;"/><text fill="#000000" font-family="sans-serif" font-size="15" lengthAdjust="spacing" textLength="151.7871" x="103.043" y="66.5483">G&#233;n&#233;rer et persister</text><text fill="#000000" font-family="sans-serif" font-size="15" lengthAdjust="spacing" textLength="416.1914" x="103.043" y="84.0093">client_id =&gt; e9fc3566-32e3-4b98-99b5-35be520d46cb</text><line style="stroke:#181818;stroke-width:1.0;" x1="904.7993" x2="945.7993" y1="151.4688" y2="151.4688"/><line style="stroke:#181818;stroke-width:1.0;" x1="904.7993" x2="904.7993" y1="151.4688" y2="164.4688"/><line style="stroke:#181818;stroke-width:1.0;" x1="904.7993" x2="944.7993" y1="164.4688" y2="164.4688"/><polygon fill="#181818" points="934.7993,160.4688,944.7993,164.4688,934.7993,168.4688,938.7993,164.4688" style="stroke:#181818;stroke-width:1.0;"/><text fill="#000000" font-family="sans-serif" font-size="15" lengthAdjust="spacing" textLength="248.8477" x="635.0972" y="128.4702">G&#233;n&#233;rer et persister client_id =&gt;</text><text fill="#000000" font-family="sans-serif" font-size="15" lengthAdjust="spacing" textLength="304.7021" x="635.0972" y="145.9312">ae9b8213-fcf6-40c8-8f35-b6d14f0ace75</text><polygon fill="#181818" points="583.209,226.8516,593.209,230.8516,583.209,234.8516,587.209,230.8516" style="stroke:#181818;stroke-width:1.0;"/><line style="stroke:#181818;stroke-width:1.0;" x1="96.043" x2="589.209" y1="230.8516" y2="230.8516"/><text fill="#000000" font-family="sans-serif" font-size="15" lengthAdjust="spacing" textLength="385.4883" x="103.043" y="190.3921">Ouvrir la connexion (TCP + WebSocket handshake)</text><text fill="#000000" font-family="sans-serif" font-size="15" lengthAdjust="spacing" textLength="367.5879" x="103.043" y="207.853">ws://live.plx.rs:9120?live_protocol_version=0.1.0</text><text fill="#000000" font-family="sans-serif" font-size="15" lengthAdjust="spacing" textLength="439.7241" x="103.043" y="225.314">&amp;live_client_id=e9fc3566-32e3-4b98-99b5-35be520d46cb</text><polygon fill="#181818" points="583.209,275.7734,593.209,279.7734,583.209,283.7734,587.209,279.7734" style="stroke:#181818;stroke-width:1.0;"/><line style="stroke:#181818;stroke-width:1.0;" x1="96.043" x2="589.209" y1="279.7734" y2="279.7734"/><text fill="#000000" font-family="sans-serif" font-size="15" lengthAdjust="spacing" textLength="143.7891" x="103.043" y="256.7749">Action GetSessions</text><text fill="#000000" font-family="sans-serif" font-size="15" lengthAdjust="spacing" textLength="404.2603" x="103.043" y="274.2358">group_id=https://github.com/samuelroland/plx-demo/</text><polygon fill="#181818" points="107.043,307.2344,97.043,311.2344,107.043,315.2344,103.043,311.2344" style="stroke:#181818;stroke-width:1.0;"/><line style="stroke:#181818;stroke-width:1.0;" x1="101.043" x2="594.209" y1="311.2344" y2="311.2344"/><text fill="#000000" font-family="sans-serif" font-size="15" lengthAdjust="spacing" textLength="165.0146" x="113.043" y="305.6968">Event SessionsList [  ]</text><polygon fill="#181818" points="606.209,338.6953,596.209,342.6953,606.209,346.6953,602.209,342.6953" style="stroke:#181818;stroke-width:1.0;"/><line style="stroke:#181818;stroke-width:1.0;" x1="600.209" x2="945.7993" y1="342.6953" y2="342.6953"/><text fill="#000000" font-family="sans-serif" font-size="15" lengthAdjust="spacing" textLength="177.7588" x="612.209" y="337.1577">Ouvrir la connexion (...)</text><polygon fill="#181818" points="606.209,370.1563,596.209,374.1563,606.209,378.1563,602.209,374.1563" style="stroke:#181818;stroke-width:1.0;"/><line style="stroke:#181818;stroke-width:1.0;" x1="600.209" x2="945.7993" y1="374.1563" y2="374.1563"/><text fill="#000000" font-family="sans-serif" font-size="15" lengthAdjust="spacing" textLength="327.5903" x="612.209" y="368.6187">Action StartSession "PRG2 Jack" + group_id</text><polygon fill="#181818" points="934.7993,401.6172,944.7993,405.6172,934.7993,409.6172,938.7993,405.6172" style="stroke:#181818;stroke-width:1.0;"/><line style="stroke:#181818;stroke-width:1.0;" x1="595.209" x2="940.7993" y1="405.6172" y2="405.6172"/><text fill="#000000" font-family="sans-serif" font-size="15" lengthAdjust="spacing" textLength="260.2002" x="602.209" y="400.0796">Event SessionJoined client_num=0</text><polygon fill="#181818" points="583.209,433.0781,593.209,437.0781,583.209,441.0781,587.209,437.0781" style="stroke:#181818;stroke-width:1.0;"/><line style="stroke:#181818;stroke-width:1.0;" x1="96.043" x2="589.209" y1="437.0781" y2="437.0781"/><text fill="#000000" font-family="sans-serif" font-size="15" lengthAdjust="spacing" textLength="475.166" x="103.043" y="431.5405">Action GetSessions https://github.com/samuelroland/plx-demo/</text><polygon fill="#181818" points="107.043,464.5391,97.043,468.5391,107.043,472.5391,103.043,468.5391" style="stroke:#181818;stroke-width:1.0;"/><line style="stroke:#181818;stroke-width:1.0;" x1="101.043" x2="594.209" y1="468.5391" y2="468.5391"/><text fill="#000000" font-family="sans-serif" font-size="15" lengthAdjust="spacing" textLength="254.7656" x="113.043" y="463.0015">Event SessionsList [ "PRG2 Jack" ]</text><polygon fill="#181818" points="583.209,513.4609,593.209,517.4609,583.209,521.4609,587.209,517.4609" style="stroke:#181818;stroke-width:1.0;"/><line style="stroke:#181818;stroke-width:1.0;" x1="96.043" x2="589.209" y1="517.4609" y2="517.4609"/><text fill="#000000" font-family="sans-serif" font-size="15" lengthAdjust="spacing" textLength="136.5161" x="103.043" y="494.4624">Action JoinSession</text><text fill="#000000" font-family="sans-serif" font-size="15" lengthAdjust="spacing" textLength="421.1279" x="103.043" y="511.9233">https://github.com/samuelroland/plx-demo/ "PRG2 Jack"</text><polygon fill="#181818" points="107.043,544.9219,97.043,548.9219,107.043,552.9219,103.043,548.9219" style="stroke:#181818;stroke-width:1.0;"/><line style="stroke:#181818;stroke-width:1.0;" x1="101.043" x2="594.209" y1="548.9219" y2="548.9219"/><text fill="#000000" font-family="sans-serif" font-size="15" lengthAdjust="spacing" textLength="260.2002" x="113.043" y="543.3843">Event SessionJoined client_num=1</text><polygon fill="#181818" points="934.7993,593.8438,944.7993,597.8438,934.7993,601.8438,938.7993,597.8438" style="stroke:#181818;stroke-width:1.0;"/><line style="stroke:#181818;stroke-width:1.0;" x1="595.209" x2="940.7993" y1="597.8438" y2="597.8438"/><text fill="#000000" font-family="sans-serif" font-size="15" lengthAdjust="spacing" textLength="86.0303" x="602.209" y="574.8452">Event Stats</text><text fill="#000000" font-family="sans-serif" font-size="15" lengthAdjust="spacing" textLength="271.3989" x="602.209" y="592.3062">followers_count=1 leaders_count=1</text><rect fill="#EEEEEE" height="3" style="stroke:#EEEEEE;stroke-width:1.0;" width="1036.3384" x="0" y="628.1563"/><line style="stroke:#000000;stroke-width:1.0;" x1="0" x2="1036.3384" y1="628.1563" y2="628.1563"/><line style="stroke:#000000;stroke-width:1.0;" x1="0" x2="1036.3384" y1="631.1563" y2="631.1563"/><rect fill="#EEEEEE" height="26.625" style="stroke:#000000;stroke-width:2.0;" width="298" x="369.1692" y="615.8438"/><text fill="#000000" font-family="sans-serif" font-size="16" font-weight="bold" lengthAdjust="spacing" textLength="284" x="375.1692" y="634.6953">D&#233;roulement de l'entrainement</text><polygon fill="#181818" points="606.209,671.9297,596.209,675.9297,606.209,679.9297,602.209,675.9297" style="stroke:#181818;stroke-width:1.0;"/><line style="stroke:#181818;stroke-width:1.0;" x1="600.209" x2="945.7993" y1="675.9297" y2="675.9297"/><text fill="#000000" font-family="sans-serif" font-size="15" lengthAdjust="spacing" textLength="143.3423" x="612.209" y="670.3921">Action StopSession</text><line style="stroke:#181818;stroke-width:1.0;" x1="595.209" x2="637.209" y1="742.3125" y2="742.3125"/><line style="stroke:#181818;stroke-width:1.0;" x1="637.209" x2="637.209" y1="742.3125" y2="755.3125"/><line style="stroke:#181818;stroke-width:1.0;" x1="596.209" x2="637.209" y1="755.3125" y2="755.3125"/><polygon fill="#181818" points="606.209,751.3125,596.209,755.3125,606.209,759.3125,602.209,755.3125" style="stroke:#181818;stroke-width:1.0;"/><text fill="#000000" font-family="sans-serif" font-size="15" lengthAdjust="spacing" textLength="182.6001" x="602.209" y="701.853">V&#233;rification que le client</text><text fill="#000000" font-family="sans-serif" font-size="15" lengthAdjust="spacing" textLength="146.6675" x="602.209" y="719.314">est bien le cr&#233;ateur</text><text fill="#000000" font-family="sans-serif" font-size="15" lengthAdjust="spacing" textLength="97.1704" x="602.209" y="736.7749">de la session</text><polygon fill="#181818" points="934.7993,782.7734,944.7993,786.7734,934.7993,790.7734,938.7993,786.7734" style="stroke:#181818;stroke-width:1.0;"/><line style="stroke:#181818;stroke-width:1.0;" x1="595.209" x2="940.7993" y1="786.7734" y2="786.7734"/><text fill="#000000" font-family="sans-serif" font-size="15" lengthAdjust="spacing" textLength="167.3438" x="602.209" y="781.2358">Event SessionStopped</text><polygon fill="#181818" points="107.043,814.2344,97.043,818.2344,107.043,822.2344,103.043,818.2344" style="stroke:#181818;stroke-width:1.0;"/><line style="stroke:#181818;stroke-width:1.0;" x1="101.043" x2="594.209" y1="818.2344" y2="818.2344"/><text fill="#000000" font-family="sans-serif" font-size="15" lengthAdjust="spacing" textLength="167.3438" x="113.043" y="812.6968">Event SessionStopped</text><!--SRC=[jLJRRjD047ttLmnze5IL7UTA4k4YA3HILOcA87Z0LRHUZvibpgxPNQU5F-ftzCUOTUmeWRRf2twnFJjpvfopipiNAKAcb4tKhMSMGXPCioMacB4ojsTAsgduZT0UU1wjMC55mQI5WzDS8BtFL9wh6zJWmtcP2tO0p13SEhXRCKMzmb93BbOO5FbjeCrurEw4LObnY_h15XV8qdK3nXTLSbv5dcBRzxn3U8-PqkXb6ued6sPZcDpVoVixJM6qKA0smbZKiUHLqvb88Je176MysnyC_6u7ktul6GtzqIZf-zr-WlrEcFO6FF7MRE2DN_Dw31kseMF9S9GCE-skd_5iuFT2FlI7MRVl9uEqtSj2nl5rfMBZy3M1CGcuBEmlCj5OK1dvPenGqkoeN9ivXa_bIWiod05NKk8j9SAhBwUNS0pVC9aglY38EPEfcRC57iNonenRhR_tvwqBp0gjhE8gdwsS7YMZC6W7OInVLgiRQT6pB7k8x3jk7Ry9sccjAPRNMfM5GvrRMpXkryBEooJWQjaoR5bYhbLE_5j4rqzngLhU6cvthp-kt1mri1VEkky0LyxTEWXS8tFzcztSvs8G14SFvDOYffRck84-kFmywTJ3UmoDf2sYpTZiq3nNGcBQp8mibr58T9crz4lBOoZe8D3HfLRM09qPUB4pBJ-e_fa-mtzmTrlqrLCydCwwDfRF9hADlv_Klrws7xVV-HdB1idCk2gbZTfrskRVyoBtm0SwwAhCSUcAQJ_oG_hGZ1fMaIXwQafKKJFSejCaVILWaGbUZINyB0aQQmcnH38veSygfk_lcAMRDPQkFslkX7qJvjeNcEwthqdy0m00]--></g></svg>