<svg xmlns="http://www.w3.org/2000/svg" xmlns:xlink="http://www.w3.org/1999/xlink" contentStyleType="text/css" height="803px" preserveAspectRatio="none" style="width:706px;height:803px;background:#FFFFFF;" version="1.1" viewBox="0 0 706 803" width="706px" zoomAndPan="magnify"><defs/><g><text fill="#000000" font-family="sans-serif" font-size="14" font-weight="bold" lengthAdjust="spacing" textLength="189.9639" x="257.6301" y="27.9951">Gestion de sessions live</text><line style="stroke:#181818;stroke-width:0.5;stroke-dasharray:5.0,5.0;" x1="100" x2="100" y1="73.5938" y2="796.9141"/><line style="stroke:#181818;stroke-width:0.5;stroke-dasharray:5.0,5.0;" x1="295.3584" x2="295.3584" y1="73.5938" y2="796.9141"/><line style="stroke:#181818;stroke-width:0.5;stroke-dasharray:5.0,5.0;" x1="533.4375" x2="533.4375" y1="73.5938" y2="796.9141"/><rect fill="#E2E2F0" height="30.2969" rx="2.5" ry="2.5" style="stroke:#181818;stroke-width:0.5;" width="191.3584" x="5" y="42.2969"/><text fill="#000000" font-family="sans-serif" font-size="14" lengthAdjust="spacing" textLength="177.3584" x="12" y="62.292">Client PLX Follower - Julia</text><rect fill="#E2E2F0" height="30.2969" rx="2.5" ry="2.5" style="stroke:#181818;stroke-width:0.5;" width="179.9766" x="206.3584" y="42.2969"/><text fill="#000000" font-family="sans-serif" font-size="14" lengthAdjust="spacing" textLength="165.9766" x="213.3584" y="62.292">Client PLX Leader - Jack</text><rect fill="#E2E2F0" height="30.2969" rx="2.5" ry="2.5" style="stroke:#181818;stroke-width:0.5;" width="99.0664" x="484.4375" y="42.2969"/><text fill="#000000" font-family="sans-serif" font-size="14" lengthAdjust="spacing" textLength="85.0664" x="491.4375" y="62.292">Serveur PLX</text><line style="stroke:#181818;stroke-width:1.0;" x1="100.6792" x2="142.6792" y1="119.8594" y2="119.8594"/><line style="stroke:#181818;stroke-width:1.0;" x1="142.6792" x2="142.6792" y1="119.8594" y2="132.8594"/><line style="stroke:#181818;stroke-width:1.0;" x1="101.6792" x2="142.6792" y1="132.8594" y2="132.8594"/><polygon fill="#181818" points="111.6792,128.8594,101.6792,132.8594,111.6792,136.8594,107.6792,132.8594" style="stroke:#181818;stroke-width:1.0;"/><text fill="#000000" font-family="sans-serif" font-size="13" lengthAdjust="spacing" textLength="131.5488" x="107.6792" y="99.6606">G&#233;n&#233;rer et persister</text><text fill="#000000" font-family="sans-serif" font-size="13" lengthAdjust="spacing" textLength="160.4941" x="107.6792" y="114.7935">client_id =&gt; 7ke9A1Idkk</text><line style="stroke:#181818;stroke-width:1.0;" x1="296.3467" x2="338.3467" y1="177.125" y2="177.125"/><line style="stroke:#181818;stroke-width:1.0;" x1="338.3467" x2="338.3467" y1="177.125" y2="190.125"/><line style="stroke:#181818;stroke-width:1.0;" x1="297.3467" x2="338.3467" y1="190.125" y2="190.125"/><polygon fill="#181818" points="307.3467,186.125,297.3467,190.125,307.3467,194.125,303.3467,190.125" style="stroke:#181818;stroke-width:1.0;"/><text fill="#000000" font-family="sans-serif" font-size="13" lengthAdjust="spacing" textLength="131.5488" x="303.3467" y="156.9263">G&#233;n&#233;rer et persister</text><text fill="#000000" font-family="sans-serif" font-size="13" lengthAdjust="spacing" textLength="161.7256" x="303.3467" y="172.0591">client_id =&gt; EUtqpL7GjC</text><polygon fill="#181818" points="521.9707,230.3906,531.9707,234.3906,521.9707,238.3906,525.9707,234.3906" style="stroke:#181818;stroke-width:1.0;"/><line style="stroke:#181818;stroke-width:1.0;" x1="100.6792" x2="527.9707" y1="234.3906" y2="234.3906"/><text fill="#000000" font-family="sans-serif" font-size="13" lengthAdjust="spacing" textLength="334.0898" x="107.6792" y="214.1919">Ouvrir la connexion (TCP + WebSocket handshake)</text><text fill="#000000" font-family="sans-serif" font-size="13" lengthAdjust="spacing" textLength="315.1611" x="107.6792" y="229.3247">protocol version = 0.1.0, client_id = 7ke9A1Idkk</text><polygon fill="#181818" points="521.9707,259.5234,531.9707,263.5234,521.9707,267.5234,525.9707,263.5234" style="stroke:#181818;stroke-width:1.0;"/><line style="stroke:#181818;stroke-width:1.0;" x1="100.6792" x2="527.9707" y1="263.5234" y2="263.5234"/><text fill="#000000" font-family="sans-serif" font-size="13" lengthAdjust="spacing" textLength="303.2339" x="107.6792" y="258.4575">Msg GetSessions https://github.com/prg2/prg2</text><polygon fill="#181818" points="111.6792,288.6563,101.6792,292.6563,111.6792,296.6563,107.6792,292.6563" style="stroke:#181818;stroke-width:1.0;"/><line style="stroke:#181818;stroke-width:1.0;" x1="105.6792" x2="532.9707" y1="292.6563" y2="292.6563"/><text fill="#000000" font-family="sans-serif" font-size="13" lengthAdjust="spacing" textLength="132.4565" x="117.6792" y="287.5903">Msg GetSessions [  ]</text><polygon fill="#181818" points="521.9707,317.7891,531.9707,321.7891,521.9707,325.7891,525.9707,321.7891" style="stroke:#181818;stroke-width:1.0;"/><line style="stroke:#181818;stroke-width:1.0;" x1="296.3467" x2="527.9707" y1="321.7891" y2="321.7891"/><text fill="#000000" font-family="sans-serif" font-size="13" lengthAdjust="spacing" textLength="154.0576" x="303.3467" y="316.7231">Ouvrir la connexion (...)</text><polygon fill="#181818" points="521.9707,346.9219,531.9707,350.9219,521.9707,354.9219,525.9707,350.9219" style="stroke:#181818;stroke-width:1.0;"/><line style="stroke:#181818;stroke-width:1.0;" x1="296.3467" x2="527.9707" y1="350.9219" y2="350.9219"/><text fill="#000000" font-family="sans-serif" font-size="13" lengthAdjust="spacing" textLength="193.6479" x="303.3467" y="345.856">Msg StartSession "PRG2 Jack"</text><polygon fill="#181818" points="307.3467,376.0547,297.3467,380.0547,307.3467,384.0547,303.3467,380.0547" style="stroke:#181818;stroke-width:1.0;"/><line style="stroke:#181818;stroke-width:1.0;" x1="301.3467" x2="532.9707" y1="380.0547" y2="380.0547"/><text fill="#000000" font-family="sans-serif" font-size="13" lengthAdjust="spacing" textLength="213.624" x="313.3467" y="374.9888">Msg SessionCreated "PRG2 Jack"</text><polygon fill="#181818" points="521.9707,405.1875,531.9707,409.1875,521.9707,413.1875,525.9707,409.1875" style="stroke:#181818;stroke-width:1.0;"/><line style="stroke:#181818;stroke-width:1.0;" x1="100.6792" x2="527.9707" y1="409.1875" y2="409.1875"/><text fill="#000000" font-family="sans-serif" font-size="13" lengthAdjust="spacing" textLength="303.2339" x="107.6792" y="404.1216">Msg GetSessions https://github.com/prg2/prg2</text><polygon fill="#181818" points="111.6792,434.3203,101.6792,438.3203,111.6792,442.3203,107.6792,438.3203" style="stroke:#181818;stroke-width:1.0;"/><line style="stroke:#181818;stroke-width:1.0;" x1="105.6792" x2="532.9707" y1="438.3203" y2="438.3203"/><text fill="#000000" font-family="sans-serif" font-size="13" lengthAdjust="spacing" textLength="210.2407" x="117.6792" y="433.2544">Msg GetSessions [ "PRG2 Jack" ]</text><polygon fill="#181818" points="521.9707,463.4531,531.9707,467.4531,521.9707,471.4531,525.9707,467.4531" style="stroke:#181818;stroke-width:1.0;"/><line style="stroke:#181818;stroke-width:1.0;" x1="100.6792" x2="527.9707" y1="467.4531" y2="467.4531"/><text fill="#000000" font-family="sans-serif" font-size="13" lengthAdjust="spacing" textLength="378.8472" x="107.6792" y="462.3872">Msg JoinSession https://github.com/prg2/prg2 "PRG2 Jack"</text><polygon fill="#181818" points="111.6792,492.5859,101.6792,496.5859,111.6792,500.5859,107.6792,496.5859" style="stroke:#181818;stroke-width:1.0;"/><line style="stroke:#181818;stroke-width:1.0;" x1="105.6792" x2="532.9707" y1="496.5859" y2="496.5859"/><text fill="#000000" font-family="sans-serif" font-size="13" lengthAdjust="spacing" textLength="119.8628" x="117.6792" y="491.52">Msg SessionJoined</text><polygon fill="#181818" points="307.3467,521.7188,297.3467,525.7188,307.3467,529.7188,303.3467,525.7188" style="stroke:#181818;stroke-width:1.0;"/><line style="stroke:#181818;stroke-width:1.0;" x1="301.3467" x2="532.9707" y1="525.7188" y2="525.7188"/><text fill="#000000" font-family="sans-serif" font-size="13" lengthAdjust="spacing" textLength="145.3105" x="313.3467" y="520.6528">Msg Stats followers=1</text><path d="M30,538.7188 L30,563.7188 L603,563.7188 L603,548.7188 L593,538.7188 L30,538.7188 " fill="#FEFFDD" style="stroke:#181818;stroke-width:0.5;"/><path d="M593,538.7188 L593,548.7188 L603,548.7188 L593,538.7188 " fill="#FEFFDD" style="stroke:#181818;stroke-width:0.5;"/><text fill="#000000" font-family="sans-serif" font-size="13" lengthAdjust="spacing" textLength="205.3467" x="209.5786" y="555.7856">D&#233;roulement de l'entrainement</text><polygon fill="#181818" points="521.9707,585.9844,531.9707,589.9844,521.9707,593.9844,525.9707,589.9844" style="stroke:#181818;stroke-width:1.0;"/><line style="stroke:#181818;stroke-width:1.0;" x1="296.3467" x2="527.9707" y1="589.9844" y2="589.9844"/><text fill="#000000" font-family="sans-serif" font-size="13" lengthAdjust="spacing" textLength="109.5288" x="303.3467" y="584.9185">Msg StopSession</text><line style="stroke:#181818;stroke-width:1.0;" x1="533.9707" x2="575.9707" y1="649.3828" y2="649.3828"/><line style="stroke:#181818;stroke-width:1.0;" x1="575.9707" x2="575.9707" y1="649.3828" y2="662.3828"/><line style="stroke:#181818;stroke-width:1.0;" x1="534.9707" x2="575.9707" y1="662.3828" y2="662.3828"/><polygon fill="#181818" points="544.9707,658.3828,534.9707,662.3828,544.9707,666.3828,540.9707,662.3828" style="stroke:#181818;stroke-width:1.0;"/><text fill="#000000" font-family="sans-serif" font-size="13" lengthAdjust="spacing" textLength="158.2534" x="540.9707" y="614.0513">V&#233;rification que le client</text><text fill="#000000" font-family="sans-serif" font-size="13" lengthAdjust="spacing" textLength="127.1118" x="540.9707" y="629.1841">est bien le cr&#233;ateur</text><text fill="#000000" font-family="sans-serif" font-size="13" lengthAdjust="spacing" textLength="84.2144" x="540.9707" y="644.3169">de la session</text><polygon fill="#181818" points="307.3467,687.5156,297.3467,691.5156,307.3467,695.5156,303.3467,691.5156" style="stroke:#181818;stroke-width:1.0;"/><line style="stroke:#181818;stroke-width:1.0;" x1="301.3467" x2="532.9707" y1="691.5156" y2="691.5156"/><text fill="#000000" font-family="sans-serif" font-size="13" lengthAdjust="spacing" textLength="134.0308" x="313.3467" y="686.4497">Msg SessionStopped</text><polygon fill="#181818" points="307.3467,716.6484,297.3467,720.6484,307.3467,724.6484,303.3467,720.6484" style="stroke:#181818;stroke-width:1.0;"/><line style="stroke:#181818;stroke-width:1.0;" x1="301.3467" x2="532.9707" y1="720.6484" y2="720.6484"/><text fill="#000000" font-family="sans-serif" font-size="13" lengthAdjust="spacing" textLength="175.4619" x="313.3467" y="715.5825">Fermeture de la connexion</text><polygon fill="#181818" points="111.6792,745.7813,101.6792,749.7813,111.6792,753.7813,107.6792,749.7813" style="stroke:#181818;stroke-width:1.0;"/><line style="stroke:#181818;stroke-width:1.0;" x1="105.6792" x2="532.9707" y1="749.7813" y2="749.7813"/><text fill="#000000" font-family="sans-serif" font-size="13" lengthAdjust="spacing" textLength="134.0308" x="117.6792" y="744.7153">Msg SessionStopped</text><polygon fill="#181818" points="111.6792,774.9141,101.6792,778.9141,111.6792,782.9141,107.6792,778.9141" style="stroke:#181818;stroke-width:1.0;"/><line style="stroke:#181818;stroke-width:1.0;" x1="105.6792" x2="532.9707" y1="778.9141" y2="778.9141"/><text fill="#000000" font-family="sans-serif" font-size="13" lengthAdjust="spacing" textLength="175.4619" x="117.6792" y="773.8481">Fermeture de la connexion</text><!--SRC=[lLNRJYD747sVhoZnGbPnpCBBAaWGRSmk0f4iYdEJGXIrPyfsuvdksUuUB_wRFCRx6_DZETLpOKmmoLDUS5DJTUhKgUhgfSwOvjQ6cNr8ag13pdJ9FcXh25yyUu-ZfrolEKbAvO9ETQbCe8D9hXc_jpU_qdkRv_OJE_gAhgjSgmDI7gYDSM_K3QkiYL7fAeRaqR8RC6Mtvif9HFJnyhzBaaFwbkVMSJBlav_tEK_fijwQUkjWva0bEwzzO7TdqfZ_3vtHsJczMV7NRu-lijKgoLiovos9_uZmxgVmiRnvSta_4KQz3Wk4A4DSb643xNmWE-_5t67Sb7DA7wgrquvoHQarXX-a0L_yEBcbB-aNdarjkWBaKfdCBzMANzsPqjbWKvlJMgZ1-unUZu_7hqSq83YiyBcit_a5sXscNPkN8PJ-zEXeeSEocerJMnoLRd4I_oHDqAxCJm5-8_fTb6WDb3fMCam3VL-iU3mUlth6Lz9C0yQYmpsu_U7of1cS0Q-kTT6zyPm80Svs0eQTkhVQ_5_I33X0fNr9hy6eA_Ebf7iqs2NG0WacP_kK2YeyNbT_TfmanWOcAxwTUTHplC2bi5NEXTnZx8Zy40Uda40iUvjdovRBW4NdyJCWzLodSLJeOmLGRiVupc0RqGp7Q7Fr5ksiS0qbi-hkrCip8CdBPyj_pwxWK3cc1gwVn7yJz9-GZsxxGJ5u4_PqTU4fizYe4D2nR1NKWTB-WkYYvQ1ysJs-sO3eW3QGH-TYKHfBoOBB3BxPeIvaGqaYHvLfWyV8TyDKr9yB7cm5mrXdLQ3wiwIgWiQ2ghVaiMJBlF8QkR1cuyR1Rxt5EgwtFcBv5iQt8B641YTMcOOMg3Bzuq7rdwB2t6e_ZX05x6g1Wpcq2CVaU4qbLlkCFUPKgZ6PnXIuGOS5FsM7ZSmZaQSLXGg4XwYKf2nKAQ8_rYhBiOCOYPYO8ocohQ_v_kZ-pTCg8yCdtF3g5D8oPC-5Wh75YEuhz16V8VxL1RW8VqoobaPt4hMF22HISzsyhrLPMXUQfZdEwcsXd8Cub5NT1CXJQQjOdkD-bgItRzDuNnIWLJnw2dWS31NMXtn3iqsBCQ8P-ftYrcQaSczH3OLbAwA3ayLeBLfJ8xUQ2ojj17YjyOfP1qvEtFoo2fdz52cyYnCW33389HX0l60xEYDvi1afDc4faTh3i37fqbbZAnafVi0RYNRsCt4z_V0z1Zjgw-c4H6oif-Hl]--></g></svg>