<svg xmlns="http://www.w3.org/2000/svg" xmlns:xlink="http://www.w3.org/1999/xlink" contentStyleType="text/css" height="861px" preserveAspectRatio="none" style="width:1043px;height:861px;background:#FFFFFF;" version="1.1" viewBox="0 0 1043 861" width="1043px" zoomAndPan="magnify"><defs/><g><line style="stroke:#181818;stroke-width:0.5;stroke-dasharray:5.0,5.0;" x1="96" x2="96" y1="57.25" y2="854.8594"/><line style="stroke:#181818;stroke-width:0.5;stroke-dasharray:5.0,5.0;" x1="594.4746" x2="594.4746" y1="57.25" y2="854.8594"/><line style="stroke:#181818;stroke-width:0.5;stroke-dasharray:5.0,5.0;" x1="946.2603" x2="946.2603" y1="57.25" y2="854.8594"/><rect fill="#E2E2F0" height="32.625" rx="2.5" ry="2.5" style="stroke:#181818;stroke-width:0.5;" width="182.0859" x="5" y="23.625"/><text fill="#000000" font-family="sans-serif" font-size="16" lengthAdjust="spacing" textLength="168.0859" x="12" y="45.4766">Client Follower - Julia</text><rect fill="#E2E2F0" height="51.25" rx="2.5" ry="2.5" style="stroke:#181818;stroke-width:0.5;" width="137.4688" x="526.4746" y="5"/><text fill="#000000" font-family="sans-serif" font-size="16" lengthAdjust="spacing" textLength="62.6094" x="563.9043" y="26.8516">Serveur</text><text fill="#000000" font-family="sans-serif" font-size="16" lengthAdjust="spacing" textLength="123.4688" x="533.4746" y="45.4766">live.plx.rs:9120</text><rect fill="#E2E2F0" height="32.625" rx="2.5" ry="2.5" style="stroke:#181818;stroke-width:0.5;" width="169.0781" x="862.2603" y="23.625"/><text fill="#000000" font-family="sans-serif" font-size="16" lengthAdjust="spacing" textLength="155.0781" x="869.2603" y="45.4766">Client Leader - Jack</text><line style="stroke:#181818;stroke-width:1.0;" x1="96.043" x2="138.043" y1="108.1719" y2="108.1719"/><line style="stroke:#181818;stroke-width:1.0;" x1="138.043" x2="138.043" y1="108.1719" y2="121.1719"/><line style="stroke:#181818;stroke-width:1.0;" x1="97.043" x2="138.043" y1="121.1719" y2="121.1719"/><polygon fill="#181818" points="107.043,117.1719,97.043,121.1719,107.043,125.1719,103.043,121.1719" style="stroke:#181818;stroke-width:1.0;"/><text fill="#000000" font-family="sans-serif" font-size="15" lengthAdjust="spacing" textLength="151.7871" x="103.043" y="85.1733">G&#233;n&#233;rer et persister</text><text fill="#000000" font-family="sans-serif" font-size="15" lengthAdjust="spacing" textLength="416.1914" x="103.043" y="102.6343">client_id =&gt; e9fc3566-32e3-4b98-99b5-35be520d46cb</text><line style="stroke:#181818;stroke-width:1.0;" x1="904.7993" x2="945.7993" y1="170.0938" y2="170.0938"/><line style="stroke:#181818;stroke-width:1.0;" x1="904.7993" x2="904.7993" y1="170.0938" y2="183.0938"/><line style="stroke:#181818;stroke-width:1.0;" x1="904.7993" x2="944.7993" y1="183.0938" y2="183.0938"/><polygon fill="#181818" points="934.7993,179.0938,944.7993,183.0938,934.7993,187.0938,938.7993,183.0938" style="stroke:#181818;stroke-width:1.0;"/><text fill="#000000" font-family="sans-serif" font-size="15" lengthAdjust="spacing" textLength="248.8477" x="635.0972" y="147.0952">G&#233;n&#233;rer et persister client_id =&gt;</text><text fill="#000000" font-family="sans-serif" font-size="15" lengthAdjust="spacing" textLength="304.7021" x="635.0972" y="164.5562">ae9b8213-fcf6-40c8-8f35-b6d14f0ace75</text><polygon fill="#181818" points="583.209,245.4766,593.209,249.4766,583.209,253.4766,587.209,249.4766" style="stroke:#181818;stroke-width:1.0;"/><line style="stroke:#181818;stroke-width:1.0;" x1="96.043" x2="589.209" y1="249.4766" y2="249.4766"/><text fill="#000000" font-family="sans-serif" font-size="15" lengthAdjust="spacing" textLength="385.4883" x="103.043" y="209.0171">Ouvrir la connexion (TCP + WebSocket handshake)</text><text fill="#000000" font-family="sans-serif" font-size="15" lengthAdjust="spacing" textLength="367.5879" x="103.043" y="226.478">ws://live.plx.rs:9120?live_protocol_version=0.1.0</text><text fill="#000000" font-family="sans-serif" font-size="15" lengthAdjust="spacing" textLength="439.7241" x="103.043" y="243.939">&amp;live_client_id=e9fc3566-32e3-4b98-99b5-35be520d46cb</text><polygon fill="#181818" points="583.209,294.3984,593.209,298.3984,583.209,302.3984,587.209,298.3984" style="stroke:#181818;stroke-width:1.0;"/><line style="stroke:#181818;stroke-width:1.0;" x1="96.043" x2="589.209" y1="298.3984" y2="298.3984"/><text fill="#000000" font-family="sans-serif" font-size="15" lengthAdjust="spacing" textLength="143.7891" x="103.043" y="275.3999">Action GetSessions</text><text fill="#000000" font-family="sans-serif" font-size="15" lengthAdjust="spacing" textLength="404.2603" x="103.043" y="292.8608">group_id=https://github.com/samuelroland/plx-demo/</text><polygon fill="#181818" points="107.043,325.8594,97.043,329.8594,107.043,333.8594,103.043,329.8594" style="stroke:#181818;stroke-width:1.0;"/><line style="stroke:#181818;stroke-width:1.0;" x1="101.043" x2="594.209" y1="329.8594" y2="329.8594"/><text fill="#000000" font-family="sans-serif" font-size="15" lengthAdjust="spacing" textLength="165.0146" x="113.043" y="324.3218">Event SessionsList [  ]</text><polygon fill="#181818" points="606.209,357.3203,596.209,361.3203,606.209,365.3203,602.209,361.3203" style="stroke:#181818;stroke-width:1.0;"/><line style="stroke:#181818;stroke-width:1.0;" x1="600.209" x2="945.7993" y1="361.3203" y2="361.3203"/><text fill="#000000" font-family="sans-serif" font-size="15" lengthAdjust="spacing" textLength="177.7588" x="612.209" y="355.7827">Ouvrir la connexion (...)</text><polygon fill="#181818" points="606.209,388.7813,596.209,392.7813,606.209,396.7813,602.209,392.7813" style="stroke:#181818;stroke-width:1.0;"/><line style="stroke:#181818;stroke-width:1.0;" x1="600.209" x2="945.7993" y1="392.7813" y2="392.7813"/><text fill="#000000" font-family="sans-serif" font-size="15" lengthAdjust="spacing" textLength="327.5903" x="612.209" y="387.2437">Action StartSession "PRG2 Jack" + group_id</text><polygon fill="#181818" points="934.7993,420.2422,944.7993,424.2422,934.7993,428.2422,938.7993,424.2422" style="stroke:#181818;stroke-width:1.0;"/><line style="stroke:#181818;stroke-width:1.0;" x1="595.209" x2="940.7993" y1="424.2422" y2="424.2422"/><text fill="#000000" font-family="sans-serif" font-size="15" lengthAdjust="spacing" textLength="260.2002" x="602.209" y="418.7046">Event SessionJoined client_num=0</text><polygon fill="#181818" points="583.209,451.7031,593.209,455.7031,583.209,459.7031,587.209,455.7031" style="stroke:#181818;stroke-width:1.0;"/><line style="stroke:#181818;stroke-width:1.0;" x1="96.043" x2="589.209" y1="455.7031" y2="455.7031"/><text fill="#000000" font-family="sans-serif" font-size="15" lengthAdjust="spacing" textLength="475.166" x="103.043" y="450.1655">Action GetSessions https://github.com/samuelroland/plx-demo/</text><polygon fill="#181818" points="107.043,483.1641,97.043,487.1641,107.043,491.1641,103.043,487.1641" style="stroke:#181818;stroke-width:1.0;"/><line style="stroke:#181818;stroke-width:1.0;" x1="101.043" x2="594.209" y1="487.1641" y2="487.1641"/><text fill="#000000" font-family="sans-serif" font-size="15" lengthAdjust="spacing" textLength="254.7656" x="113.043" y="481.6265">Event SessionsList [ "PRG2 Jack" ]</text><polygon fill="#181818" points="583.209,532.0859,593.209,536.0859,583.209,540.0859,587.209,536.0859" style="stroke:#181818;stroke-width:1.0;"/><line style="stroke:#181818;stroke-width:1.0;" x1="96.043" x2="589.209" y1="536.0859" y2="536.0859"/><text fill="#000000" font-family="sans-serif" font-size="15" lengthAdjust="spacing" textLength="136.5161" x="103.043" y="513.0874">Action JoinSession</text><text fill="#000000" font-family="sans-serif" font-size="15" lengthAdjust="spacing" textLength="421.1279" x="103.043" y="530.5483">https://github.com/samuelroland/plx-demo/ "PRG2 Jack"</text><polygon fill="#181818" points="107.043,563.5469,97.043,567.5469,107.043,571.5469,103.043,567.5469" style="stroke:#181818;stroke-width:1.0;"/><line style="stroke:#181818;stroke-width:1.0;" x1="101.043" x2="594.209" y1="567.5469" y2="567.5469"/><text fill="#000000" font-family="sans-serif" font-size="15" lengthAdjust="spacing" textLength="260.2002" x="113.043" y="562.0093">Event SessionJoined client_num=1</text><polygon fill="#181818" points="934.7993,612.4688,944.7993,616.4688,934.7993,620.4688,938.7993,616.4688" style="stroke:#181818;stroke-width:1.0;"/><line style="stroke:#181818;stroke-width:1.0;" x1="595.209" x2="940.7993" y1="616.4688" y2="616.4688"/><text fill="#000000" font-family="sans-serif" font-size="15" lengthAdjust="spacing" textLength="86.0303" x="602.209" y="593.4702">Event Stats</text><text fill="#000000" font-family="sans-serif" font-size="15" lengthAdjust="spacing" textLength="271.3989" x="602.209" y="610.9312">followers_count=1 leaders_count=1</text><rect fill="#EEEEEE" height="3" style="stroke:#EEEEEE;stroke-width:1.0;" width="1036.3384" x="0" y="646.7813"/><line style="stroke:#000000;stroke-width:1.0;" x1="0" x2="1036.3384" y1="646.7813" y2="646.7813"/><line style="stroke:#000000;stroke-width:1.0;" x1="0" x2="1036.3384" y1="649.7813" y2="649.7813"/><rect fill="#EEEEEE" height="26.625" style="stroke:#000000;stroke-width:2.0;" width="298" x="369.1692" y="634.4688"/><text fill="#000000" font-family="sans-serif" font-size="16" font-weight="bold" lengthAdjust="spacing" textLength="284" x="375.1692" y="653.3203">D&#233;roulement de l'entrainement</text><polygon fill="#181818" points="606.209,690.5547,596.209,694.5547,606.209,698.5547,602.209,694.5547" style="stroke:#181818;stroke-width:1.0;"/><line style="stroke:#181818;stroke-width:1.0;" x1="600.209" x2="945.7993" y1="694.5547" y2="694.5547"/><text fill="#000000" font-family="sans-serif" font-size="15" lengthAdjust="spacing" textLength="143.3423" x="612.209" y="689.0171">Action StopSession</text><line style="stroke:#181818;stroke-width:1.0;" x1="595.209" x2="637.209" y1="760.9375" y2="760.9375"/><line style="stroke:#181818;stroke-width:1.0;" x1="637.209" x2="637.209" y1="760.9375" y2="773.9375"/><line style="stroke:#181818;stroke-width:1.0;" x1="596.209" x2="637.209" y1="773.9375" y2="773.9375"/><polygon fill="#181818" points="606.209,769.9375,596.209,773.9375,606.209,777.9375,602.209,773.9375" style="stroke:#181818;stroke-width:1.0;"/><text fill="#000000" font-family="sans-serif" font-size="15" lengthAdjust="spacing" textLength="182.6001" x="602.209" y="720.478">V&#233;rification que le client</text><text fill="#000000" font-family="sans-serif" font-size="15" lengthAdjust="spacing" textLength="146.6675" x="602.209" y="737.939">est bien le cr&#233;ateur</text><text fill="#000000" font-family="sans-serif" font-size="15" lengthAdjust="spacing" textLength="97.1704" x="602.209" y="755.3999">de la session</text><polygon fill="#181818" points="934.7993,801.3984,944.7993,805.3984,934.7993,809.3984,938.7993,805.3984" style="stroke:#181818;stroke-width:1.0;"/><line style="stroke:#181818;stroke-width:1.0;" x1="595.209" x2="940.7993" y1="805.3984" y2="805.3984"/><text fill="#000000" font-family="sans-serif" font-size="15" lengthAdjust="spacing" textLength="167.3438" x="602.209" y="799.8608">Event SessionStopped</text><polygon fill="#181818" points="107.043,832.8594,97.043,836.8594,107.043,840.8594,103.043,836.8594" style="stroke:#181818;stroke-width:1.0;"/><line style="stroke:#181818;stroke-width:1.0;" x1="101.043" x2="594.209" y1="836.8594" y2="836.8594"/><text fill="#000000" font-family="sans-serif" font-size="15" lengthAdjust="spacing" textLength="167.3438" x="113.043" y="831.3218">Event SessionStopped</text><!--SRC=[jLRRKXj747tVh-Zm4EAoLkY254H5TYKGKwOecufIIQeY5pMxsul6xCvivY8WNvD7ox-X7qltxAui20PUmekadfdJfq-VwM4XCuHSQvVecyXUILK98qh8C1U-S6-qSZFvDq9_74MqucGgAw4Sx1mL4kdpZIuAVOq6OZZrXHGx82p1rS6x9sPebkZDN1LoYTsgkEaQUpZf3thXZELLys2ECnHPdK6aLs5p4IAFqHr5qIxyXBas6EKRZgysr0xXPBrIwvMXC3geq5Xf7HAxD2Iza1bCNm5EydGu6e_ZuG27yNuoEOWdasGK3qS9ZWQzR7-S9b7D1dw86rvVmuPjwBaIE4aE1lrXdAVvEDxlfGVnGJuSnSauw-_dFP7Yzw6AZSIN12OKO5cvMoW84dHEkbahjR9tggp5F8JtVccaWK90gfN26ze8t_rwT0uluNTCPZgz8iY5K9bTY2jyCLVNzd1lxtv_NdFWeZBQwLGN5qkkHwjfhzllzkRgsx2wAMtwBCaU8ljZwfZV2RfPKzDSNHhjAqPTE5Snjqlf5ZxffhhSiwBqM1XT4FyzeXjdMEgzg8Qxs-kVb-oZ5lQCfViJu0EhsmGXDIWuVzlDfrJiThil7jZR535pvECMUkVybvD1OzwNq9QqHRIrpHsQfregp5hFA5zEUqHNE4S_QVaGAhe8T7SfbRD0TmQ-kUEMZtJ-cJh3_w3kTj4V7kF1TJPdv-hPHBRndoRrNotxNvUVzPoh5ibUfDehD-qtspQ_esZAVt1C5rtx0ai-JFqeTkcB4PGmHARJnroYguRX5frsqsy4B7EP1bl2NvwWiIbXhf14JkXhY9drIhWmMZc_Q6V2KmxZz1LcJylNRYHx7Q65jyTaF2t33eDXibaa4fyS0jU-HPJddwtdVWUiL5I8B3WY90r6JUW9xSrsPSbJac-N0Q-QmrtATuPGhZ-Nk3Kx5T98zGxMdpcLTv96uNe5rXke2cybvQBd9Cms-bolw8LOhsp0iWsCRK122JLEkDgfQu0yhJSgmleVrZJNqdO3H4bnSKbVr2uzDq2TjZ9SnWGj-OohKPcaVfcjNZ1-YePU1UomF8qeKD9n5vJYbAMes49VQkLPsq9qM4pgE1VPr5UlVzd- -dwLWU4zRlGcbjmoobum1QNB3dpqr4TQ9l7V7XCNva-UazpeLgBc8IE9HCvOL8MlAcrStJI3sNfL2cD87CXywu3pipz0-r2UmSq0vTusjq0Gj0XVBJXwXXIKshhY5fBR1gC32VMRxbsHWIYifch0BHeH-LdLPAtB9bJBBN9c9HK3BoMzbzeG9yFRxCAxJ5y72hNDcG4PkI8699xJBPqE_w-1bEBMBVYaj1IuLUd2QAKzMmflw3McTcuySJfx_uwC7RIrC00Mc-P9z2y0]--></g></svg>