<svg xmlns="http://www.w3.org/2000/svg" xmlns:xlink="http://www.w3.org/1999/xlink" contentStyleType="text/css" height="829px" preserveAspectRatio="none" style="width:994px;height:829px;background:#FFFFFF;" version="1.1" viewBox="0 0 994 829" width="994px" zoomAndPan="magnify"><defs/><g><text fill="#000000" font-family="sans-serif" font-size="14" font-weight="bold" lengthAdjust="spacing" textLength="189.9639" x="401.5327" y="27.9951">Gestion de sessions live</text><line style="stroke:#181818;stroke-width:0.5;stroke-dasharray:5.0,5.0;" x1="100" x2="100" y1="73.5938" y2="822.7813"/><line style="stroke:#181818;stroke-width:0.5;stroke-dasharray:5.0,5.0;" x1="409.8662" x2="409.8662" y1="73.5938" y2="822.7813"/><line style="stroke:#181818;stroke-width:0.5;stroke-dasharray:5.0,5.0;" x1="823.7754" x2="823.7754" y1="73.5938" y2="822.7813"/><rect fill="#E2E2F0" height="30.2969" rx="2.5" ry="2.5" style="stroke:#181818;stroke-width:0.5;" width="191.3584" x="5" y="42.2969"/><text fill="#000000" font-family="sans-serif" font-size="14" lengthAdjust="spacing" textLength="177.3584" x="12" y="62.292">Client PLX Follower - Julia</text><rect fill="#E2E2F0" height="30.2969" rx="2.5" ry="2.5" style="stroke:#181818;stroke-width:0.5;" width="179.9766" x="320.8662" y="42.2969"/><text fill="#000000" font-family="sans-serif" font-size="14" lengthAdjust="spacing" textLength="165.9766" x="327.8662" y="62.292">Client PLX Leader - Jack</text><rect fill="#E2E2F0" height="30.2969" rx="2.5" ry="2.5" style="stroke:#181818;stroke-width:0.5;" width="99.0664" x="774.7754" y="42.2969"/><text fill="#000000" font-family="sans-serif" font-size="14" lengthAdjust="spacing" textLength="85.0664" x="781.7754" y="62.292">Serveur PLX</text><line style="stroke:#181818;stroke-width:1.0;" x1="100.6792" x2="142.6792" y1="104.7266" y2="104.7266"/><line style="stroke:#181818;stroke-width:1.0;" x1="142.6792" x2="142.6792" y1="104.7266" y2="117.7266"/><line style="stroke:#181818;stroke-width:1.0;" x1="101.6792" x2="142.6792" y1="117.7266" y2="117.7266"/><polygon fill="#181818" points="111.6792,113.7266,101.6792,117.7266,111.6792,121.7266,107.6792,117.7266" style="stroke:#181818;stroke-width:1.0;"/><text fill="#000000" font-family="sans-serif" font-size="13" lengthAdjust="spacing" textLength="296.1753" x="107.6792" y="99.6606">G&#233;n&#233;rer et persister client_id =&gt; 7ke9A1Idkk</text><line style="stroke:#181818;stroke-width:1.0;" x1="410.8545" x2="452.8545" y1="146.8594" y2="146.8594"/><line style="stroke:#181818;stroke-width:1.0;" x1="452.8545" x2="452.8545" y1="146.8594" y2="159.8594"/><line style="stroke:#181818;stroke-width:1.0;" x1="411.8545" x2="452.8545" y1="159.8594" y2="159.8594"/><polygon fill="#181818" points="421.8545,155.8594,411.8545,159.8594,421.8545,163.8594,417.8545,159.8594" style="stroke:#181818;stroke-width:1.0;"/><text fill="#000000" font-family="sans-serif" font-size="13" lengthAdjust="spacing" textLength="297.4067" x="417.8545" y="141.7935">G&#233;n&#233;rer et persister client_id =&gt; EUtqpL7GjC</text><polygon fill="#181818" points="812.3086,184.9922,822.3086,188.9922,812.3086,192.9922,816.3086,188.9922" style="stroke:#181818;stroke-width:1.0;"/><line style="stroke:#181818;stroke-width:1.0;" x1="100.6792" x2="818.3086" y1="188.9922" y2="188.9922"/><text fill="#000000" font-family="sans-serif" font-size="13" lengthAdjust="spacing" textLength="204.5977" x="107.6792" y="183.9263">Ouvrir la connexion WebSocket</text><polygon fill="#181818" points="812.3086,214.125,822.3086,218.125,812.3086,222.125,816.3086,218.125" style="stroke:#181818;stroke-width:1.0;"/><line style="stroke:#181818;stroke-width:1.0;" x1="100.6792" x2="818.3086" y1="218.125" y2="218.125"/><text fill="#000000" font-family="sans-serif" font-size="13" lengthAdjust="spacing" textLength="391.6504" x="107.6792" y="213.0591">Action Init, protocol_version = 0.1.0, client_id = 7ke9A1Idkk</text><polygon fill="#181818" points="812.3086,243.2578,822.3086,247.2578,812.3086,251.2578,816.3086,247.2578" style="stroke:#181818;stroke-width:1.0;"/><line style="stroke:#181818;stroke-width:1.0;" x1="100.6792" x2="818.3086" y1="247.2578" y2="247.2578"/><text fill="#000000" font-family="sans-serif" font-size="13" lengthAdjust="spacing" textLength="317.9351" x="107.6792" y="242.1919">Action GetSessions https://github.com/prg2/prg2</text><polygon fill="#181818" points="111.6792,272.3906,101.6792,276.3906,111.6792,280.3906,107.6792,276.3906" style="stroke:#181818;stroke-width:1.0;"/><line style="stroke:#181818;stroke-width:1.0;" x1="105.6792" x2="823.3086" y1="276.3906" y2="276.3906"/><text fill="#000000" font-family="sans-serif" font-size="13" lengthAdjust="spacing" textLength="143.457" x="117.6792" y="271.3247">Event GetSessions [  ]</text><polygon fill="#181818" points="812.3086,301.5234,822.3086,305.5234,812.3086,309.5234,816.3086,305.5234" style="stroke:#181818;stroke-width:1.0;"/><line style="stroke:#181818;stroke-width:1.0;" x1="410.8545" x2="818.3086" y1="305.5234" y2="305.5234"/><text fill="#000000" font-family="sans-serif" font-size="13" lengthAdjust="spacing" textLength="204.5977" x="417.8545" y="300.4575">Ouvrir la connexion WebSocket</text><polygon fill="#181818" points="812.3086,330.6563,822.3086,334.6563,812.3086,338.6563,816.3086,334.6563" style="stroke:#181818;stroke-width:1.0;"/><line style="stroke:#181818;stroke-width:1.0;" x1="410.8545" x2="818.3086" y1="334.6563" y2="334.6563"/><text fill="#000000" font-family="sans-serif" font-size="13" lengthAdjust="spacing" textLength="224.9546" x="417.8545" y="329.5903">Action Init, client_id = EUtqpL7GjC</text><polygon fill="#181818" points="812.3086,359.7891,822.3086,363.7891,812.3086,367.7891,816.3086,363.7891" style="stroke:#181818;stroke-width:1.0;"/><line style="stroke:#181818;stroke-width:1.0;" x1="410.8545" x2="818.3086" y1="363.7891" y2="363.7891"/><text fill="#000000" font-family="sans-serif" font-size="13" lengthAdjust="spacing" textLength="208.3491" x="417.8545" y="358.7231">Action StartSession "PRG2 Jack"</text><line style="stroke:#181818;stroke-width:1.0;" x1="824.3086" x2="866.3086" y1="423.1875" y2="423.1875"/><line style="stroke:#181818;stroke-width:1.0;" x1="866.3086" x2="866.3086" y1="423.1875" y2="436.1875"/><line style="stroke:#181818;stroke-width:1.0;" x1="825.3086" x2="866.3086" y1="436.1875" y2="436.1875"/><polygon fill="#181818" points="835.3086,432.1875,825.3086,436.1875,835.3086,440.1875,831.3086,436.1875" style="stroke:#181818;stroke-width:1.0;"/><text fill="#000000" font-family="sans-serif" font-size="13" lengthAdjust="spacing" textLength="155.7207" x="831.3086" y="387.856">G&#233;n&#233;ration stop_secret,</text><text fill="#000000" font-family="sans-serif" font-size="13" lengthAdjust="spacing" textLength="128.7368" x="831.3086" y="402.9888">sauvegarde session</text><text fill="#000000" font-family="sans-serif" font-size="13" lengthAdjust="spacing" textLength="78.603" x="831.3086" y="418.1216">en m&#233;moire</text><polygon fill="#181818" points="421.8545,461.3203,411.8545,465.3203,421.8545,469.3203,417.8545,465.3203" style="stroke:#181818;stroke-width:1.0;"/><line style="stroke:#181818;stroke-width:1.0;" x1="415.8545" x2="823.3086" y1="465.3203" y2="465.3203"/><text fill="#000000" font-family="sans-serif" font-size="13" lengthAdjust="spacing" textLength="389.4541" x="427.8545" y="460.2544">Event SessionStarted "PRG2 Jack" stop_secret=ynDju7kQse</text><line style="stroke:#181818;stroke-width:1.0;" x1="410.8545" x2="452.8545" y1="494.4531" y2="494.4531"/><line style="stroke:#181818;stroke-width:1.0;" x1="452.8545" x2="452.8545" y1="494.4531" y2="507.4531"/><line style="stroke:#181818;stroke-width:1.0;" x1="411.8545" x2="452.8545" y1="507.4531" y2="507.4531"/><polygon fill="#181818" points="421.8545,503.4531,411.8545,507.4531,421.8545,511.4531,417.8545,507.4531" style="stroke:#181818;stroke-width:1.0;"/><text fill="#000000" font-family="sans-serif" font-size="13" lengthAdjust="spacing" textLength="151.5884" x="417.8545" y="489.3872">Persister le stop_secret</text><polygon fill="#181818" points="812.3086,532.5859,822.3086,536.5859,812.3086,540.5859,816.3086,536.5859" style="stroke:#181818;stroke-width:1.0;"/><line style="stroke:#181818;stroke-width:1.0;" x1="100.6792" x2="818.3086" y1="536.5859" y2="536.5859"/><text fill="#000000" font-family="sans-serif" font-size="13" lengthAdjust="spacing" textLength="317.9351" x="107.6792" y="531.52">Action GetSessions https://github.com/prg2/prg2</text><polygon fill="#181818" points="111.6792,561.7188,101.6792,565.7188,111.6792,569.7188,107.6792,565.7188" style="stroke:#181818;stroke-width:1.0;"/><line style="stroke:#181818;stroke-width:1.0;" x1="105.6792" x2="823.3086" y1="565.7188" y2="565.7188"/><text fill="#000000" font-family="sans-serif" font-size="13" lengthAdjust="spacing" textLength="221.2412" x="117.6792" y="560.6528">Event GetSessions [ "PRG2 Jack" ]</text><polygon fill="#181818" points="812.3086,590.8516,822.3086,594.8516,812.3086,598.8516,816.3086,594.8516" style="stroke:#181818;stroke-width:1.0;"/><line style="stroke:#181818;stroke-width:1.0;" x1="100.6792" x2="818.3086" y1="594.8516" y2="594.8516"/><text fill="#000000" font-family="sans-serif" font-size="13" lengthAdjust="spacing" textLength="393.5483" x="107.6792" y="589.7856">Action JoinSession https://github.com/prg2/prg2 "PRG2 Jack"</text><polygon fill="#181818" points="111.6792,619.9844,101.6792,623.9844,111.6792,627.9844,107.6792,623.9844" style="stroke:#181818;stroke-width:1.0;"/><line style="stroke:#181818;stroke-width:1.0;" x1="105.6792" x2="823.3086" y1="623.9844" y2="623.9844"/><text fill="#000000" font-family="sans-serif" font-size="13" lengthAdjust="spacing" textLength="130.8633" x="117.6792" y="618.9185">Event SessionJoined</text><path d="M30,636.9844 L30,661.9844 L893,661.9844 L893,646.9844 L883,636.9844 L30,636.9844 " fill="#FEFFDD" style="stroke:#181818;stroke-width:0.5;"/><path d="M883,636.9844 L883,646.9844 L893,646.9844 L883,636.9844 " fill="#FEFFDD" style="stroke:#181818;stroke-width:0.5;"/><text fill="#000000" font-family="sans-serif" font-size="13" lengthAdjust="spacing" textLength="181.9746" x="366.4336" y="654.0513">D&#233;roulement d'une session.</text><polygon fill="#181818" points="812.3086,684.25,822.3086,688.25,812.3086,692.25,816.3086,688.25" style="stroke:#181818;stroke-width:1.0;"/><line style="stroke:#181818;stroke-width:1.0;" x1="410.8545" x2="818.3086" y1="688.25" y2="688.25"/><text fill="#000000" font-family="sans-serif" font-size="13" lengthAdjust="spacing" textLength="292.7856" x="417.8545" y="683.1841">Action StopSession stop_secret=ynDju7kQse</text><polygon fill="#181818" points="421.8545,713.3828,411.8545,717.3828,421.8545,721.3828,417.8545,717.3828" style="stroke:#181818;stroke-width:1.0;"/><line style="stroke:#181818;stroke-width:1.0;" x1="415.8545" x2="823.3086" y1="717.3828" y2="717.3828"/><text fill="#000000" font-family="sans-serif" font-size="13" lengthAdjust="spacing" textLength="145.0313" x="427.8545" y="712.3169">Event SessionStopped</text><polygon fill="#181818" points="421.8545,742.5156,411.8545,746.5156,421.8545,750.5156,417.8545,746.5156" style="stroke:#181818;stroke-width:1.0;"/><line style="stroke:#181818;stroke-width:1.0;" x1="415.8545" x2="823.3086" y1="746.5156" y2="746.5156"/><text fill="#000000" font-family="sans-serif" font-size="13" lengthAdjust="spacing" textLength="175.4619" x="427.8545" y="741.4497">Fermeture de la connexion</text><polygon fill="#181818" points="111.6792,771.6484,101.6792,775.6484,111.6792,779.6484,107.6792,775.6484" style="stroke:#181818;stroke-width:1.0;"/><line style="stroke:#181818;stroke-width:1.0;" x1="105.6792" x2="823.3086" y1="775.6484" y2="775.6484"/><text fill="#000000" font-family="sans-serif" font-size="13" lengthAdjust="spacing" textLength="145.0313" x="117.6792" y="770.5825">Event SessionStopped</text><polygon fill="#181818" points="111.6792,800.7813,101.6792,804.7813,111.6792,808.7813,107.6792,804.7813" style="stroke:#181818;stroke-width:1.0;"/><line style="stroke:#181818;stroke-width:1.0;" x1="105.6792" x2="823.3086" y1="804.7813" y2="804.7813"/><text fill="#000000" font-family="sans-serif" font-size="13" lengthAdjust="spacing" textLength="175.4619" x="117.6792" y="799.7153">Fermeture de la connexion</text><!--SRC=[lLRRJYD747sVhoZnuWrop48YeQ10nC8k0g4iMHGbKbYXzapPRZpJFVJ5uB_9OxmF-OdviLHrzzXZMCC-nG_skAVhrAbJfoyJMI2Cj7P3_PXbJheIuGojare1lR5eBJrQAEKCiwmMnibSra8vs3ef9TBlrUMVy46NfNv00z_3XI-bs09X2JKEReowH574695FGqWPHjO3hj7Cq1kE27Ci_pTPreDtED86iz4o-T4ovm6SDGlLB0mDeuCQZPNMqPyyfB-L1HmUmVuKVphUFI-cqwnCN8uIXsy3UF-xkwylzy_kJfZFKWMff0EX2XWZ_m9MjPkJXDQ17YqrNICUgpg0Ztvcf85IGAwLmaVkmnyulDRv5DrN8uxpqAnpojc7scYdSrtUpfWm3H_2sy7ku6s_oxjRzmk8P-Yks_PFdAljmSxEMBg97mvoNUtKPhmNlh8Ojox_-nbtkGln5y1dLYaDG6vGS9wEzDycmlFvQn9q2-tqPsFKjIEtjQIshZwTxKK_Tifg8v8b0csmJjUt5gaCrxzHLlWPZeLPhPaRXGggPb5fIIPTWRN-YWgbn8445jtytGI7StLwv_UdlrdyYbElbkQanTk9MlFadPRgV-rsjvJFBsM-86Qj_Yzbtj2SfomI5ADYaMLAEmJDSzk9_IM1KsgczYLM75Vql5esR_2INtJTqjtGebURhUkQk3sVzW5DXSuRvBstQ__NwtqEkfgu6POSSknpBjpWlM- -a5RqN6ZQl-WF1Q2QwNcpG10ptetBdkYkDVPRsfu53D6Ivfo2yKNpByTxcdfAt_BU4wvFgtC09sZfXULKeGg3mS2iPVEFuxmSJVWnWFVWb8dQ9nKna2MF269QQr9WI7EBdgnuf-Ro3ATEsQZAIwIr-AN2plP0XTResqAzaxH1DmkmL4nTUYif5vqsOS-XtsP1frApi07B9XYRG4894ITecxi4rB4KD7-pzYCjxI10L3GknlIWUfh2XLHMGaqdN2jaJwg2TGixOOj2-3aQsePmJVwAmbrGYbDMeWvzMDRAnq4BqMSnQM_Y8bDzyVrg-YzFgmmCdt2ZmxVYbddUT-XBwQeFTvxw6DPIf-_tNdOzbGvJaaYCec6ihsjjN6oQmO9sJM4CYREoJBWnQ0_Hgqi7Ss_JmXG47TrfmOafxxxQkd8Emtd2wCEG-ftJaYz0b5PJDU0cIKG-sZLPQvo6ejnYvCA1pi0pIQUuDiJ9y3GxyQxG3u52N8hCW8nS4mCIp-cMJf_lBKWfvcx2aTBIm5pb4wELzcmfVAGx0hLpwOcBwu-_ah63jXRsWCKMplA2VNekmG5iRv_mQOhRsxGEKqjl5Bp9Is4jX1kKYQVdTniHtf7RA3uK7n6e00AX-ylvLRZD2E0cmHiSZ0Umk_V3Zm6irBg6qoY92FV4LZnwoP_KFygMdbxbcvW-3U-M6rSPyzNT5XA8N_OmqGwacMu2N5NVuNESvrYxL7zQmzp_840HBojaBrhl3stOYZVx10pDqrN8jfxev_LCdsYl3vWFHWO52k44eumCdNPjEV6g4t46Wy6BMf1jyHbpDfKgDlkb4nIJ_GS0]--></g></svg>