<svg xmlns="http://www.w3.org/2000/svg" xmlns:xlink="http://www.w3.org/1999/xlink" contentStyleType="text/css" height="843px" preserveAspectRatio="none" style="width:1007px;height:843px;background:#FFFFFF;" version="1.1" viewBox="0 0 1007 843" width="1007px" zoomAndPan="magnify"><defs/><g><line style="stroke:#181818;stroke-width:0.5;stroke-dasharray:5.0,5.0;" x1="96" x2="96" y1="38.625" y2="836.2344"/><line style="stroke:#181818;stroke-width:0.5;stroke-dasharray:5.0,5.0;" x1="559.1851" x2="559.1851" y1="38.625" y2="836.2344"/><line style="stroke:#181818;stroke-width:0.5;stroke-dasharray:5.0,5.0;" x1="910.8184" x2="910.8184" y1="38.625" y2="836.2344"/><rect fill="#E2E2F0" height="32.625" rx="2.5" ry="2.5" style="stroke:#181818;stroke-width:0.5;" width="182.0859" x="5" y="5"/><text fill="#000000" font-family="sans-serif" font-size="16" lengthAdjust="spacing" textLength="168.0859" x="12" y="26.8516">Client Follower - Julia</text><rect fill="#E2E2F0" height="32.625" rx="2.5" ry="2.5" style="stroke:#181818;stroke-width:0.5;" width="205.1641" x="457.1851" y="5"/><text fill="#000000" font-family="sans-serif" font-size="16" lengthAdjust="spacing" textLength="191.1641" x="464.1851" y="26.8516">Serveur live.plx.rs:9120</text><rect fill="#E2E2F0" height="32.625" rx="2.5" ry="2.5" style="stroke:#181818;stroke-width:0.5;" width="169.0781" x="826.8184" y="5"/><text fill="#000000" font-family="sans-serif" font-size="16" lengthAdjust="spacing" textLength="155.0781" x="833.8184" y="26.8516">Client Leader - Jack</text><line style="stroke:#181818;stroke-width:1.0;" x1="96.043" x2="138.043" y1="89.5469" y2="89.5469"/><line style="stroke:#181818;stroke-width:1.0;" x1="138.043" x2="138.043" y1="89.5469" y2="102.5469"/><line style="stroke:#181818;stroke-width:1.0;" x1="97.043" x2="138.043" y1="102.5469" y2="102.5469"/><polygon fill="#181818" points="107.043,98.5469,97.043,102.5469,107.043,106.5469,103.043,102.5469" style="stroke:#181818;stroke-width:1.0;"/><text fill="#000000" font-family="sans-serif" font-size="15" lengthAdjust="spacing" textLength="151.7871" x="103.043" y="66.5483">G&#233;n&#233;rer et persister</text><text fill="#000000" font-family="sans-serif" font-size="15" lengthAdjust="spacing" textLength="416.1914" x="103.043" y="84.0093">client_id =&gt; e9fc3566-32e3-4b98-99b5-35be520d46cb</text><line style="stroke:#181818;stroke-width:1.0;" x1="869.3574" x2="910.3574" y1="151.4688" y2="151.4688"/><line style="stroke:#181818;stroke-width:1.0;" x1="869.3574" x2="869.3574" y1="151.4688" y2="164.4688"/><line style="stroke:#181818;stroke-width:1.0;" x1="869.3574" x2="909.3574" y1="164.4688" y2="164.4688"/><polygon fill="#181818" points="899.3574,160.4688,909.3574,164.4688,899.3574,168.4688,903.3574,164.4688" style="stroke:#181818;stroke-width:1.0;"/><text fill="#000000" font-family="sans-serif" font-size="15" lengthAdjust="spacing" textLength="248.8477" x="599.6553" y="128.4702">G&#233;n&#233;rer et persister client_id =&gt;</text><text fill="#000000" font-family="sans-serif" font-size="15" lengthAdjust="spacing" textLength="304.7021" x="599.6553" y="145.9312">ae9b8213-fcf6-40c8-8f35-b6d14f0ace75</text><polygon fill="#181818" points="547.7671,226.8516,557.7671,230.8516,547.7671,234.8516,551.7671,230.8516" style="stroke:#181818;stroke-width:1.0;"/><line style="stroke:#181818;stroke-width:1.0;" x1="96.043" x2="553.7671" y1="230.8516" y2="230.8516"/><text fill="#000000" font-family="sans-serif" font-size="15" lengthAdjust="spacing" textLength="385.4883" x="103.043" y="190.3921">Ouvrir la connexion (TCP + WebSocket handshake)</text><text fill="#000000" font-family="sans-serif" font-size="15" lengthAdjust="spacing" textLength="367.5879" x="103.043" y="207.853">ws://live.plx.rs:9120?live_protocol_version=0.1.0</text><text fill="#000000" font-family="sans-serif" font-size="15" lengthAdjust="spacing" textLength="439.7241" x="103.043" y="225.314">&amp;live_client_id=e9fc3566-32e3-4b98-99b5-35be520d46cb</text><polygon fill="#181818" points="547.7671,275.7734,557.7671,279.7734,547.7671,283.7734,551.7671,279.7734" style="stroke:#181818;stroke-width:1.0;"/><line style="stroke:#181818;stroke-width:1.0;" x1="96.043" x2="553.7671" y1="279.7734" y2="279.7734"/><text fill="#000000" font-family="sans-serif" font-size="15" lengthAdjust="spacing" textLength="143.7891" x="103.043" y="256.7749">Action GetSessions</text><text fill="#000000" font-family="sans-serif" font-size="15" lengthAdjust="spacing" textLength="320.2808" x="103.043" y="274.2358">group_id=https://github.com/prg2/prg2.git</text><polygon fill="#181818" points="107.043,307.2344,97.043,311.2344,107.043,315.2344,103.043,311.2344" style="stroke:#181818;stroke-width:1.0;"/><line style="stroke:#181818;stroke-width:1.0;" x1="101.043" x2="558.7671" y1="311.2344" y2="311.2344"/><text fill="#000000" font-family="sans-serif" font-size="15" lengthAdjust="spacing" textLength="165.0146" x="113.043" y="305.6968">Event SessionsList [  ]</text><polygon fill="#181818" points="570.7671,338.6953,560.7671,342.6953,570.7671,346.6953,566.7671,342.6953" style="stroke:#181818;stroke-width:1.0;"/><line style="stroke:#181818;stroke-width:1.0;" x1="564.7671" x2="910.3574" y1="342.6953" y2="342.6953"/><text fill="#000000" font-family="sans-serif" font-size="15" lengthAdjust="spacing" textLength="177.7588" x="576.7671" y="337.1577">Ouvrir la connexion (...)</text><polygon fill="#181818" points="570.7671,370.1563,560.7671,374.1563,570.7671,378.1563,566.7671,374.1563" style="stroke:#181818;stroke-width:1.0;"/><line style="stroke:#181818;stroke-width:1.0;" x1="564.7671" x2="910.3574" y1="374.1563" y2="374.1563"/><text fill="#000000" font-family="sans-serif" font-size="15" lengthAdjust="spacing" textLength="327.5903" x="576.7671" y="368.6187">Action StartSession "PRG2 Jack" + group_id</text><polygon fill="#181818" points="899.3574,401.6172,909.3574,405.6172,899.3574,409.6172,903.3574,405.6172" style="stroke:#181818;stroke-width:1.0;"/><line style="stroke:#181818;stroke-width:1.0;" x1="559.7671" x2="905.3574" y1="405.6172" y2="405.6172"/><text fill="#000000" font-family="sans-serif" font-size="15" lengthAdjust="spacing" textLength="260.2002" x="566.7671" y="400.0796">Event SessionJoined client_num=0</text><polygon fill="#181818" points="547.7671,433.0781,557.7671,437.0781,547.7671,441.0781,551.7671,437.0781" style="stroke:#181818;stroke-width:1.0;"/><line style="stroke:#181818;stroke-width:1.0;" x1="96.043" x2="553.7671" y1="437.0781" y2="437.0781"/><text fill="#000000" font-family="sans-serif" font-size="15" lengthAdjust="spacing" textLength="391.1865" x="103.043" y="431.5405">Action GetSessions https://github.com/prg2/prg2.git</text><polygon fill="#181818" points="107.043,464.5391,97.043,468.5391,107.043,472.5391,103.043,468.5391" style="stroke:#181818;stroke-width:1.0;"/><line style="stroke:#181818;stroke-width:1.0;" x1="101.043" x2="558.7671" y1="468.5391" y2="468.5391"/><text fill="#000000" font-family="sans-serif" font-size="15" lengthAdjust="spacing" textLength="254.7656" x="113.043" y="463.0015">Event SessionsList [ "PRG2 Jack" ]</text><polygon fill="#181818" points="547.7671,513.4609,557.7671,517.4609,547.7671,521.4609,551.7671,517.4609" style="stroke:#181818;stroke-width:1.0;"/><line style="stroke:#181818;stroke-width:1.0;" x1="96.043" x2="553.7671" y1="517.4609" y2="517.4609"/><text fill="#000000" font-family="sans-serif" font-size="15" lengthAdjust="spacing" textLength="136.5161" x="103.043" y="494.4624">Action JoinSession</text><text fill="#000000" font-family="sans-serif" font-size="15" lengthAdjust="spacing" textLength="337.1484" x="103.043" y="511.9233">https://github.com/prg2/prg2.git "PRG2 Jack"</text><polygon fill="#181818" points="107.043,544.9219,97.043,548.9219,107.043,552.9219,103.043,548.9219" style="stroke:#181818;stroke-width:1.0;"/><line style="stroke:#181818;stroke-width:1.0;" x1="101.043" x2="558.7671" y1="548.9219" y2="548.9219"/><text fill="#000000" font-family="sans-serif" font-size="15" lengthAdjust="spacing" textLength="260.2002" x="113.043" y="543.3843">Event SessionJoined client_num=1</text><polygon fill="#181818" points="899.3574,593.8438,909.3574,597.8438,899.3574,601.8438,903.3574,597.8438" style="stroke:#181818;stroke-width:1.0;"/><line style="stroke:#181818;stroke-width:1.0;" x1="559.7671" x2="905.3574" y1="597.8438" y2="597.8438"/><text fill="#000000" font-family="sans-serif" font-size="15" lengthAdjust="spacing" textLength="86.0303" x="566.7671" y="574.8452">Event Stats</text><text fill="#000000" font-family="sans-serif" font-size="15" lengthAdjust="spacing" textLength="271.3989" x="566.7671" y="592.3062">followers_count=1 leaders_count=1</text><rect fill="#EEEEEE" height="3" style="stroke:#EEEEEE;stroke-width:1.0;" width="1000.8965" x="0" y="628.1563"/><line style="stroke:#000000;stroke-width:1.0;" x1="0" x2="1000.8965" y1="628.1563" y2="628.1563"/><line style="stroke:#000000;stroke-width:1.0;" x1="0" x2="1000.8965" y1="631.1563" y2="631.1563"/><rect fill="#EEEEEE" height="26.625" style="stroke:#000000;stroke-width:2.0;" width="298" x="351.4482" y="615.8438"/><text fill="#000000" font-family="sans-serif" font-size="16" font-weight="bold" lengthAdjust="spacing" textLength="284" x="357.4482" y="634.6953">D&#233;roulement de l'entrainement</text><polygon fill="#181818" points="570.7671,671.9297,560.7671,675.9297,570.7671,679.9297,566.7671,675.9297" style="stroke:#181818;stroke-width:1.0;"/><line style="stroke:#181818;stroke-width:1.0;" x1="564.7671" x2="910.3574" y1="675.9297" y2="675.9297"/><text fill="#000000" font-family="sans-serif" font-size="15" lengthAdjust="spacing" textLength="143.3423" x="576.7671" y="670.3921">Action StopSession</text><line style="stroke:#181818;stroke-width:1.0;" x1="559.7671" x2="601.7671" y1="742.3125" y2="742.3125"/><line style="stroke:#181818;stroke-width:1.0;" x1="601.7671" x2="601.7671" y1="742.3125" y2="755.3125"/><line style="stroke:#181818;stroke-width:1.0;" x1="560.7671" x2="601.7671" y1="755.3125" y2="755.3125"/><polygon fill="#181818" points="570.7671,751.3125,560.7671,755.3125,570.7671,759.3125,566.7671,755.3125" style="stroke:#181818;stroke-width:1.0;"/><text fill="#000000" font-family="sans-serif" font-size="15" lengthAdjust="spacing" textLength="182.6001" x="566.7671" y="701.853">V&#233;rification que le client</text><text fill="#000000" font-family="sans-serif" font-size="15" lengthAdjust="spacing" textLength="146.6675" x="566.7671" y="719.314">est bien le cr&#233;ateur</text><text fill="#000000" font-family="sans-serif" font-size="15" lengthAdjust="spacing" textLength="97.1704" x="566.7671" y="736.7749">de la session</text><polygon fill="#181818" points="899.3574,782.7734,909.3574,786.7734,899.3574,790.7734,903.3574,786.7734" style="stroke:#181818;stroke-width:1.0;"/><line style="stroke:#181818;stroke-width:1.0;" x1="559.7671" x2="905.3574" y1="786.7734" y2="786.7734"/><text fill="#000000" font-family="sans-serif" font-size="15" lengthAdjust="spacing" textLength="167.3438" x="566.7671" y="781.2358">Event SessionStopped</text><polygon fill="#181818" points="107.043,814.2344,97.043,818.2344,107.043,822.2344,103.043,818.2344" style="stroke:#181818;stroke-width:1.0;"/><line style="stroke:#181818;stroke-width:1.0;" x1="101.043" x2="558.7671" y1="818.2344" y2="818.2344"/><text fill="#000000" font-family="sans-serif" font-size="15" lengthAdjust="spacing" textLength="167.3438" x="113.043" y="812.6968">Event SessionStopped</text><!--SRC=[hLHTRzCm57tFhxZiWJ5DoPf-qLPa20QhD4rYeWWUo5Gvparhcjh1Thh1Fzhls1_ZEasg5hPr3_IXJQwlppdt-BXpaI9aIjb4tNfc8MJ1D5j2YXahStkkf9s8tmXXt_DenGek2YOj79pb0kdtNEMvka4DFboKkM07m0p1hOkxEoQeLrXgoCKAWoA_3RGP3SDsgzfYtA9-aE8IMRecO7nHDUTLvIcrFSyxXFUOAOrUjf5ukb4sWl7zdRo_qrH62mLg8un57KjUaKv52j4fu33ZdLw_xtVQsF6xoN3W3uT9p-_q4korMsctpnDlhGRU-BMknx1X6pgM38V9e1rs_8ndVR_RuWD_a7LwVj9FmsxMOXnVLrDi79uH69E0oyB-8XED1PMHRyO89StEb6ipH_2fN6b1XZFWIagyfKPuzUNi2exX6oOJnHS4EMSoDNEsmADOtfZHoSdVv_FM5QQ5LbPnbKzNRXuberOG1grOlgnMDwD5pxBi8R7lk7NwncWdzKond6bL5WvrRctXjCs4dPT9mDNofD2pTlKLKD5Re-mUySULYq-3TkaS-mvmxKojYy0rCaVR7E8-yu8WE7gWjzO-iHJV1lhWwlEuNMVs69f9jeGsQTcHUQ64nBI9YYoNKOlaCclfbPP7K53-wSOIbJL0LmLUx8Ja1-r_fhtm_qpTdlNwANetNhqtbllujs7tQ_dNkV1nivrxiMoGp9IhKjeehDisxvuNkGzyeDkioXoNRZEvdn_IWsP4M5MYwAbCgA9Mk2MdQVfAm28Jl0eX_2m96kiHOedaRKAFLKtVtp5BVv-nTFoikVZxykJe2qptszSq_W40]--></g></svg>