<svg xmlns="http://www.w3.org/2000/svg" xmlns:xlink="http://www.w3.org/1999/xlink" contentStyleType="text/css" height="520px" preserveAspectRatio="none" style="width:667px;height:520px;background:#FFFFFF;" version="1.1" viewBox="0 0 667 520" width="667px" zoomAndPan="magnify"><defs/><g><line style="stroke:#181818;stroke-width:0.5;stroke-dasharray:5.0,5.0;" x1="28" x2="28" y1="38.625" y2="513.2422"/><line style="stroke:#181818;stroke-width:0.5;stroke-dasharray:5.0,5.0;" x1="239.4609" x2="239.4609" y1="38.625" y2="513.2422"/><line style="stroke:#181818;stroke-width:0.5;stroke-dasharray:5.0,5.0;" x1="451.0156" x2="451.0156" y1="38.625" y2="513.2422"/><line style="stroke:#181818;stroke-width:0.5;stroke-dasharray:5.0,5.0;" x1="526.6016" x2="526.6016" y1="38.625" y2="513.2422"/><line style="stroke:#181818;stroke-width:0.5;stroke-dasharray:5.0,5.0;" x1="617.4141" x2="617.4141" y1="38.625" y2="513.2422"/><rect fill="#E2E2F0" height="32.625" rx="2.5" ry="2.5" style="stroke:#181818;stroke-width:0.5;" width="47.5547" x="5" y="5"/><text fill="#000000" font-family="sans-serif" font-size="16" lengthAdjust="spacing" textLength="33.5547" x="12" y="26.8516">Julia</text><rect fill="#E2E2F0" height="32.625" rx="2.5" ry="2.5" style="stroke:#181818;stroke-width:0.5;" width="205.1641" x="137.4609" y="5"/><text fill="#000000" font-family="sans-serif" font-size="16" lengthAdjust="spacing" textLength="191.1641" x="144.4609" y="26.8516">Serveur live.plx.rs:9120</text><rect fill="#E2E2F0" height="32.625" rx="2.5" ry="2.5" style="stroke:#181818;stroke-width:0.5;" width="46.5859" x="428.0156" y="5"/><text fill="#000000" font-family="sans-serif" font-size="16" lengthAdjust="spacing" textLength="32.5859" x="435.0156" y="26.8516">Jack</text><rect fill="#E2E2F0" height="32.625" rx="2.5" ry="2.5" style="stroke:#181818;stroke-width:0.5;" width="84.8125" x="484.6016" y="5"/><text fill="#000000" font-family="sans-serif" font-size="16" lengthAdjust="spacing" textLength="70.8125" x="491.6016" y="26.8516">Jonathan</text><rect fill="#E2E2F0" height="32.625" rx="2.5" ry="2.5" style="stroke:#181818;stroke-width:0.5;" width="76.3281" x="579.4141" y="5"/><text fill="#000000" font-family="sans-serif" font-size="16" lengthAdjust="spacing" textLength="62.3281" x="586.4141" y="26.8516">M&#233;lanie</text><rect fill="#EEEEEE" height="3" style="stroke:#EEEEEE;stroke-width:1.0;" width="660.7422" x="0" y="79.668"/><line style="stroke:#000000;stroke-width:1.0;" x1="0" x2="660.7422" y1="79.668" y2="79.668"/><line style="stroke:#000000;stroke-width:1.0;" x1="0" x2="660.7422" y1="82.668" y2="82.668"/><rect fill="#EEEEEE" height="44.0859" style="stroke:#000000;stroke-width:2.0;" width="528.7827" x="65.9797" y="58.625"/><text fill="#000000" font-family="sans-serif" font-size="16" font-weight="bold" lengthAdjust="spacing" textLength="485.3125" x="71.9797" y="77.4766">D&#233;marrage d'une session avec Julia, Jack et Jonathan.</text><text fill="#000000" font-family="sans-serif" font-size="15" font-weight="bold" lengthAdjust="spacing" textLength="509.5605" x="71.9797" y="95.1733">M&#233;lanie est juste connect&#233;e mais n'a pas rejoint de session.</text><line style="stroke:#181818;stroke-width:1.0;" x1="240.043" x2="282.043" y1="136.1719" y2="136.1719"/><line style="stroke:#181818;stroke-width:1.0;" x1="282.043" x2="282.043" y1="136.1719" y2="149.1719"/><line style="stroke:#181818;stroke-width:1.0;" x1="241.043" x2="282.043" y1="149.1719" y2="149.1719"/><polygon fill="#181818" points="251.043,145.1719,241.043,149.1719,251.043,153.1719,247.043,149.1719" style="stroke:#181818;stroke-width:1.0;"/><text fill="#000000" font-family="sans-serif" font-size="15" lengthAdjust="spacing" textLength="179.5679" x="247.043" y="130.6343">R&#233;ception signal d'arr&#234;t</text><polygon fill="#181818" points="39.7773,176.6328,29.7773,180.6328,39.7773,184.6328,35.7773,180.6328" style="stroke:#181818;stroke-width:1.0;"/><line style="stroke:#181818;stroke-width:1.0;" x1="33.7773" x2="239.043" y1="180.6328" y2="180.6328"/><text fill="#000000" font-family="sans-serif" font-size="15" lengthAdjust="spacing" textLength="167.3438" x="45.7773" y="175.0952">Event SessionStopped</text><polygon fill="#181818" points="39.7773,208.0938,29.7773,212.0938,39.7773,216.0938,35.7773,212.0938" style="stroke:#181818;stroke-width:1.0;"/><line style="stroke:#181818;stroke-width:1.0;" x1="33.7773" x2="239.043" y1="212.0938" y2="212.0938"/><text fill="#000000" font-family="sans-serif" font-size="15" lengthAdjust="spacing" textLength="159.3018" x="45.7773" y="206.5562">Event ServerStopped</text><polygon fill="#181818" points="39.7773,239.5547,29.7773,243.5547,39.7773,247.5547,35.7773,243.5547" style="stroke:#181818;stroke-width:1.0;"/><line style="stroke:#181818;stroke-width:1.0;" x1="33.7773" x2="239.043" y1="243.5547" y2="243.5547"/><text fill="#000000" font-family="sans-serif" font-size="15" lengthAdjust="spacing" textLength="187.2656" x="45.7773" y="238.0171">Fermeture du websocket</text><polygon fill="#181818" points="439.3086,271.0156,449.3086,275.0156,439.3086,279.0156,443.3086,275.0156" style="stroke:#181818;stroke-width:1.0;"/><line style="stroke:#181818;stroke-width:1.0;" x1="240.043" x2="445.3086" y1="275.0156" y2="275.0156"/><text fill="#000000" font-family="sans-serif" font-size="15" lengthAdjust="spacing" textLength="167.3438" x="247.043" y="269.478">Event SessionStopped</text><polygon fill="#181818" points="439.3086,302.4766,449.3086,306.4766,439.3086,310.4766,443.3086,306.4766" style="stroke:#181818;stroke-width:1.0;"/><line style="stroke:#181818;stroke-width:1.0;" x1="240.043" x2="445.3086" y1="306.4766" y2="306.4766"/><text fill="#000000" font-family="sans-serif" font-size="15" lengthAdjust="spacing" textLength="159.3018" x="247.043" y="300.939">Event ServerStopped</text><polygon fill="#181818" points="439.3086,333.9375,449.3086,337.9375,439.3086,341.9375,443.3086,337.9375" style="stroke:#181818;stroke-width:1.0;"/><line style="stroke:#181818;stroke-width:1.0;" x1="240.043" x2="445.3086" y1="337.9375" y2="337.9375"/><text fill="#000000" font-family="sans-serif" font-size="15" lengthAdjust="spacing" textLength="187.2656" x="247.043" y="332.3999">Fermeture du websocket</text><polygon fill="#181818" points="515.0078,365.3984,525.0078,369.3984,515.0078,373.3984,519.0078,369.3984" style="stroke:#181818;stroke-width:1.0;"/><line style="stroke:#181818;stroke-width:1.0;" x1="240.043" x2="521.0078" y1="369.3984" y2="369.3984"/><text fill="#000000" font-family="sans-serif" font-size="15" lengthAdjust="spacing" textLength="167.3438" x="247.043" y="363.8608">Event SessionStopped</text><polygon fill="#181818" points="515.0078,396.8594,525.0078,400.8594,515.0078,404.8594,519.0078,400.8594" style="stroke:#181818;stroke-width:1.0;"/><line style="stroke:#181818;stroke-width:1.0;" x1="240.043" x2="521.0078" y1="400.8594" y2="400.8594"/><text fill="#000000" font-family="sans-serif" font-size="15" lengthAdjust="spacing" textLength="159.3018" x="247.043" y="395.3218">Event ServerStopped</text><polygon fill="#181818" points="515.0078,428.3203,525.0078,432.3203,515.0078,436.3203,519.0078,432.3203" style="stroke:#181818;stroke-width:1.0;"/><line style="stroke:#181818;stroke-width:1.0;" x1="240.043" x2="521.0078" y1="432.3203" y2="432.3203"/><text fill="#000000" font-family="sans-serif" font-size="15" lengthAdjust="spacing" textLength="187.2656" x="247.043" y="426.7827">Fermeture du websocket</text><polygon fill="#181818" points="605.5781,459.7813,615.5781,463.7813,605.5781,467.7813,609.5781,463.7813" style="stroke:#181818;stroke-width:1.0;"/><line style="stroke:#181818;stroke-width:1.0;" x1="240.043" x2="611.5781" y1="463.7813" y2="463.7813"/><text fill="#000000" font-family="sans-serif" font-size="15" lengthAdjust="spacing" textLength="159.3018" x="247.043" y="458.2437">Event ServerStopped</text><polygon fill="#181818" points="605.5781,491.2422,615.5781,495.2422,605.5781,499.2422,609.5781,495.2422" style="stroke:#181818;stroke-width:1.0;"/><line style="stroke:#181818;stroke-width:1.0;" x1="240.043" x2="611.5781" y1="495.2422" y2="495.2422"/><text fill="#000000" font-family="sans-serif" font-size="15" lengthAdjust="spacing" textLength="187.2656" x="247.043" y="489.7046">Fermeture du websocket</text><!--SRC=[ZP11JiCm44NtESMecsuW8cb0eb9PGHT8RCYMpTIPjcuJsxB7eU96uHgv64v34QqeQPRvN_-zyLeM14kjUQ5taTjAPT1Y1GKjqPSyrufp-K6Gt4LHI5WAQL0nZ9vzAN44w40anqbEjYPlePGrnQRSnTPDxvFqPbzsNMXFfb1i-wNq9D0AUOsg3xFZyALjIbII-d3od_jj5Csw3nxRfa9hSKLGZBsYeEESr0gm9W7xawwWqm5YED3ZDtLW0Jc6ZNTC8BHI9BXj22gK3jGOmGGJInijWr_nCnx3R1RrTyFrm_SBJE6rRGGPxkXEhXIMGIcujP_ygooIAJpL5FRoVYndRGmLPohTlxyRSx8LiRVXS0_lj71QREc8b0wJqa5IUWaf6oPbWwJi4j9aS6PoTkOB]--></g></svg>