<svg xmlns="http://www.w3.org/2000/svg" xmlns:xlink="http://www.w3.org/1999/xlink" contentStyleType="text/css" height="582px" preserveAspectRatio="none" style="width:985px;height:582px;background:#FFFFFF;" version="1.1" viewBox="0 0 985 582" width="985px" zoomAndPan="magnify"><defs/><g><line style="stroke:#181818;stroke-width:0.5;stroke-dasharray:5.0,5.0;" x1="59" x2="59" y1="38.625" y2="575"/><line style="stroke:#181818;stroke-width:0.5;stroke-dasharray:5.0,5.0;" x1="339.2363" x2="339.2363" y1="38.625" y2="575"/><line style="stroke:#181818;stroke-width:0.5;stroke-dasharray:5.0,5.0;" x1="619.3008" x2="619.3008" y1="38.625" y2="575"/><line style="stroke:#181818;stroke-width:0.5;stroke-dasharray:5.0,5.0;" x1="757.1523" x2="757.1523" y1="38.625" y2="575"/><line style="stroke:#181818;stroke-width:0.5;stroke-dasharray:5.0,5.0;" x1="910.2305" x2="910.2305" y1="38.625" y2="575"/><rect fill="#E2E2F0" height="32.625" rx="2.5" ry="2.5" style="stroke:#181818;stroke-width:0.5;" width="109.8203" x="5" y="5"/><text fill="#000000" font-family="sans-serif" font-size="16" lengthAdjust="spacing" textLength="95.8203" x="12" y="26.8516">Client - Julia</text><rect fill="#E2E2F0" height="32.625" rx="2.5" ry="2.5" style="stroke:#181818;stroke-width:0.5;" width="205.1641" x="237.2363" y="5"/><text fill="#000000" font-family="sans-serif" font-size="16" lengthAdjust="spacing" textLength="191.1641" x="244.2363" y="26.8516">Serveur live.plx.rs:9120</text><rect fill="#E2E2F0" height="32.625" rx="2.5" ry="2.5" style="stroke:#181818;stroke-width:0.5;" width="108.8516" x="565.3008" y="5"/><text fill="#000000" font-family="sans-serif" font-size="16" lengthAdjust="spacing" textLength="94.8516" x="572.3008" y="26.8516">Client - Jack</text><rect fill="#E2E2F0" height="32.625" rx="2.5" ry="2.5" style="stroke:#181818;stroke-width:0.5;" width="147.0781" x="684.1523" y="5"/><text fill="#000000" font-family="sans-serif" font-size="16" lengthAdjust="spacing" textLength="133.0781" x="691.1523" y="26.8516">Client - Jonathan</text><rect fill="#E2E2F0" height="32.625" rx="2.5" ry="2.5" style="stroke:#181818;stroke-width:0.5;" width="138.5938" x="841.2305" y="5"/><text fill="#000000" font-family="sans-serif" font-size="16" lengthAdjust="spacing" textLength="124.5938" x="848.2305" y="26.8516">Client - M&#233;lanie</text><polygon fill="#181818" points="327.8184,68.0859,337.8184,72.0859,327.8184,76.0859,331.8184,72.0859" style="stroke:#181818;stroke-width:1.0;"/><line style="stroke:#181818;stroke-width:1.0;" x1="59.9102" x2="333.8184" y1="72.0859" y2="72.0859"/><text fill="#000000" font-family="sans-serif" font-size="15" lengthAdjust="spacing" textLength="255.9082" x="66.9102" y="66.5483">Se connecte et d&#233;marre session 1</text><polygon fill="#181818" points="350.8184,99.5469,340.8184,103.5469,350.8184,107.5469,346.8184,103.5469" style="stroke:#181818;stroke-width:1.0;"/><line style="stroke:#181818;stroke-width:1.0;" x1="344.8184" x2="618.7266" y1="103.5469" y2="103.5469"/><text fill="#000000" font-family="sans-serif" font-size="15" lengthAdjust="spacing" textLength="255.9082" x="356.8184" y="98.0093">Se connecte et d&#233;marre session 2</text><polygon fill="#181818" points="350.8184,131.0078,340.8184,135.0078,350.8184,139.0078,346.8184,135.0078" style="stroke:#181818;stroke-width:1.0;"/><line style="stroke:#181818;stroke-width:1.0;" x1="344.8184" x2="756.6914" y1="135.0078" y2="135.0078"/><text fill="#000000" font-family="sans-serif" font-size="15" lengthAdjust="spacing" textLength="240.0879" x="356.8184" y="129.4702">Se connecte et rejoint session 2</text><polygon fill="#181818" points="350.8184,162.4688,340.8184,166.4688,350.8184,170.4688,346.8184,166.4688" style="stroke:#181818;stroke-width:1.0;"/><line style="stroke:#181818;stroke-width:1.0;" x1="344.8184" x2="909.5273" y1="166.4688" y2="166.4688"/><text fill="#000000" font-family="sans-serif" font-size="15" lengthAdjust="spacing" textLength="92.5415" x="356.8184" y="160.9312">Se connecte</text><line style="stroke:#181818;stroke-width:1.0;" x1="339.8184" x2="381.8184" y1="197.9297" y2="197.9297"/><line style="stroke:#181818;stroke-width:1.0;" x1="381.8184" x2="381.8184" y1="197.9297" y2="210.9297"/><line style="stroke:#181818;stroke-width:1.0;" x1="340.8184" x2="381.8184" y1="210.9297" y2="210.9297"/><polygon fill="#181818" points="350.8184,206.9297,340.8184,210.9297,350.8184,214.9297,346.8184,210.9297" style="stroke:#181818;stroke-width:1.0;"/><text fill="#000000" font-family="sans-serif" font-size="15" lengthAdjust="spacing" textLength="175.3125" x="346.8184" y="192.3921">r&#233;ception signal d'arr&#234;t</text><polygon fill="#181818" points="70.9102,238.3906,60.9102,242.3906,70.9102,246.3906,66.9102,242.3906" style="stroke:#181818;stroke-width:1.0;"/><line style="stroke:#181818;stroke-width:1.0;" x1="64.9102" x2="338.8184" y1="242.3906" y2="242.3906"/><text fill="#000000" font-family="sans-serif" font-size="15" lengthAdjust="spacing" textLength="167.3438" x="76.9102" y="236.853">Event SessionStopped</text><polygon fill="#181818" points="70.9102,269.8516,60.9102,273.8516,70.9102,277.8516,66.9102,273.8516" style="stroke:#181818;stroke-width:1.0;"/><line style="stroke:#181818;stroke-width:1.0;" x1="64.9102" x2="338.8184" y1="273.8516" y2="273.8516"/><text fill="#000000" font-family="sans-serif" font-size="15" lengthAdjust="spacing" textLength="159.3018" x="76.9102" y="268.314">Event ServerStopped</text><polygon fill="#181818" points="70.9102,301.3125,60.9102,305.3125,70.9102,309.3125,66.9102,305.3125" style="stroke:#181818;stroke-width:1.0;"/><line style="stroke:#181818;stroke-width:1.0;" x1="64.9102" x2="338.8184" y1="305.3125" y2="305.3125"/><text fill="#000000" font-family="sans-serif" font-size="15" lengthAdjust="spacing" textLength="187.2656" x="76.9102" y="299.7749">Fermeture du websocket</text><polygon fill="#181818" points="607.7266,332.7734,617.7266,336.7734,607.7266,340.7734,611.7266,336.7734" style="stroke:#181818;stroke-width:1.0;"/><line style="stroke:#181818;stroke-width:1.0;" x1="339.8184" x2="613.7266" y1="336.7734" y2="336.7734"/><text fill="#000000" font-family="sans-serif" font-size="15" lengthAdjust="spacing" textLength="167.3438" x="346.8184" y="331.2358">Event SessionStopped</text><polygon fill="#181818" points="607.7266,364.2344,617.7266,368.2344,607.7266,372.2344,611.7266,368.2344" style="stroke:#181818;stroke-width:1.0;"/><line style="stroke:#181818;stroke-width:1.0;" x1="339.8184" x2="613.7266" y1="368.2344" y2="368.2344"/><text fill="#000000" font-family="sans-serif" font-size="15" lengthAdjust="spacing" textLength="159.3018" x="346.8184" y="362.6968">Event ServerStopped</text><polygon fill="#181818" points="607.7266,395.6953,617.7266,399.6953,607.7266,403.6953,611.7266,399.6953" style="stroke:#181818;stroke-width:1.0;"/><line style="stroke:#181818;stroke-width:1.0;" x1="339.8184" x2="613.7266" y1="399.6953" y2="399.6953"/><text fill="#000000" font-family="sans-serif" font-size="15" lengthAdjust="spacing" textLength="187.2656" x="346.8184" y="394.1577">Fermeture du websocket</text><polygon fill="#181818" points="745.6914,427.1563,755.6914,431.1563,745.6914,435.1563,749.6914,431.1563" style="stroke:#181818;stroke-width:1.0;"/><line style="stroke:#181818;stroke-width:1.0;" x1="339.8184" x2="751.6914" y1="431.1563" y2="431.1563"/><text fill="#000000" font-family="sans-serif" font-size="15" lengthAdjust="spacing" textLength="167.3438" x="346.8184" y="425.6187">Event SessionStopped</text><polygon fill="#181818" points="745.6914,458.6172,755.6914,462.6172,745.6914,466.6172,749.6914,462.6172" style="stroke:#181818;stroke-width:1.0;"/><line style="stroke:#181818;stroke-width:1.0;" x1="339.8184" x2="751.6914" y1="462.6172" y2="462.6172"/><text fill="#000000" font-family="sans-serif" font-size="15" lengthAdjust="spacing" textLength="159.3018" x="346.8184" y="457.0796">Event ServerStopped</text><polygon fill="#181818" points="745.6914,490.0781,755.6914,494.0781,745.6914,498.0781,749.6914,494.0781" style="stroke:#181818;stroke-width:1.0;"/><line style="stroke:#181818;stroke-width:1.0;" x1="339.8184" x2="751.6914" y1="494.0781" y2="494.0781"/><text fill="#000000" font-family="sans-serif" font-size="15" lengthAdjust="spacing" textLength="187.2656" x="346.8184" y="488.5405">Fermeture du websocket</text><polygon fill="#181818" points="898.5273,521.5391,908.5273,525.5391,898.5273,529.5391,902.5273,525.5391" style="stroke:#181818;stroke-width:1.0;"/><line style="stroke:#181818;stroke-width:1.0;" x1="339.8184" x2="904.5273" y1="525.5391" y2="525.5391"/><text fill="#000000" font-family="sans-serif" font-size="15" lengthAdjust="spacing" textLength="159.3018" x="346.8184" y="520.0015">Event ServerStopped</text><polygon fill="#181818" points="898.5273,553,908.5273,557,898.5273,561,902.5273,557" style="stroke:#181818;stroke-width:1.0;"/><line style="stroke:#181818;stroke-width:1.0;" x1="339.8184" x2="904.5273" y1="557" y2="557"/><text fill="#000000" font-family="sans-serif" font-size="15" lengthAdjust="spacing" textLength="187.2656" x="346.8184" y="551.4624">Fermeture du websocket</text><!--SRC=[bP0nJiCm58Ptd-Af2rChx0GaEh0WEY0nvGIk_KfD7DkodL1net2DN0o7CAGIRifaoV_d_tlFHoKH3jR6lJsHK2lZkESDI3pmLiUTDR5IdmZqdf2KH2MKuoR2waahJESQNbgj-0fu047FaGfzXwq7hJhSE7tQ-B1zeEps1mvZw7ETNDHJ9SiHrl1uv6QYoWprElIQ6uKJLLpQxuuGGM7z-3lO5Ye4OOr14H4mWXpwXdkFAGz1MGEK2FOVdX5HNk0zlbkLXfxXHGOdqzqyzKClqCNnOL1lXckGDya-VCKPBEWMdhlnPwf9KaNh7CeCCjxzJUpGDnZRj9niuGFtmOeQpqnisSGMJUmQKxbiAXTDvJMcOh6coDPy0m00]--></g></svg>