<svg xmlns="http://www.w3.org/2000/svg" xmlns:xlink="http://www.w3.org/1999/xlink" contentStyleType="text/css" height="882px" preserveAspectRatio="none" style="width:1199px;height:882px;background:#FFFFFF;" version="1.1" viewBox="0 0 1199 882" width="1199px" zoomAndPan="magnify"><defs/><g><line style="stroke:#181818;stroke-width:0.5;stroke-dasharray:5.0,5.0;" x1="123" x2="123" y1="38.625" y2="875.8594"/><line style="stroke:#181818;stroke-width:0.5;stroke-dasharray:5.0,5.0;" x1="407.4751" x2="407.4751" y1="38.625" y2="875.8594"/><line style="stroke:#181818;stroke-width:0.5;stroke-dasharray:5.0,5.0;" x1="693.3193" x2="693.3193" y1="38.625" y2="875.8594"/><line style="stroke:#181818;stroke-width:0.5;stroke-dasharray:5.0,5.0;" x1="1074.7847" x2="1074.7847" y1="38.625" y2="875.8594"/><rect fill="#E2E2F0" height="32.625" rx="2.5" ry="2.5" style="stroke:#181818;stroke-width:0.5;" width="236.3047" x="5" y="5"/><text fill="#000000" font-family="sans-serif" font-size="16" lengthAdjust="spacing" textLength="222.3047" x="12" y="26.8516">Follower client_num=1 Julia</text><rect fill="#E2E2F0" height="32.625" rx="2.5" ry="2.5" style="stroke:#181818;stroke-width:0.5;" width="254.2188" x="280.4751" y="5"/><text fill="#000000" font-family="sans-serif" font-size="16" lengthAdjust="spacing" textLength="240.2188" x="287.4751" y="26.8516">Follower client_num=2 Benoit</text><rect fill="#E2E2F0" height="32.625" rx="2.5" ry="2.5" style="stroke:#181818;stroke-width:0.5;" width="205.1641" x="591.3193" y="5"/><text fill="#000000" font-family="sans-serif" font-size="16" lengthAdjust="spacing" textLength="191.1641" x="598.3193" y="26.8516">Serveur live.plx.rs:9120</text><rect fill="#E2E2F0" height="32.625" rx="2.5" ry="2.5" style="stroke:#181818;stroke-width:0.5;" width="223.2969" x="963.7847" y="5"/><text fill="#000000" font-family="sans-serif" font-size="16" lengthAdjust="spacing" textLength="209.2969" x="970.7847" y="26.8516">Leader client_num=0 Jack</text><rect fill="#EEEEEE" height="3" style="stroke:#EEEEEE;stroke-width:1.0;" width="1192.0815" x="0" y="70.9375"/><line style="stroke:#000000;stroke-width:1.0;" x1="0" x2="1192.0815" y1="70.9375" y2="70.9375"/><line style="stroke:#000000;stroke-width:1.0;" x1="0" x2="1192.0815" y1="73.9375" y2="73.9375"/><rect fill="#EEEEEE" height="26.625" style="stroke:#000000;stroke-width:2.0;" width="468.1719" x="361.9548" y="58.625"/><text fill="#000000" font-family="sans-serif" font-size="16" font-weight="bold" lengthAdjust="spacing" textLength="454.1719" x="367.9548" y="77.4766">D&#233;marrage d'une session &#224; 1 leader et 2 followers</text><polygon fill="#181818" points="704.9014,114.7109,694.9014,118.7109,704.9014,122.7109,700.9014,118.7109" style="stroke:#181818;stroke-width:1.0;"/><line style="stroke:#181818;stroke-width:1.0;" x1="698.9014" x2="1074.4331" y1="118.7109" y2="118.7109"/><text fill="#000000" font-family="sans-serif" font-size="15" lengthAdjust="spacing" textLength="247.1338" x="710.9014" y="113.1733">Action SwitchExo intro/salue-moi</text><polygon fill="#181818" points="1063.4331,146.1719,1073.4331,150.1719,1063.4331,154.1719,1067.4331,150.1719" style="stroke:#181818;stroke-width:1.0;"/><line style="stroke:#181818;stroke-width:1.0;" x1="693.9014" x2="1069.4331" y1="150.1719" y2="150.1719"/><text fill="#000000" font-family="sans-serif" font-size="15" lengthAdjust="spacing" textLength="261.6138" x="700.9014" y="144.6343">Event ExoSwitched intro/salue-moi</text><polygon fill="#181818" points="418.5845,177.6328,408.5845,181.6328,418.5845,185.6328,414.5845,181.6328" style="stroke:#181818;stroke-width:1.0;"/><line style="stroke:#181818;stroke-width:1.0;" x1="412.5845" x2="692.9014" y1="181.6328" y2="181.6328"/><text fill="#000000" font-family="sans-serif" font-size="15" lengthAdjust="spacing" textLength="261.6138" x="424.5845" y="176.0952">Event ExoSwitched intro/salue-moi</text><polygon fill="#181818" points="134.1523,209.0938,124.1523,213.0938,134.1523,217.0938,130.1523,213.0938" style="stroke:#181818;stroke-width:1.0;"/><line style="stroke:#181818;stroke-width:1.0;" x1="128.1523" x2="692.9014" y1="213.0938" y2="213.0938"/><text fill="#000000" font-family="sans-serif" font-size="15" lengthAdjust="spacing" textLength="261.6138" x="140.1523" y="207.5562">Event ExoSwitched intro/salue-moi</text><line style="stroke:#181818;stroke-width:1.0;" x1="123.1523" x2="165.1523" y1="262.0156" y2="262.0156"/><line style="stroke:#181818;stroke-width:1.0;" x1="165.1523" x2="165.1523" y1="262.0156" y2="275.0156"/><line style="stroke:#181818;stroke-width:1.0;" x1="124.1523" x2="165.1523" y1="275.0156" y2="275.0156"/><polygon fill="#181818" points="134.1523,271.0156,124.1523,275.0156,134.1523,279.0156,130.1523,275.0156" style="stroke:#181818;stroke-width:1.0;"/><text fill="#000000" font-family="sans-serif" font-size="15" lengthAdjust="spacing" textLength="174.9023" x="130.1523" y="239.0171">Affichage et lancement</text><text fill="#000000" font-family="sans-serif" font-size="15" lengthAdjust="spacing" textLength="213.2007" x="130.1523" y="256.478">de l'exercice intro/salue-moi</text><line style="stroke:#181818;stroke-width:1.0;" x1="123.1523" x2="165.1523" y1="306.4766" y2="306.4766"/><line style="stroke:#181818;stroke-width:1.0;" x1="165.1523" x2="165.1523" y1="306.4766" y2="319.4766"/><line style="stroke:#181818;stroke-width:1.0;" x1="124.1523" x2="165.1523" y1="319.4766" y2="319.4766"/><polygon fill="#181818" points="134.1523,315.4766,124.1523,319.4766,134.1523,323.4766,130.1523,319.4766" style="stroke:#181818;stroke-width:1.0;"/><text fill="#000000" font-family="sans-serif" font-size="15" lengthAdjust="spacing" textLength="270.4321" x="130.1523" y="300.939">Ouvrir l'exercice, modifier et sauver</text><polygon fill="#181818" points="681.9014,346.9375,691.9014,350.9375,681.9014,354.9375,685.9014,350.9375" style="stroke:#181818;stroke-width:1.0;"/><line style="stroke:#181818;stroke-width:1.0;" x1="123.1523" x2="687.9014" y1="350.9375" y2="350.9375"/><text fill="#000000" font-family="sans-serif" font-size="15" lengthAdjust="spacing" textLength="365.8374" x="130.1523" y="345.3999">Action SendFile content="code v1" path=main.c</text><polygon fill="#181818" points="681.9014,378.3984,691.9014,382.3984,681.9014,386.3984,685.9014,382.3984" style="stroke:#181818;stroke-width:1.0;"/><line style="stroke:#181818;stroke-width:1.0;" x1="123.1523" x2="687.9014" y1="382.3984" y2="382.3984"/><text fill="#000000" font-family="sans-serif" font-size="15" lengthAdjust="spacing" textLength="259.3433" x="130.1523" y="376.8608">Action SendResult type=Passed,...</text><polygon fill="#181818" points="1063.4331,427.3203,1073.4331,431.3203,1063.4331,435.3203,1067.4331,431.3203" style="stroke:#181818;stroke-width:1.0;"/><line style="stroke:#181818;stroke-width:1.0;" x1="693.9014" x2="1069.4331" y1="431.3203" y2="431.3203"/><text fill="#000000" font-family="sans-serif" font-size="15" lengthAdjust="spacing" textLength="212.981" x="700.9014" y="408.3218">Event ForwardFile "code v1"</text><text fill="#000000" font-family="sans-serif" font-size="15" lengthAdjust="spacing" textLength="353.0273" x="700.9014" y="425.7827">client_num=1 path=main.c time=1751632509</text><polygon fill="#181818" points="1063.4331,476.2422,1073.4331,480.2422,1063.4331,484.2422,1067.4331,480.2422" style="stroke:#181818;stroke-width:1.0;"/><line style="stroke:#181818;stroke-width:1.0;" x1="693.9014" x2="1069.4331" y1="480.2422" y2="480.2422"/><text fill="#000000" font-family="sans-serif" font-size="15" lengthAdjust="spacing" textLength="155.8813" x="700.9014" y="457.2437">Event ForwardResult</text><text fill="#000000" font-family="sans-serif" font-size="15" lengthAdjust="spacing" textLength="354.5581" x="700.9014" y="474.7046">client_num=1 type=Passed time=1751632510</text><polygon fill="#181818" points="681.9014,525.1641,691.9014,529.1641,681.9014,533.1641,685.9014,529.1641" style="stroke:#181818;stroke-width:1.0;"/><line style="stroke:#181818;stroke-width:1.0;" x1="407.5845" x2="687.9014" y1="529.1641" y2="529.1641"/><text fill="#000000" font-family="sans-serif" font-size="15" lengthAdjust="spacing" textLength="115.979" x="414.5845" y="506.1655">Action SendFile</text><text fill="#000000" font-family="sans-serif" font-size="15" lengthAdjust="spacing" textLength="245.0903" x="414.5845" y="523.6265">content="code v1" path=main.c</text><polygon fill="#181818" points="1063.4331,574.0859,1073.4331,578.0859,1063.4331,582.0859,1067.4331,578.0859" style="stroke:#181818;stroke-width:1.0;"/><line style="stroke:#181818;stroke-width:1.0;" x1="693.9014" x2="1069.4331" y1="578.0859" y2="578.0859"/><text fill="#000000" font-family="sans-serif" font-size="15" lengthAdjust="spacing" textLength="212.981" x="700.9014" y="555.0874">Event ForwardFile "code v1"</text><text fill="#000000" font-family="sans-serif" font-size="15" lengthAdjust="spacing" textLength="353.0273" x="700.9014" y="572.5483">client_num=2 path=main.c time=1751632522</text><polygon fill="#181818" points="681.9014,605.5469,691.9014,609.5469,681.9014,613.5469,685.9014,609.5469" style="stroke:#181818;stroke-width:1.0;"/><line style="stroke:#181818;stroke-width:1.0;" x1="407.5845" x2="687.9014" y1="609.5469" y2="609.5469"/><text fill="#000000" font-family="sans-serif" font-size="15" lengthAdjust="spacing" textLength="262.3169" x="414.5845" y="604.0093">Action SendResult type=RunFail,...</text><polygon fill="#181818" points="1063.4331,654.4688,1073.4331,658.4688,1063.4331,662.4688,1067.4331,658.4688" style="stroke:#181818;stroke-width:1.0;"/><line style="stroke:#181818;stroke-width:1.0;" x1="693.9014" x2="1069.4331" y1="658.4688" y2="658.4688"/><text fill="#000000" font-family="sans-serif" font-size="15" lengthAdjust="spacing" textLength="155.8813" x="700.9014" y="635.4702">Event ForwardResult</text><text fill="#000000" font-family="sans-serif" font-size="15" lengthAdjust="spacing" textLength="357.5317" x="700.9014" y="652.9312">client_num=2 type=RunFail time=1751632526</text><path d="M222,671.4688 L222,715.4688 L592,715.4688 L592,681.4688 L582,671.4688 L222,671.4688 " fill="#FEFFDD" style="stroke:#181818;stroke-width:0.5;"/><path d="M582,671.4688 L582,681.4688 L592,681.4688 L582,671.4688 " fill="#FEFFDD" style="stroke:#181818;stroke-width:0.5;"/><text fill="#000000" font-family="sans-serif" font-size="15" lengthAdjust="spacing" textLength="298.2202" x="228" y="690.3921">Apr&#232;s une autre it&#233;ration, le r&#233;sultat du</text><text fill="#000000" font-family="sans-serif" font-size="15" lengthAdjust="spacing" textLength="349.4897" x="228" y="707.853">check n'a pas chang&#233;, seul le code est envoy&#233;</text><polygon fill="#181818" points="681.9014,758.3125,691.9014,762.3125,681.9014,766.3125,685.9014,762.3125" style="stroke:#181818;stroke-width:1.0;"/><line style="stroke:#181818;stroke-width:1.0;" x1="407.5845" x2="687.9014" y1="762.3125" y2="762.3125"/><text fill="#000000" font-family="sans-serif" font-size="15" lengthAdjust="spacing" textLength="115.979" x="414.5845" y="739.314">Action SendFile</text><text fill="#000000" font-family="sans-serif" font-size="15" lengthAdjust="spacing" textLength="245.0903" x="414.5845" y="756.7749">content="code v2" path=main.c</text><polygon fill="#181818" points="1063.4331,807.2344,1073.4331,811.2344,1063.4331,815.2344,1067.4331,811.2344" style="stroke:#181818;stroke-width:1.0;"/><line style="stroke:#181818;stroke-width:1.0;" x1="693.9014" x2="1069.4331" y1="811.2344" y2="811.2344"/><text fill="#000000" font-family="sans-serif" font-size="15" lengthAdjust="spacing" textLength="212.981" x="700.9014" y="788.2358">Event ForwardFile "code v2"</text><text fill="#000000" font-family="sans-serif" font-size="15" lengthAdjust="spacing" textLength="353.0273" x="700.9014" y="805.6968">client_num=2 path=main.c time=1751632553</text><rect fill="#EEEEEE" height="3" style="stroke:#EEEEEE;stroke-width:1.0;" width="1192.0815" x="0" y="841.5469"/><line style="stroke:#000000;stroke-width:1.0;" x1="0" x2="1192.0815" y1="841.5469" y2="841.5469"/><line style="stroke:#000000;stroke-width:1.0;" x1="0" x2="1192.0815" y1="844.5469" y2="844.5469"/><rect fill="#EEEEEE" height="26.625" style="stroke:#000000;stroke-width:2.0;" width="231.5625" x="480.2595" y="829.2344"/><text fill="#000000" font-family="sans-serif" font-size="16" font-weight="bold" lengthAdjust="spacing" textLength="217.5625" x="486.2595" y="848.0859">Fermeture de la session</text><!--SRC=[dLJBRXf14BplLxIuSC64NOGZMzf4JkALOaLAPAwMelPihtV4x0oP1uPyJOxXE_YnzEnY2wo07znWgggxgvkgPKbG6UDlpJ99t4pgELfieAGAW_A5qNugVnEafma_U2da7BM7Nc6KClTaGIX9sl_KeSbJk0fAOW_GGPK-Zy_W4saZVKV8zWbJiWiA5fHSq72kbaFhpi_IRDI2NNoq-uHlXEM-_WYkKCnQWceVZyqtIP8yVk3BPjsWjNX7KFQ39Yxcd3GQDdyWtGe1USZOjcuc1tcUzA4WzC4IiAC8zzBNyDdeIjxnRzEL5WEG5GH7LL3maU5RfPCFssdEuKBuM6UF1OqfAKUb1b1P-XL8YrMUZXmBVDL21TwUbmsnJPfuJ3dZxpLwViwxSSQZjhtaOBafjohgowK1gRqrxnogG2UDaKa7Z9IEV0wN2_OM6DkHg3p2gR9NujENuAlq0NjHLLBKSKsy38LQKCFa6ysEg3ujoGefw0Z_UrXOQNUmW-Yrh6ItNeSXdbY7VsePwRAGYa3m-N3Hl2TuIx18Up17N-SDIZqKXxdNvFZsmA_cbFz0vwWS38V3WtuNnjwZxIe-LhhHU_-ydRhjGUJf-qbwEiucexFdTBjkdkZjzBQlbuwIfCgEcC92Hrrv-vJPuIcpx71JksvV1rsWL2-n-p-sP7iYJpeuJH9jF869el7uB-PsyzT1Z10CFWQ3twmjnhu6N1BiPXqhe8SoS9cQn0nq7tb81tpO-cwp7l0y71VjfR4Xv3oGNfZLPltA7MHlta7suXrCnabCGNIUfM-3XtOa1qQhrIlphcFkHjxOFUHpGRQXDcZZFnqVuvb3xXy0]--></g></svg>