<svg xmlns="http://www.w3.org/2000/svg" xmlns:xlink="http://www.w3.org/1999/xlink" contentStyleType="text/css" height="882px" preserveAspectRatio="none" style="width:1212px;height:882px;background:#FFFFFF;" version="1.1" viewBox="0 0 1212 882" width="1212px" zoomAndPan="magnify"><defs/><g><line style="stroke:#181818;stroke-width:0.5;stroke-dasharray:5.0,5.0;" x1="123" x2="123" y1="38.625" y2="875.8594"/><line style="stroke:#181818;stroke-width:0.5;stroke-dasharray:5.0,5.0;" x1="407.4751" x2="407.4751" y1="38.625" y2="875.8594"/><line style="stroke:#181818;stroke-width:0.5;stroke-dasharray:5.0,5.0;" x1="706.415" x2="706.415" y1="38.625" y2="875.8594"/><line style="stroke:#181818;stroke-width:0.5;stroke-dasharray:5.0,5.0;" x1="1087.8804" x2="1087.8804" y1="38.625" y2="875.8594"/><rect fill="#E2E2F0" height="32.625" rx="2.5" ry="2.5" style="stroke:#181818;stroke-width:0.5;" width="236.3047" x="5" y="5"/><text fill="#000000" font-family="sans-serif" font-size="16" lengthAdjust="spacing" textLength="222.3047" x="12" y="26.8516">Follower client_num=1 Julia</text><rect fill="#E2E2F0" height="32.625" rx="2.5" ry="2.5" style="stroke:#181818;stroke-width:0.5;" width="254.2188" x="280.4751" y="5"/><text fill="#000000" font-family="sans-serif" font-size="16" lengthAdjust="spacing" textLength="240.2188" x="287.4751" y="26.8516">Follower client_num=2 Benoit</text><rect fill="#E2E2F0" height="32.625" rx="2.5" ry="2.5" style="stroke:#181818;stroke-width:0.5;" width="205.1641" x="604.415" y="5"/><text fill="#000000" font-family="sans-serif" font-size="16" lengthAdjust="spacing" textLength="191.1641" x="611.415" y="26.8516">Serveur live.plx.rs:9120</text><rect fill="#E2E2F0" height="32.625" rx="2.5" ry="2.5" style="stroke:#181818;stroke-width:0.5;" width="223.2969" x="976.8804" y="5"/><text fill="#000000" font-family="sans-serif" font-size="16" lengthAdjust="spacing" textLength="209.2969" x="983.8804" y="26.8516">Leader client_num=0 Jack</text><rect fill="#EEEEEE" height="3" style="stroke:#EEEEEE;stroke-width:1.0;" width="1205.1772" x="0" y="70.9375"/><line style="stroke:#000000;stroke-width:1.0;" x1="0" x2="1205.1772" y1="70.9375" y2="70.9375"/><line style="stroke:#000000;stroke-width:1.0;" x1="0" x2="1205.1772" y1="73.9375" y2="73.9375"/><rect fill="#EEEEEE" height="26.625" style="stroke:#000000;stroke-width:2.0;" width="468.1719" x="368.5027" y="58.625"/><text fill="#000000" font-family="sans-serif" font-size="16" font-weight="bold" lengthAdjust="spacing" textLength="454.1719" x="374.5027" y="77.4766">D&#233;marrage d'une session &#224; 1 leader et 2 followers</text><polygon fill="#181818" points="717.9971,114.7109,707.9971,118.7109,717.9971,122.7109,713.9971,118.7109" style="stroke:#181818;stroke-width:1.0;"/><line style="stroke:#181818;stroke-width:1.0;" x1="711.9971" x2="1087.5288" y1="118.7109" y2="118.7109"/><text fill="#000000" font-family="sans-serif" font-size="15" lengthAdjust="spacing" textLength="260.9326" x="723.9971" y="113.1733">Action SwitchExo "intro/salue-moi"</text><polygon fill="#181818" points="1076.5288,146.1719,1086.5288,150.1719,1076.5288,154.1719,1080.5288,150.1719" style="stroke:#181818;stroke-width:1.0;"/><line style="stroke:#181818;stroke-width:1.0;" x1="706.9971" x2="1082.5288" y1="150.1719" y2="150.1719"/><text fill="#000000" font-family="sans-serif" font-size="15" lengthAdjust="spacing" textLength="275.4126" x="713.9971" y="144.6343">Event ExoSwitched "intro/salue-moi"</text><polygon fill="#181818" points="418.5845,177.6328,408.5845,181.6328,418.5845,185.6328,414.5845,181.6328" style="stroke:#181818;stroke-width:1.0;"/><line style="stroke:#181818;stroke-width:1.0;" x1="412.5845" x2="705.9971" y1="181.6328" y2="181.6328"/><text fill="#000000" font-family="sans-serif" font-size="15" lengthAdjust="spacing" textLength="275.4126" x="424.5845" y="176.0952">Event ExoSwitched "intro/salue-moi"</text><polygon fill="#181818" points="134.1523,209.0938,124.1523,213.0938,134.1523,217.0938,130.1523,213.0938" style="stroke:#181818;stroke-width:1.0;"/><line style="stroke:#181818;stroke-width:1.0;" x1="128.1523" x2="705.9971" y1="213.0938" y2="213.0938"/><text fill="#000000" font-family="sans-serif" font-size="15" lengthAdjust="spacing" textLength="275.4126" x="140.1523" y="207.5562">Event ExoSwitched "intro/salue-moi"</text><line style="stroke:#181818;stroke-width:1.0;" x1="123.1523" x2="165.1523" y1="262.0156" y2="262.0156"/><line style="stroke:#181818;stroke-width:1.0;" x1="165.1523" x2="165.1523" y1="262.0156" y2="275.0156"/><line style="stroke:#181818;stroke-width:1.0;" x1="124.1523" x2="165.1523" y1="275.0156" y2="275.0156"/><polygon fill="#181818" points="134.1523,271.0156,124.1523,275.0156,134.1523,279.0156,130.1523,275.0156" style="stroke:#181818;stroke-width:1.0;"/><text fill="#000000" font-family="sans-serif" font-size="15" lengthAdjust="spacing" textLength="174.9023" x="130.1523" y="239.0171">Affichage et lancement</text><text fill="#000000" font-family="sans-serif" font-size="15" lengthAdjust="spacing" textLength="226.9995" x="130.1523" y="256.478">de l'exercice "intro/salue-moi"</text><line style="stroke:#181818;stroke-width:1.0;" x1="123.1523" x2="165.1523" y1="306.4766" y2="306.4766"/><line style="stroke:#181818;stroke-width:1.0;" x1="165.1523" x2="165.1523" y1="306.4766" y2="319.4766"/><line style="stroke:#181818;stroke-width:1.0;" x1="124.1523" x2="165.1523" y1="319.4766" y2="319.4766"/><polygon fill="#181818" points="134.1523,315.4766,124.1523,319.4766,134.1523,323.4766,130.1523,319.4766" style="stroke:#181818;stroke-width:1.0;"/><text fill="#000000" font-family="sans-serif" font-size="15" lengthAdjust="spacing" textLength="270.4321" x="130.1523" y="300.939">Ouvrir l'exercice, modifier et sauver</text><polygon fill="#181818" points="694.9971,346.9375,704.9971,350.9375,694.9971,354.9375,698.9971,350.9375" style="stroke:#181818;stroke-width:1.0;"/><line style="stroke:#181818;stroke-width:1.0;" x1="123.1523" x2="700.9971" y1="350.9375" y2="350.9375"/><text fill="#000000" font-family="sans-serif" font-size="15" lengthAdjust="spacing" textLength="365.8374" x="130.1523" y="345.3999">Action SendFile content="code v1" path=main.c</text><polygon fill="#181818" points="694.9971,378.3984,704.9971,382.3984,694.9971,386.3984,698.9971,382.3984" style="stroke:#181818;stroke-width:1.0;"/><line style="stroke:#181818;stroke-width:1.0;" x1="123.1523" x2="700.9971" y1="382.3984" y2="382.3984"/><text fill="#000000" font-family="sans-serif" font-size="15" lengthAdjust="spacing" textLength="259.3433" x="130.1523" y="376.8608">Action SendResult type=Passed,...</text><polygon fill="#181818" points="1076.5288,427.3203,1086.5288,431.3203,1076.5288,435.3203,1080.5288,431.3203" style="stroke:#181818;stroke-width:1.0;"/><line style="stroke:#181818;stroke-width:1.0;" x1="706.9971" x2="1082.5288" y1="431.3203" y2="431.3203"/><text fill="#000000" font-family="sans-serif" font-size="15" lengthAdjust="spacing" textLength="212.981" x="713.9971" y="408.3218">Event ForwardFile "code v1"</text><text fill="#000000" font-family="sans-serif" font-size="15" lengthAdjust="spacing" textLength="353.0273" x="713.9971" y="425.7827">client_num=1 path=main.c time=1751632509</text><polygon fill="#181818" points="1076.5288,476.2422,1086.5288,480.2422,1076.5288,484.2422,1080.5288,480.2422" style="stroke:#181818;stroke-width:1.0;"/><line style="stroke:#181818;stroke-width:1.0;" x1="706.9971" x2="1082.5288" y1="480.2422" y2="480.2422"/><text fill="#000000" font-family="sans-serif" font-size="15" lengthAdjust="spacing" textLength="155.8813" x="713.9971" y="457.2437">Event ForwardResult</text><text fill="#000000" font-family="sans-serif" font-size="15" lengthAdjust="spacing" textLength="354.5581" x="713.9971" y="474.7046">client_num=1 type=Passed time=1751632510</text><polygon fill="#181818" points="694.9971,525.1641,704.9971,529.1641,694.9971,533.1641,698.9971,529.1641" style="stroke:#181818;stroke-width:1.0;"/><line style="stroke:#181818;stroke-width:1.0;" x1="407.5845" x2="700.9971" y1="529.1641" y2="529.1641"/><text fill="#000000" font-family="sans-serif" font-size="15" lengthAdjust="spacing" textLength="115.979" x="414.5845" y="506.1655">Action SendFile</text><text fill="#000000" font-family="sans-serif" font-size="15" lengthAdjust="spacing" textLength="245.0903" x="414.5845" y="523.6265">content="code v1" path=main.c</text><polygon fill="#181818" points="1076.5288,574.0859,1086.5288,578.0859,1076.5288,582.0859,1080.5288,578.0859" style="stroke:#181818;stroke-width:1.0;"/><line style="stroke:#181818;stroke-width:1.0;" x1="706.9971" x2="1082.5288" y1="578.0859" y2="578.0859"/><text fill="#000000" font-family="sans-serif" font-size="15" lengthAdjust="spacing" textLength="212.981" x="713.9971" y="555.0874">Event ForwardFile "code v1"</text><text fill="#000000" font-family="sans-serif" font-size="15" lengthAdjust="spacing" textLength="353.0273" x="713.9971" y="572.5483">client_num=2 path=main.c time=1751632522</text><polygon fill="#181818" points="694.9971,605.5469,704.9971,609.5469,694.9971,613.5469,698.9971,609.5469" style="stroke:#181818;stroke-width:1.0;"/><line style="stroke:#181818;stroke-width:1.0;" x1="407.5845" x2="700.9971" y1="609.5469" y2="609.5469"/><text fill="#000000" font-family="sans-serif" font-size="15" lengthAdjust="spacing" textLength="262.3169" x="414.5845" y="604.0093">Action SendResult type=RunFail,...</text><polygon fill="#181818" points="1076.5288,654.4688,1086.5288,658.4688,1076.5288,662.4688,1080.5288,658.4688" style="stroke:#181818;stroke-width:1.0;"/><line style="stroke:#181818;stroke-width:1.0;" x1="706.9971" x2="1082.5288" y1="658.4688" y2="658.4688"/><text fill="#000000" font-family="sans-serif" font-size="15" lengthAdjust="spacing" textLength="155.8813" x="713.9971" y="635.4702">Event ForwardResult</text><text fill="#000000" font-family="sans-serif" font-size="15" lengthAdjust="spacing" textLength="357.5317" x="713.9971" y="652.9312">client_num=2 type=RunFail time=1751632526</text><path d="M222,671.4688 L222,715.4688 L592,715.4688 L592,681.4688 L582,671.4688 L222,671.4688 " fill="#FEFFDD" style="stroke:#181818;stroke-width:0.5;"/><path d="M582,671.4688 L582,681.4688 L592,681.4688 L582,671.4688 " fill="#FEFFDD" style="stroke:#181818;stroke-width:0.5;"/><text fill="#000000" font-family="sans-serif" font-size="15" lengthAdjust="spacing" textLength="298.2202" x="228" y="690.3921">Apr&#232;s une autre it&#233;ration, le r&#233;sultat du</text><text fill="#000000" font-family="sans-serif" font-size="15" lengthAdjust="spacing" textLength="349.4897" x="228" y="707.853">check n'a pas chang&#233;, seul le code est envoy&#233;</text><polygon fill="#181818" points="694.9971,758.3125,704.9971,762.3125,694.9971,766.3125,698.9971,762.3125" style="stroke:#181818;stroke-width:1.0;"/><line style="stroke:#181818;stroke-width:1.0;" x1="407.5845" x2="700.9971" y1="762.3125" y2="762.3125"/><text fill="#000000" font-family="sans-serif" font-size="15" lengthAdjust="spacing" textLength="115.979" x="414.5845" y="739.314">Action SendFile</text><text fill="#000000" font-family="sans-serif" font-size="15" lengthAdjust="spacing" textLength="245.0903" x="414.5845" y="756.7749">content="code v2" path=main.c</text><polygon fill="#181818" points="1076.5288,807.2344,1086.5288,811.2344,1076.5288,815.2344,1080.5288,811.2344" style="stroke:#181818;stroke-width:1.0;"/><line style="stroke:#181818;stroke-width:1.0;" x1="706.9971" x2="1082.5288" y1="811.2344" y2="811.2344"/><text fill="#000000" font-family="sans-serif" font-size="15" lengthAdjust="spacing" textLength="212.981" x="713.9971" y="788.2358">Event ForwardFile "code v2"</text><text fill="#000000" font-family="sans-serif" font-size="15" lengthAdjust="spacing" textLength="353.0273" x="713.9971" y="805.6968">client_num=2 path=main.c time=1751632553</text><rect fill="#EEEEEE" height="3" style="stroke:#EEEEEE;stroke-width:1.0;" width="1205.1772" x="0" y="841.5469"/><line style="stroke:#000000;stroke-width:1.0;" x1="0" x2="1205.1772" y1="841.5469" y2="841.5469"/><line style="stroke:#000000;stroke-width:1.0;" x1="0" x2="1205.1772" y1="844.5469" y2="844.5469"/><rect fill="#EEEEEE" height="26.625" style="stroke:#000000;stroke-width:2.0;" width="231.5625" x="486.8074" y="829.2344"/><text fill="#000000" font-family="sans-serif" font-size="16" font-weight="bold" lengthAdjust="spacing" textLength="217.5625" x="492.8074" y="848.0859">Fermeture de la session</text><!--SRC=[dLJRRjf047ttLunuuOLGR4IgH7Ahj8sbHfLQXTT8rMGzZbUiT-bU2FHh-bY-Wn_hh4qYY0gvy6PcpZapPsQdbYL1POo_DSiaSJEfvsYnWP8g3CeNHlkf_4sGdYOSy5B8EMeFlS8ePUx9Wb2IjF-fGvEdS1MKn1wWWofzFZ-3JwIDz1qWsmTCoIueM51oGSEvMWwjEpzBir6Rx6BGxWE-4PRx_2EuGZ5h0QeD7kjlaYHv_C6NpRf1Q_6EeEm7JIpcd3GQDdyWtH81USZOjgud1tcUzA4WzC4IiAC8zzBNyDdeIjxnVzEL5WEG5GH7LL3maTEtJ2SVjjsSmuNmKMSF1OqfAKUb1b1P-XL8YrMUZXmJVDL21PwUbmsnJPguJJdZxnezX_EkdV6eBIyvA3VbKaLzkJJGazfRyywX2dJI6DbBkjG8wk3dSBbWTu6pEnYLHr5Lzcf4-Z94bJvaNrIL57KS5mz5eHRKCFn6ipEgJqkoGWewol0zBAoqEzc3wBgiP3TeXo4kMvV_r3pIPI4LWU15Ojcy9tXUi4XxC4TVvmrAFHI7iTVaU0l1h-QK_q3dg1mCXyE3lXV6tgFj51-LRlJU6zpHRLSZJzzFqjDnDXcTFSVRLVE4RwUsVRvqb2HLTiGK9Zhgojkxp0vtcMM7Yzfr-phe0gLwYTt_iINR8tbImMcIQEC9J2IDJ-1YRZT_7SHZWi774-4tQuknhW5BWjsiem9wA0FBr2HceFl8JJhWrTPtc_M0- -73qMuQ6qBE0-c5MMtMhvn1zkOPP2-UmMISn7k8pZFrRV3GjkJ0QBLwvUNhaBl7R-mUBdL1jg7svCQtZe-7ci_TFm00]--></g></svg>