<svg xmlns="http://www.w3.org/2000/svg" xmlns:xlink="http://www.w3.org/1999/xlink" contentStyleType="text/css" height="868px" preserveAspectRatio="none" style="width:828px;height:868px;background:#FFFFFF;" version="1.1" viewBox="0 0 828 868" width="828px" zoomAndPan="magnify"><defs/><g><text fill="#000000" font-family="sans-serif" font-size="14" font-weight="bold" lengthAdjust="spacing" textLength="185.7461" x="317.3101" y="27.9951">Durant une session live</text><line style="stroke:#181818;stroke-width:0.5;stroke-dasharray:5.0,5.0;" x1="100" x2="100" y1="73.5938" y2="861.6484"/><line style="stroke:#181818;stroke-width:0.5;stroke-dasharray:5.0,5.0;" x1="348.0654" x2="348.0654" y1="73.5938" y2="861.6484"/><line style="stroke:#181818;stroke-width:0.5;stroke-dasharray:5.0,5.0;" x1="717.1665" x2="717.1665" y1="73.5938" y2="861.6484"/><rect fill="#E2E2F0" height="30.2969" rx="2.5" ry="2.5" style="stroke:#181818;stroke-width:0.5;" width="191.3584" x="5" y="42.2969"/><text fill="#000000" font-family="sans-serif" font-size="14" lengthAdjust="spacing" textLength="177.3584" x="12" y="62.292">Client PLX Follower - Julia</text><rect fill="#E2E2F0" height="30.2969" rx="2.5" ry="2.5" style="stroke:#181818;stroke-width:0.5;" width="179.9766" x="259.0654" y="42.2969"/><text fill="#000000" font-family="sans-serif" font-size="14" lengthAdjust="spacing" textLength="165.9766" x="266.0654" y="62.292">Client PLX Leader - Jack</text><rect fill="#E2E2F0" height="30.2969" rx="2.5" ry="2.5" style="stroke:#181818;stroke-width:0.5;" width="99.0664" x="668.1665" y="42.2969"/><text fill="#000000" font-family="sans-serif" font-size="14" lengthAdjust="spacing" textLength="85.0664" x="675.1665" y="62.292">Serveur PLX</text><path d="M30,88.5938 L30,113.5938 L787,113.5938 L787,98.5938 L777,88.5938 L30,88.5938 " fill="#FEFFDD" style="stroke:#181818;stroke-width:0.5;"/><path d="M777,88.5938 L777,98.5938 L787,98.5938 L777,88.5938 " fill="#FEFFDD" style="stroke:#181818;stroke-width:0.5;"/><text fill="#000000" font-family="sans-serif" font-size="13" lengthAdjust="spacing" textLength="158.8755" x="324.6787" y="105.6606">Ouverture d'une session</text><rect fill="#EEEEEE" height="3" style="stroke:#EEEEEE;stroke-width:1.0;" width="821.3662" x="0" y="139.293"/><line style="stroke:#000000;stroke-width:1.0;" x1="0" x2="821.3662" y1="139.293" y2="139.293"/><line style="stroke:#000000;stroke-width:1.0;" x1="0" x2="821.3662" y1="142.293" y2="142.293"/><rect fill="#EEEEEE" height="23.1328" style="stroke:#000000;stroke-width:2.0;" width="30.7832" x="395.2915" y="128.7266"/><text fill="#000000" font-family="sans-serif" font-size="13" font-style="italic" font-weight="bold" lengthAdjust="spacing" textLength="16.7832" x="401.2915" y="144.7935">0s</text><polygon fill="#181818" points="705.6997,178.9922,715.6997,182.9922,705.6997,186.9922,709.6997,182.9922" style="stroke:#181818;stroke-width:1.0;"/><line style="stroke:#181818;stroke-width:1.0;" x1="349.0537" x2="711.6997" y1="182.9922" y2="182.9922"/><text fill="#000000" font-family="sans-serif" font-size="13" lengthAdjust="spacing" textLength="314.7422" x="356.0537" y="177.9263">Action ConfigureSync mode=all, frequency=10s</text><rect fill="#EEEEEE" height="3" style="stroke:#EEEEEE;stroke-width:1.0;" width="821.3662" x="0" y="211.5586"/><line style="stroke:#000000;stroke-width:1.0;" x1="0" x2="821.3662" y1="211.5586" y2="211.5586"/><line style="stroke:#000000;stroke-width:1.0;" x1="0" x2="821.3662" y1="214.5586" y2="214.5586"/><rect fill="#EEEEEE" height="23.1328" style="stroke:#000000;stroke-width:2.0;" width="39.8286" x="390.7688" y="200.9922"/><text fill="#000000" font-family="sans-serif" font-size="13" font-style="italic" font-weight="bold" lengthAdjust="spacing" textLength="25.8286" x="396.7688" y="217.0591">30s</text><polygon fill="#181818" points="705.6997,251.2578,715.6997,255.2578,705.6997,259.2578,709.6997,255.2578" style="stroke:#181818;stroke-width:1.0;"/><line style="stroke:#181818;stroke-width:1.0;" x1="349.0537" x2="711.6997" y1="255.2578" y2="255.2578"/><text fill="#000000" font-family="sans-serif" font-size="13" lengthAdjust="spacing" textLength="248.9805" x="356.0537" y="250.1919">Action SwitchExo exos/intro/salue-moi</text><polygon fill="#181818" points="360.0537,280.3906,350.0537,284.3906,360.0537,288.3906,356.0537,284.3906" style="stroke:#181818;stroke-width:1.0;"/><line style="stroke:#181818;stroke-width:1.0;" x1="354.0537" x2="716.6997" y1="284.3906" y2="284.3906"/><text fill="#000000" font-family="sans-serif" font-size="13" lengthAdjust="spacing" textLength="261.5298" x="366.0537" y="279.3247">Event ExoSwitched exos/intro/salue-moi</text><polygon fill="#181818" points="111.6792,309.5234,101.6792,313.5234,111.6792,317.5234,107.6792,313.5234" style="stroke:#181818;stroke-width:1.0;"/><line style="stroke:#181818;stroke-width:1.0;" x1="105.6792" x2="716.6997" y1="313.5234" y2="313.5234"/><text fill="#000000" font-family="sans-serif" font-size="13" lengthAdjust="spacing" textLength="261.5298" x="117.6792" y="308.4575">Event ExoSwitched exos/intro/salue-moi</text><line style="stroke:#181818;stroke-width:1.0;" x1="100.6792" x2="142.6792" y1="357.7891" y2="357.7891"/><line style="stroke:#181818;stroke-width:1.0;" x1="142.6792" x2="142.6792" y1="357.7891" y2="370.7891"/><line style="stroke:#181818;stroke-width:1.0;" x1="101.6792" x2="142.6792" y1="370.7891" y2="370.7891"/><polygon fill="#181818" points="111.6792,366.7891,101.6792,370.7891,111.6792,374.7891,107.6792,370.7891" style="stroke:#181818;stroke-width:1.0;"/><text fill="#000000" font-family="sans-serif" font-size="13" lengthAdjust="spacing" textLength="151.582" x="107.6792" y="337.5903">Affichage et lancement</text><text fill="#000000" font-family="sans-serif" font-size="13" lengthAdjust="spacing" textLength="153.3149" x="107.6792" y="352.7231">de exos/intro/salue-moi</text><line style="stroke:#181818;stroke-width:1.0;" x1="100.6792" x2="142.6792" y1="399.9219" y2="399.9219"/><line style="stroke:#181818;stroke-width:1.0;" x1="142.6792" x2="142.6792" y1="399.9219" y2="412.9219"/><line style="stroke:#181818;stroke-width:1.0;" x1="101.6792" x2="142.6792" y1="412.9219" y2="412.9219"/><polygon fill="#181818" points="111.6792,408.9219,101.6792,412.9219,111.6792,416.9219,107.6792,412.9219" style="stroke:#181818;stroke-width:1.0;"/><text fill="#000000" font-family="sans-serif" font-size="13" lengthAdjust="spacing" textLength="234.3745" x="107.6792" y="394.856">Ouvrir l'exercice, modifier et sauver</text><polygon fill="#181818" points="705.6997,438.0547,715.6997,442.0547,705.6997,446.0547,709.6997,442.0547" style="stroke:#181818;stroke-width:1.0;"/><line style="stroke:#181818;stroke-width:1.0;" x1="100.6792" x2="711.6997" y1="442.0547" y2="442.0547"/><text fill="#000000" font-family="sans-serif" font-size="13" lengthAdjust="spacing" textLength="227.0049" x="107.6792" y="436.9888">Action CodeChange "#include ....."</text><polygon fill="#181818" points="705.6997,467.1875,715.6997,471.1875,705.6997,475.1875,709.6997,471.1875" style="stroke:#181818;stroke-width:1.0;"/><line style="stroke:#181818;stroke-width:1.0;" x1="100.6792" x2="711.6997" y1="471.1875" y2="471.1875"/><text fill="#000000" font-family="sans-serif" font-size="13" lengthAdjust="spacing" textLength="280.7759" x="107.6792" y="466.1216">Action CheckResult passing=fail,output=...</text><path d="M618,484.1875 L618,509.1875 L816,509.1875 L816,494.1875 L806,484.1875 L618,484.1875 " fill="#FEFFDD" style="stroke:#181818;stroke-width:0.5;"/><path d="M806,484.1875 L806,494.1875 L816,494.1875 L806,484.1875 " fill="#FEFFDD" style="stroke:#181818;stroke-width:0.5;"/><text fill="#000000" font-family="sans-serif" font-size="13" lengthAdjust="spacing" textLength="177.3662" x="624" y="501.2544">Premier transfert imm&#233;diat</text><polygon fill="#181818" points="360.0537,531.4531,350.0537,535.4531,360.0537,539.4531,356.0537,535.4531" style="stroke:#181818;stroke-width:1.0;"/><line style="stroke:#181818;stroke-width:1.0;" x1="354.0537" x2="716.6997" y1="535.4531" y2="535.4531"/><text fill="#000000" font-family="sans-serif" font-size="13" lengthAdjust="spacing" textLength="313.3076" x="366.0537" y="530.3872">Event ForwardCode "code v1" client_tmp_id = 3</text><polygon fill="#181818" points="360.0537,560.5859,350.0537,564.5859,360.0537,568.5859,356.0537,564.5859" style="stroke:#181818;stroke-width:1.0;"/><line style="stroke:#181818;stroke-width:1.0;" x1="354.0537" x2="716.6997" y1="564.5859" y2="564.5859"/><text fill="#000000" font-family="sans-serif" font-size="13" lengthAdjust="spacing" textLength="320.0171" x="366.0537" y="559.52">Event ForwardCheck "code v1" client_tmp_id = 3</text><line style="stroke:#181818;stroke-width:1.0;" x1="100.6792" x2="142.6792" y1="593.7188" y2="593.7188"/><line style="stroke:#181818;stroke-width:1.0;" x1="142.6792" x2="142.6792" y1="593.7188" y2="606.7188"/><line style="stroke:#181818;stroke-width:1.0;" x1="101.6792" x2="142.6792" y1="606.7188" y2="606.7188"/><polygon fill="#181818" points="111.6792,602.7188,101.6792,606.7188,111.6792,610.7188,107.6792,606.7188" style="stroke:#181818;stroke-width:1.0;"/><text fill="#000000" font-family="sans-serif" font-size="13" lengthAdjust="spacing" textLength="155.9746" x="107.6792" y="588.6528">Changer code et sauver</text><polygon fill="#181818" points="705.6997,631.8516,715.6997,635.8516,705.6997,639.8516,709.6997,635.8516" style="stroke:#181818;stroke-width:1.0;"/><line style="stroke:#181818;stroke-width:1.0;" x1="100.6792" x2="711.6997" y1="635.8516" y2="635.8516"/><text fill="#000000" font-family="sans-serif" font-size="13" lengthAdjust="spacing" textLength="195.6665" x="107.6792" y="630.7856">Action CodeChange "code v2"</text><line style="stroke:#181818;stroke-width:1.0;" x1="100.6792" x2="142.6792" y1="664.9844" y2="664.9844"/><line style="stroke:#181818;stroke-width:1.0;" x1="142.6792" x2="142.6792" y1="664.9844" y2="677.9844"/><line style="stroke:#181818;stroke-width:1.0;" x1="101.6792" x2="142.6792" y1="677.9844" y2="677.9844"/><polygon fill="#181818" points="111.6792,673.9844,101.6792,677.9844,111.6792,681.9844,107.6792,677.9844" style="stroke:#181818;stroke-width:1.0;"/><text fill="#000000" font-family="sans-serif" font-size="13" lengthAdjust="spacing" textLength="155.9746" x="107.6792" y="659.9185">Changer code et sauver</text><polygon fill="#181818" points="705.6997,703.1172,715.6997,707.1172,705.6997,711.1172,709.6997,707.1172" style="stroke:#181818;stroke-width:1.0;"/><line style="stroke:#181818;stroke-width:1.0;" x1="100.6792" x2="711.6997" y1="707.1172" y2="707.1172"/><text fill="#000000" font-family="sans-serif" font-size="13" lengthAdjust="spacing" textLength="195.6665" x="107.6792" y="702.0513">Action CodeChange "code v3"</text><rect fill="#EEEEEE" height="3" style="stroke:#EEEEEE;stroke-width:1.0;" width="821.3662" x="0" y="735.6836"/><line style="stroke:#000000;stroke-width:1.0;" x1="0" x2="821.3662" y1="735.6836" y2="735.6836"/><line style="stroke:#000000;stroke-width:1.0;" x1="0" x2="821.3662" y1="738.6836" y2="738.6836"/><rect fill="#EEEEEE" height="23.1328" style="stroke:#000000;stroke-width:2.0;" width="39.8286" x="390.7688" y="725.1172"/><text fill="#000000" font-family="sans-serif" font-size="13" font-style="italic" font-weight="bold" lengthAdjust="spacing" textLength="25.8286" x="396.7688" y="741.1841">40s</text><polygon fill="#181818" points="360.0537,775.3828,350.0537,779.3828,360.0537,783.3828,356.0537,779.3828" style="stroke:#181818;stroke-width:1.0;"/><line style="stroke:#181818;stroke-width:1.0;" x1="354.0537" x2="716.6997" y1="779.3828" y2="779.3828"/><text fill="#000000" font-family="sans-serif" font-size="13" lengthAdjust="spacing" textLength="344.646" x="366.0537" y="774.3169">Event ForwardCode "#include ....." client_tmp_id = 3</text><polygon fill="#181818" points="705.6997,804.5156,715.6997,808.5156,705.6997,812.5156,709.6997,808.5156" style="stroke:#181818;stroke-width:1.0;"/><line style="stroke:#181818;stroke-width:1.0;" x1="349.0537" x2="711.6997" y1="808.5156" y2="808.5156"/><text fill="#000000" font-family="sans-serif" font-size="13" lengthAdjust="spacing" textLength="336.1147" x="356.0537" y="803.4497">Action ConfigureSync mode=checks, frequency=3s</text><path d="M30,821.5156 L30,846.5156 L787,846.5156 L787,831.5156 L777,821.5156 L30,821.5156 " fill="#FEFFDD" style="stroke:#181818;stroke-width:0.5;"/><path d="M777,821.5156 L777,831.5156 L787,831.5156 L777,821.5156 " fill="#FEFFDD" style="stroke:#181818;stroke-width:0.5;"/><text fill="#000000" font-family="sans-serif" font-size="13" lengthAdjust="spacing" textLength="160.8496" x="323.6917" y="838.5825">Fermeture d'une session</text><!--SRC=[jPHBRjim48RtFCL0NNWHfqdghW8eGE36Yo90WthJHO60eKRM81Ifyk77aNAENgn3CJQSn7RYHRMXHFBxEVfdXWrL2BMruS4kXGWKDCAtwAG940s2H-_96j0qHo4wwG8fwj9gCTQ4FDxT_eA9rTekqC4fV8-QP07IisYUt4lTegmo8zLZZ-X-vYKmHJV7w1BHx_7fsmbXR42m_BevQFYyTWa_8WyXEeHgiFKNGfJz0-SUob8COCeSFCG0obPueXfKZrxevx2kDdBNAYGFnjRKD6FLwSeeQ1affTP3g1t-YMZKghmuz-iZHlcClMBJ1GNLt2mjuDBwCpB1sJClTSJJrfB8knEN5IxXPfvyOo2JMBq7hctvC5flihWDNzSrgKRE4320baPXosg_3PVD4IgS4KSEz02Nw1Gf72O3gIRUoBfUfeozOD-ON-6uaORZA3wHKJfo09_JKnp4Kav_eeywG2Uv2ioih2NfeOsXYw5aVgkIrl2TmpP55hWFVCsb1DIsVvygac5lPYRMBQIhKfnGf7g2-KK1gY_t-z1szrG1byMxV0hueC1kWxCthg_auntDntqf_gFug5YtnjVS6XyoybMgTzZ1RJoHFh1ItyXz3uCrUdLK8sTkkvT7_k0LCq7NueuhvXy0]--></g></svg>